*
*
G04 PADS 9.5 Build Number: 522968 generated Gerber (RS-274-X) file*
G04 PC Version=2.1*
*
%IN "PCB_ESP-Moonlight_V2.0_"*%
*
%MOIN*%
*
%FSLAX35Y35*%
*
*
*
*
G04 PC Standard Apertures*
*
*
G04 Thermal Relief Aperture macro.*
%AMTER*
1,1,$1,0,0*
1,0,$1-$2,0,0*
21,0,$3,$4,0,0,45*
21,0,$3,$4,0,0,135*
%
*
*
G04 Annular Aperture macro.*
%AMANN*
1,1,$1,0,0*
1,0,$2,0,0*
%
*
*
G04 Odd Aperture macro.*
%AMODD*
1,1,$1,0,0*
1,0,$1-0.005,0,0*
%
*
*
G04 PC Custom Aperture Macros*
*
*
*
*
*
*
G04 PC Aperture Table*
*
%ADD010C,0.001*%
%ADD044C,0.01*%
%ADD048C,0.006*%
%ADD049C,0.009*%
%ADD109C,0.005*%
%ADD114C,0.003*%
%ADD119C,0.007*%
%ADD231C,0.004*%
%ADD284C,0.0035*%
%ADD285C,0.0055*%
*
*
*
*
G04 PC Circuitry*
G04 Layer Name PCB_ESP-Moonlight_V2.0_ - circuitry*
%LPD*%
*
G54D10*
G01X1977857Y1657532D02*
X1977814Y1657833D01*
X1977691Y1658080*
X1977488Y1658202*
X1977488D02*
X1977194Y1658244D01*
X1976981Y1658201*
X1976813Y1658159*
X1976651Y1658037*
X1976522Y1657822*
X1976434Y1657825*
X1976348Y1657997*
X1976227Y1658118*
X1976018Y1658201*
X1975810Y1658243*
X1975646Y1658202*
X1975435Y1658118*
X1975175Y1657857*
X1975089Y1657892*
Y1658200*
X1974788*
Y1655978*
X1975089*
Y1657401*
X1975091Y1657413*
X1975136Y1657592*
X1975146Y1657612*
X1975369Y1657880*
X1975394Y1657896*
X1975706Y1657985*
X1975732Y1657986*
X1975911Y1657941*
X1975926Y1657934*
X1976060Y1657845*
X1976077Y1657826*
X1976166Y1657647*
X1976172Y1657625*
Y1655978*
X1976473*
Y1657267*
X1976474Y1657275*
X1976519Y1657587*
X1976528Y1657610*
X1976662Y1657789*
X1976672Y1657799*
X1976851Y1657932*
X1976871Y1657941*
X1977094Y1657986*
X1977114*
X1977337Y1657941*
X1977367Y1657922*
X1977501Y1657744*
X1977508Y1657730*
X1977553Y1657596*
X1977556Y1657580*
Y1655978*
X1977857*
Y1657532*
X1974107D02*
X1974064Y1657833D01*
X1973941Y1658080*
X1973738Y1658202*
X1973738D02*
X1973444Y1658244D01*
X1973231Y1658201*
X1973063Y1658159*
X1972901Y1658037*
X1972772Y1657822*
X1972684Y1657825*
X1972598Y1657997*
X1972477Y1658118*
X1972268Y1658201*
X1972060Y1658243*
X1971896Y1658202*
X1971685Y1658118*
X1971425Y1657857*
X1971339Y1657892*
Y1658200*
X1971038*
Y1655978*
X1971339*
Y1657401*
X1971341Y1657413*
X1971386Y1657592*
X1971396Y1657612*
X1971619Y1657880*
X1971644Y1657896*
X1971956Y1657985*
X1971982Y1657986*
X1972161Y1657941*
X1972176Y1657934*
X1972310Y1657845*
X1972327Y1657826*
X1972416Y1657647*
X1972422Y1657625*
Y1655978*
X1972723*
Y1657267*
X1972724Y1657275*
X1972769Y1657587*
X1972778Y1657610*
X1972912Y1657789*
X1972922Y1657799*
X1973101Y1657932*
X1973121Y1657941*
X1973344Y1657986*
X1973364*
X1973587Y1657941*
X1973617Y1657922*
X1973751Y1657744*
X1973758Y1657730*
X1973803Y1657596*
X1973806Y1657580*
Y1655978*
X1974107*
Y1657532*
X1970447Y1657930D02*
X1970360Y1658234D01*
X1970184Y1658717*
X1970059Y1658884*
X1969895Y1659006*
X1969468Y1659092*
X1969172Y1659049*
X1968922Y1658924*
X1968754Y1658715*
X1968625Y1658413*
X1968537Y1658019*
X1968493Y1657489*
Y1657095*
X1968581Y1656745*
X1968668Y1656439*
X1968793Y1656231*
X1969089Y1656019*
X1969472Y1655934*
X1969767Y1655977*
X1969767D02*
X1970018Y1656102D01*
X1970185Y1656311*
X1970315Y1656613*
X1970402Y1657007*
X1970447Y1657493*
Y1657930*
X1970145Y1657848D02*
Y1657134D01*
X1970144Y1657125*
X1970100Y1656857*
X1970099Y1656856*
X1970055Y1656633*
X1970050Y1656620*
X1969961Y1656442*
X1969948Y1656425*
X1969724Y1656246*
X1969703Y1656236*
X1969480Y1656192*
X1969460*
X1969237Y1656236*
X1969215Y1656246*
X1968992Y1656425*
X1968979Y1656442*
X1968889Y1656620*
X1968885Y1656633*
X1968840Y1656856*
Y1656857*
X1968796Y1657125*
X1968795Y1657134*
Y1657848*
Y1657855*
X1968840Y1658167*
Y1658170*
X1968885Y1658393*
X1968889Y1658406*
X1968979Y1658584*
X1968992Y1658601*
X1969215Y1658780*
X1969237Y1658790*
X1969460Y1658834*
X1969478Y1658835*
X1969746Y1658790*
X1969777Y1658772*
X1969955Y1658549*
X1969958Y1658545*
X1970047Y1658411*
X1970055Y1658393*
X1970099Y1658170*
X1970100Y1658167*
X1970144Y1657855*
X1970145Y1657848*
X1967947Y1657930D02*
X1967860Y1658234D01*
X1967684Y1658717*
X1967559Y1658884*
X1967395Y1659006*
X1966968Y1659092*
X1966672Y1659049*
X1966422Y1658924*
X1966254Y1658715*
X1966125Y1658413*
X1966037Y1658019*
X1965993Y1657489*
Y1657095*
X1966081Y1656745*
X1966168Y1656439*
X1966293Y1656231*
X1966589Y1656019*
X1966972Y1655934*
X1967267Y1655977*
X1967267D02*
X1967518Y1656102D01*
X1967685Y1656311*
X1967815Y1656613*
X1967902Y1657007*
X1967947Y1657493*
Y1657930*
X1967645Y1657848D02*
Y1657134D01*
X1967644Y1657125*
X1967600Y1656857*
X1967599Y1656856*
X1967555Y1656633*
X1967550Y1656620*
X1967461Y1656442*
X1967448Y1656425*
X1967224Y1656246*
X1967203Y1656236*
X1966980Y1656192*
X1966960*
X1966737Y1656236*
X1966715Y1656246*
X1966492Y1656425*
X1966479Y1656442*
X1966389Y1656620*
X1966385Y1656633*
X1966340Y1656856*
Y1656857*
X1966296Y1657125*
X1966295Y1657134*
Y1657848*
Y1657855*
X1966340Y1658167*
Y1658170*
X1966385Y1658393*
X1966389Y1658406*
X1966479Y1658584*
X1966492Y1658601*
X1966715Y1658780*
X1966737Y1658790*
X1966960Y1658834*
X1966978Y1658835*
X1967246Y1658790*
X1967277Y1658772*
X1967455Y1658549*
X1967458Y1658545*
X1967547Y1658411*
X1967555Y1658393*
X1967599Y1658170*
X1967600Y1658167*
X1967644Y1657855*
X1967645Y1657848*
X1965223Y1656280D02*
X1964922D01*
Y1655978*
X1965223*
Y1656280*
X1964196Y1657580D02*
X1964152Y1658107D01*
X1964152D02*
X1964066Y1658454D01*
X1963894Y1658755*
X1963726Y1658923*
X1963473Y1659049*
X1963177Y1659092*
X1962794Y1659007*
X1962500Y1658796*
X1962330Y1658456*
X1962244Y1658070*
X1962330Y1657641*
X1962499Y1657303*
X1962793Y1657135*
X1963088Y1657051*
X1963295Y1657092*
X1963506Y1657177*
X1963812Y1657439*
X1963895Y1657401*
Y1657357*
Y1657352*
X1963850Y1656861*
X1963845Y1656843*
X1963758Y1656670*
X1963715Y1656496*
X1963698Y1656469*
X1963474Y1656291*
X1963457Y1656282*
X1963144Y1656193*
X1963118Y1656192*
X1962940Y1656237*
X1962924Y1656244*
X1962790Y1656333*
X1962776Y1656347*
X1962687Y1656481*
X1962681Y1656493*
X1962605Y1656722*
X1962300Y1656688*
X1962373Y1656395*
X1962542Y1656143*
X1962791Y1655976*
X1963130Y1655934*
X1963428Y1655977*
X1963428D02*
X1963681Y1656103D01*
X1963894Y1656316*
X1964065Y1656616*
X1964152Y1657051*
X1964196Y1657580*
X1963895Y1658071D02*
X1963894Y1658064D01*
X1963850Y1657751*
X1963843Y1657733*
X1963709Y1657510*
X1963696Y1657495*
X1963518Y1657361*
X1963496Y1657352*
X1963228Y1657307*
X1963212*
X1962944Y1657352*
X1962922Y1657361*
X1962743Y1657495*
X1962731Y1657510*
X1962597Y1657733*
X1962590Y1657750*
X1962546Y1658018*
X1962545Y1658026*
Y1658033*
X1962590Y1658346*
X1962597Y1658365*
X1962731Y1658588*
X1962742Y1658601*
X1962965Y1658780*
X1962987Y1658790*
X1963210Y1658834*
X1963228Y1658835*
X1963496Y1658790*
X1963518Y1658781*
X1963696Y1658647*
X1963711Y1658629*
X1963845Y1658361*
X1963850Y1658347*
X1963894Y1658079*
X1963895Y1658071*
X1961696Y1656868D02*
X1961654Y1657161D01*
X1961528Y1657370*
X1961362Y1657536*
X1961106Y1657622*
X1961092Y1657709*
X1961435Y1657966*
X1961517Y1658295*
X1961433Y1658712*
X1961097Y1658965*
X1960884Y1659050*
X1960673Y1659092*
X1960336Y1659050*
X1960086Y1658883*
X1959916Y1658628*
X1959807Y1658337*
X1960107Y1658303*
X1960182Y1658491*
X1960184Y1658495*
X1960273Y1658674*
X1960296Y1658696*
X1960474Y1658785*
X1960485Y1658789*
X1960663Y1658834*
X1960685*
X1960908Y1658790*
X1960926Y1658782*
X1961060Y1658693*
X1961077Y1658674*
X1961166Y1658495*
X1961170Y1658485*
X1961215Y1658306*
Y1658284*
X1961171Y1658061*
X1961157Y1658036*
X1961023Y1657902*
X1961018Y1657897*
X1960839Y1657763*
X1960809Y1657753*
X1960541*
X1960510Y1657506*
X1960712Y1657540*
X1960728*
X1960996Y1657495*
X1961018Y1657486*
X1961196Y1657352*
X1961206Y1657342*
X1961340Y1657164*
X1961350Y1657142*
X1961394Y1656874*
X1961395Y1656866*
X1961394Y1656856*
X1961349Y1656633*
X1961343Y1656617*
X1961209Y1656393*
X1961196Y1656379*
X1961018Y1656245*
X1960996Y1656236*
X1960728Y1656191*
X1960710Y1656192*
X1960487Y1656236*
X1960474Y1656241*
X1960296Y1656330*
X1960278Y1656345*
X1960144Y1656523*
X1960137Y1656537*
X1960060Y1656767*
X1959755Y1656733*
X1959829Y1656441*
X1960040Y1656145*
X1960334Y1655977*
X1960673Y1655934*
X1961104Y1656020*
X1961398Y1656189*
X1961611Y1656528*
X1961696Y1656868*
X1886607Y1574532D02*
X1886564Y1574833D01*
X1886441Y1575080*
X1886238Y1575202*
X1886238D02*
X1885944Y1575244D01*
X1885731Y1575201*
X1885563Y1575159*
X1885401Y1575037*
X1885272Y1574822*
X1885184Y1574825*
X1885098Y1574997*
X1884977Y1575118*
X1884768Y1575201*
X1884560Y1575243*
X1884396Y1575202*
X1884185Y1575118*
X1883925Y1574857*
X1883839Y1574892*
Y1575200*
X1883538*
Y1572978*
X1883839*
Y1574401*
X1883841Y1574413*
X1883886Y1574592*
X1883896Y1574612*
X1884119Y1574880*
X1884144Y1574896*
X1884456Y1574985*
X1884482Y1574986*
X1884661Y1574941*
X1884676Y1574934*
X1884810Y1574845*
X1884827Y1574826*
X1884916Y1574647*
X1884922Y1574625*
Y1572978*
X1885223*
Y1574267*
X1885224Y1574275*
X1885269Y1574587*
X1885278Y1574610*
X1885412Y1574789*
X1885422Y1574799*
X1885601Y1574932*
X1885621Y1574941*
X1885844Y1574986*
X1885864*
X1886087Y1574941*
X1886117Y1574922*
X1886251Y1574744*
X1886258Y1574730*
X1886303Y1574596*
X1886306Y1574580*
Y1572978*
X1886607*
Y1574532*
X1882857D02*
X1882814Y1574833D01*
X1882691Y1575080*
X1882488Y1575202*
X1882488D02*
X1882194Y1575244D01*
X1881981Y1575201*
X1881813Y1575159*
X1881651Y1575037*
X1881522Y1574822*
X1881434Y1574825*
X1881348Y1574997*
X1881227Y1575118*
X1881018Y1575201*
X1880810Y1575243*
X1880646Y1575202*
X1880435Y1575118*
X1880175Y1574857*
X1880089Y1574892*
Y1575200*
X1879788*
Y1572978*
X1880089*
Y1574401*
X1880091Y1574413*
X1880136Y1574592*
X1880146Y1574612*
X1880369Y1574880*
X1880394Y1574896*
X1880706Y1574985*
X1880732Y1574986*
X1880911Y1574941*
X1880926Y1574934*
X1881060Y1574845*
X1881077Y1574826*
X1881166Y1574647*
X1881172Y1574625*
Y1572978*
X1881473*
Y1574267*
X1881474Y1574275*
X1881519Y1574587*
X1881528Y1574610*
X1881662Y1574789*
X1881672Y1574799*
X1881851Y1574932*
X1881871Y1574941*
X1882094Y1574986*
X1882114*
X1882337Y1574941*
X1882367Y1574922*
X1882501Y1574744*
X1882508Y1574730*
X1882553Y1574596*
X1882556Y1574580*
Y1572978*
X1882857*
Y1574532*
X1879197Y1574930D02*
X1879110Y1575234D01*
X1878934Y1575717*
X1878809Y1575884*
X1878645Y1576006*
X1878218Y1576092*
X1877922Y1576049*
X1877672Y1575924*
X1877504Y1575715*
X1877375Y1575413*
X1877287Y1575019*
X1877243Y1574489*
Y1574095*
X1877331Y1573745*
X1877418Y1573439*
X1877543Y1573231*
X1877839Y1573019*
X1878222Y1572934*
X1878517Y1572977*
X1878517D02*
X1878768Y1573102D01*
X1878935Y1573311*
X1879065Y1573613*
X1879152Y1574007*
X1879197Y1574493*
Y1574930*
X1878895Y1574848D02*
Y1574134D01*
X1878894Y1574125*
X1878850Y1573857*
X1878849Y1573856*
X1878805Y1573633*
X1878800Y1573620*
X1878711Y1573442*
X1878698Y1573425*
X1878474Y1573246*
X1878453Y1573236*
X1878230Y1573192*
X1878210*
X1877987Y1573236*
X1877965Y1573246*
X1877742Y1573425*
X1877729Y1573442*
X1877639Y1573620*
X1877635Y1573633*
X1877590Y1573856*
Y1573857*
X1877546Y1574125*
X1877545Y1574134*
Y1574848*
Y1574855*
X1877590Y1575167*
Y1575170*
X1877635Y1575393*
X1877639Y1575406*
X1877729Y1575584*
X1877742Y1575601*
X1877965Y1575780*
X1877987Y1575790*
X1878210Y1575834*
X1878228Y1575835*
X1878496Y1575790*
X1878527Y1575772*
X1878705Y1575549*
X1878708Y1575545*
X1878797Y1575411*
X1878805Y1575393*
X1878849Y1575170*
X1878850Y1575167*
X1878894Y1574855*
X1878895Y1574848*
X1876697Y1574930D02*
X1876610Y1575234D01*
X1876434Y1575717*
X1876309Y1575884*
X1876145Y1576006*
X1875718Y1576092*
X1875422Y1576049*
X1875172Y1575924*
X1875004Y1575715*
X1874875Y1575413*
X1874787Y1575019*
X1874743Y1574489*
Y1574095*
X1874831Y1573745*
X1874918Y1573439*
X1875043Y1573231*
X1875339Y1573019*
X1875722Y1572934*
X1876017Y1572977*
X1876017D02*
X1876268Y1573102D01*
X1876435Y1573311*
X1876565Y1573613*
X1876652Y1574007*
X1876697Y1574493*
Y1574930*
X1876395Y1574848D02*
Y1574134D01*
X1876394Y1574125*
X1876350Y1573857*
X1876349Y1573856*
X1876305Y1573633*
X1876300Y1573620*
X1876211Y1573442*
X1876198Y1573425*
X1875974Y1573246*
X1875953Y1573236*
X1875730Y1573192*
X1875710*
X1875487Y1573236*
X1875465Y1573246*
X1875242Y1573425*
X1875229Y1573442*
X1875139Y1573620*
X1875135Y1573633*
X1875090Y1573856*
Y1573857*
X1875046Y1574125*
X1875045Y1574134*
Y1574848*
Y1574855*
X1875090Y1575167*
Y1575170*
X1875135Y1575393*
X1875139Y1575406*
X1875229Y1575584*
X1875242Y1575601*
X1875465Y1575780*
X1875487Y1575790*
X1875710Y1575834*
X1875728Y1575835*
X1875996Y1575790*
X1876027Y1575772*
X1876205Y1575549*
X1876208Y1575545*
X1876297Y1575411*
X1876305Y1575393*
X1876349Y1575170*
X1876350Y1575167*
X1876394Y1574855*
X1876395Y1574848*
X1873973Y1573280D02*
X1873672D01*
Y1572978*
X1873973*
Y1573280*
X1872946Y1574580D02*
X1872902Y1575107D01*
X1872902D02*
X1872816Y1575454D01*
X1872644Y1575755*
X1872476Y1575923*
X1872223Y1576049*
X1871927Y1576092*
X1871544Y1576007*
X1871250Y1575796*
X1871080Y1575456*
X1870994Y1575070*
X1871080Y1574641*
X1871249Y1574303*
X1871543Y1574135*
X1871838Y1574051*
X1872045Y1574092*
X1872256Y1574177*
X1872562Y1574439*
X1872645Y1574401*
Y1574357*
Y1574352*
X1872600Y1573861*
X1872595Y1573843*
X1872508Y1573670*
X1872465Y1573496*
X1872448Y1573469*
X1872224Y1573291*
X1872207Y1573282*
X1871894Y1573193*
X1871868Y1573192*
X1871690Y1573237*
X1871674Y1573244*
X1871540Y1573333*
X1871526Y1573347*
X1871437Y1573481*
X1871431Y1573493*
X1871355Y1573722*
X1871050Y1573688*
X1871123Y1573395*
X1871292Y1573143*
X1871541Y1572976*
X1871880Y1572934*
X1872178Y1572977*
X1872178D02*
X1872431Y1573103D01*
X1872644Y1573316*
X1872815Y1573616*
X1872902Y1574051*
X1872946Y1574580*
X1872645Y1575071D02*
X1872644Y1575064D01*
X1872600Y1574751*
X1872593Y1574733*
X1872459Y1574510*
X1872446Y1574495*
X1872268Y1574361*
X1872246Y1574352*
X1871978Y1574307*
X1871962*
X1871694Y1574352*
X1871672Y1574361*
X1871493Y1574495*
X1871481Y1574510*
X1871347Y1574733*
X1871340Y1574750*
X1871296Y1575018*
X1871295Y1575026*
Y1575033*
X1871340Y1575346*
X1871347Y1575365*
X1871481Y1575588*
X1871492Y1575601*
X1871715Y1575780*
X1871737Y1575790*
X1871960Y1575834*
X1871978Y1575835*
X1872246Y1575790*
X1872268Y1575781*
X1872446Y1575647*
X1872461Y1575629*
X1872595Y1575361*
X1872600Y1575347*
X1872644Y1575079*
X1872645Y1575071*
X1870446Y1573868D02*
X1870404Y1574161D01*
X1870278Y1574370*
X1870112Y1574536*
X1869856Y1574622*
X1869842Y1574709*
X1870185Y1574966*
X1870267Y1575295*
X1870183Y1575712*
X1869847Y1575965*
X1869634Y1576050*
X1869423Y1576092*
X1869086Y1576050*
X1868836Y1575883*
X1868666Y1575628*
X1868557Y1575337*
X1868857Y1575303*
X1868932Y1575491*
X1868934Y1575495*
X1869023Y1575674*
X1869046Y1575696*
X1869224Y1575785*
X1869235Y1575789*
X1869413Y1575834*
X1869435*
X1869658Y1575790*
X1869676Y1575782*
X1869810Y1575693*
X1869827Y1575674*
X1869916Y1575495*
X1869920Y1575485*
X1869965Y1575306*
Y1575284*
X1869921Y1575061*
X1869907Y1575036*
X1869773Y1574902*
X1869768Y1574897*
X1869589Y1574763*
X1869559Y1574753*
X1869291*
X1869260Y1574506*
X1869462Y1574540*
X1869478*
X1869746Y1574495*
X1869768Y1574486*
X1869946Y1574352*
X1869956Y1574342*
X1870090Y1574164*
X1870100Y1574142*
X1870144Y1573874*
X1870145Y1573866*
X1870144Y1573856*
X1870099Y1573633*
X1870093Y1573617*
X1869959Y1573393*
X1869946Y1573379*
X1869768Y1573245*
X1869746Y1573236*
X1869478Y1573191*
X1869460Y1573192*
X1869237Y1573236*
X1869224Y1573241*
X1869046Y1573330*
X1869028Y1573345*
X1868894Y1573523*
X1868887Y1573537*
X1868810Y1573767*
X1868505Y1573733*
X1868579Y1573441*
X1868790Y1573145*
X1869084Y1572977*
X1869423Y1572934*
X1869854Y1573020*
X1870148Y1573189*
X1870361Y1573528*
X1870446Y1573868*
X1868600Y1573411D02*
Y1573743D01*
Y1575332D02*
Y1575451D01*
X1868700Y1573271D02*
Y1573755D01*
Y1575321D02*
Y1575679D01*
X1868800Y1573139D02*
Y1573766D01*
Y1575310D02*
Y1575829D01*
X1868900Y1573082D02*
Y1573515D01*
Y1575410D02*
Y1575926D01*
X1869000Y1573025D02*
Y1573382D01*
Y1575627D02*
Y1575992D01*
X1869100Y1572975D02*
Y1573303D01*
Y1575723D02*
Y1576051D01*
X1869200Y1572962D02*
Y1573253D01*
Y1575773D02*
Y1576064D01*
X1869300Y1572950D02*
Y1573224D01*
Y1574513D02*
Y1574753D01*
Y1575806D02*
Y1576076D01*
X1869400Y1572937D02*
Y1573204D01*
Y1574530D02*
Y1574753D01*
Y1575831D02*
Y1576089D01*
X1869500Y1572949D02*
Y1573195D01*
Y1574536D02*
Y1574753D01*
Y1575821D02*
Y1576076D01*
X1869600Y1572969D02*
Y1573212D01*
Y1574520D02*
Y1574771D01*
Y1575801D02*
Y1576056D01*
X1869700Y1572989D02*
Y1573228D01*
Y1574503D02*
Y1574846D01*
Y1575766D02*
Y1576023D01*
X1869800Y1573009D02*
Y1573270D01*
Y1574462D02*
Y1574929D01*
Y1575700D02*
Y1575983D01*
X1869900Y1573047D02*
Y1573345D01*
Y1574387D02*
Y1574607D01*
Y1574753D02*
Y1575029D01*
Y1575528D02*
Y1575925D01*
X1870000Y1573104D02*
Y1573462D01*
Y1574284D02*
Y1574574D01*
Y1574828D02*
Y1575850D01*
X1870100Y1573161D02*
Y1573636D01*
Y1574139D02*
Y1574540D01*
Y1574903D02*
Y1575775D01*
X1870200Y1573271D02*
Y1574449D01*
Y1575028D02*
Y1575630D01*
X1870300Y1573431D02*
Y1574334D01*
X1870400Y1573685D02*
Y1574168D01*
X1871000Y1575041D02*
Y1575097D01*
X1871100Y1573489D02*
Y1573694D01*
Y1574601D02*
Y1575496D01*
X1871200Y1573280D02*
Y1573705D01*
Y1574401D02*
Y1575696D01*
X1871300Y1573137D02*
Y1573716D01*
Y1574274D02*
Y1574991D01*
Y1575066D02*
Y1575832D01*
X1871400Y1573071D02*
Y1573587D01*
Y1574217D02*
Y1574644D01*
Y1575454D02*
Y1575904D01*
X1871500Y1573004D02*
Y1573387D01*
Y1574160D02*
Y1574490D01*
Y1575607D02*
Y1575975D01*
X1871600Y1572969D02*
Y1573293D01*
Y1574119D02*
Y1574415D01*
Y1575687D02*
Y1576019D01*
X1871700Y1572956D02*
Y1573234D01*
Y1574090D02*
Y1574351D01*
Y1575767D02*
Y1576041D01*
X1871800Y1572944D02*
Y1573209D01*
Y1574062D02*
Y1574334D01*
Y1575802D02*
Y1576063D01*
X1871900Y1572937D02*
Y1573194D01*
Y1574063D02*
Y1574318D01*
Y1575822D02*
Y1576086D01*
X1872000Y1572951D02*
Y1573223D01*
Y1574083D02*
Y1574311D01*
Y1575831D02*
Y1576081D01*
X1872100Y1572965D02*
Y1573251D01*
Y1574114D02*
Y1574328D01*
Y1575814D02*
Y1576067D01*
X1872200Y1572988D02*
Y1573280D01*
Y1574154D02*
Y1574344D01*
Y1575798D02*
Y1576053D01*
X1872300Y1573038D02*
Y1573351D01*
Y1574214D02*
Y1574386D01*
Y1575756D02*
Y1576011D01*
X1872400Y1573088D02*
Y1573431D01*
Y1574300D02*
Y1574461D01*
Y1575681D02*
Y1575961D01*
X1872500Y1573172D02*
Y1573637D01*
Y1574386D02*
Y1574578D01*
Y1575551D02*
Y1575899D01*
X1872600Y1573272D02*
Y1573861D01*
Y1574451D02*
Y1574754D01*
Y1575344D02*
Y1575799D01*
X1872700Y1573414D02*
Y1575657D01*
X1872800Y1573589D02*
Y1575482D01*
X1872900Y1574039D02*
Y1575117D01*
X1873700Y1572978D02*
Y1573280D01*
X1873800Y1572978D02*
Y1573280D01*
X1873900Y1572978D02*
Y1573280D01*
X1874800Y1573867D02*
Y1575076D01*
X1874900Y1573502D02*
Y1575472D01*
X1875000Y1573302D02*
Y1575705D01*
X1875100Y1573190D02*
Y1573808D01*
Y1575218D02*
Y1575834D01*
X1875200Y1573119D02*
Y1573499D01*
Y1575527D02*
Y1575938D01*
X1875300Y1573047D02*
Y1573379D01*
Y1575647D02*
Y1575988D01*
X1875400Y1573006D02*
Y1573299D01*
Y1575727D02*
Y1576038D01*
X1875500Y1572984D02*
Y1573234D01*
Y1575792D02*
Y1576061D01*
X1875600Y1572961D02*
Y1573214D01*
Y1575812D02*
Y1576075D01*
X1875700Y1572939D02*
Y1573194D01*
Y1575832D02*
Y1576089D01*
X1875800Y1572945D02*
Y1573206D01*
Y1575823D02*
Y1576075D01*
X1875900Y1572960D02*
Y1573226D01*
Y1575806D02*
Y1576055D01*
X1876000Y1572974D02*
Y1573267D01*
Y1575789D02*
Y1576035D01*
X1876100Y1573018D02*
Y1573347D01*
Y1575680D02*
Y1576015D01*
X1876200Y1573068D02*
Y1573427D01*
Y1575555D02*
Y1575965D01*
X1876300Y1573142D02*
Y1573620D01*
Y1575406D02*
Y1575890D01*
X1876400Y1573267D02*
Y1575762D01*
X1876500Y1573462D02*
Y1575536D01*
X1876600Y1573771D02*
Y1575261D01*
X1877300Y1573867D02*
Y1575076D01*
X1877400Y1573502D02*
Y1575472D01*
X1877500Y1573302D02*
Y1575705D01*
X1877600Y1573190D02*
Y1573808D01*
Y1575218D02*
Y1575834D01*
X1877700Y1573119D02*
Y1573499D01*
Y1575527D02*
Y1575938D01*
X1877800Y1573047D02*
Y1573379D01*
Y1575647D02*
Y1575988D01*
X1877900Y1573006D02*
Y1573299D01*
Y1575727D02*
Y1576038D01*
X1878000Y1572984D02*
Y1573234D01*
Y1575792D02*
Y1576061D01*
X1878100Y1572961D02*
Y1573214D01*
Y1575812D02*
Y1576075D01*
X1878200Y1572939D02*
Y1573194D01*
Y1575832D02*
Y1576089D01*
X1878300Y1572945D02*
Y1573206D01*
Y1575823D02*
Y1576075D01*
X1878400Y1572960D02*
Y1573226D01*
Y1575806D02*
Y1576055D01*
X1878500Y1572974D02*
Y1573267D01*
Y1575789D02*
Y1576035D01*
X1878600Y1573018D02*
Y1573347D01*
Y1575680D02*
Y1576015D01*
X1878700Y1573068D02*
Y1573427D01*
Y1575555D02*
Y1575965D01*
X1878800Y1573142D02*
Y1573620D01*
Y1575406D02*
Y1575890D01*
X1878900Y1573267D02*
Y1575762D01*
X1879000Y1573462D02*
Y1575536D01*
X1879100Y1573771D02*
Y1575261D01*
X1879800Y1572978D02*
Y1575200D01*
X1879900Y1572978D02*
Y1575200D01*
X1880000Y1572978D02*
Y1575200D01*
X1880100Y1574450D02*
Y1574862D01*
X1880200Y1574677D02*
Y1574882D01*
X1880300Y1574797D02*
Y1574982D01*
X1880400Y1574898D02*
Y1575082D01*
X1880500Y1574926D02*
Y1575144D01*
X1880600Y1574955D02*
Y1575184D01*
X1880700Y1574983D02*
Y1575215D01*
X1880800Y1574969D02*
Y1575240D01*
X1880900Y1574944D02*
Y1575225D01*
X1881000Y1574885D02*
Y1575205D01*
X1881100Y1574780D02*
Y1575169D01*
X1881200Y1572978D02*
Y1575129D01*
X1881300Y1572978D02*
Y1575045D01*
X1881400Y1572978D02*
Y1574894D01*
X1881500Y1574457D02*
Y1574803D01*
X1881600Y1574706D02*
Y1574953D01*
X1881700Y1574820D02*
Y1575074D01*
X1881800Y1574895D02*
Y1575149D01*
X1881900Y1574947D02*
Y1575181D01*
X1882000Y1574967D02*
Y1575205D01*
X1882100Y1574987D02*
Y1575225D01*
X1882200Y1574969D02*
Y1575243D01*
X1882300Y1574949D02*
Y1575228D01*
X1882400Y1574878D02*
Y1575214D01*
X1882500Y1574745D02*
Y1575195D01*
X1882600Y1572978D02*
Y1575135D01*
X1882700Y1572978D02*
Y1575061D01*
X1882800Y1572978D02*
Y1574861D01*
X1883600Y1572978D02*
Y1575200D01*
X1883700Y1572978D02*
Y1575200D01*
X1883800Y1572978D02*
Y1575200D01*
X1883900Y1574617D02*
Y1574844D01*
X1884000Y1574737D02*
Y1574932D01*
X1884100Y1574857D02*
Y1575032D01*
X1884200Y1574912D02*
Y1575124D01*
X1884300Y1574941D02*
Y1575164D01*
X1884400Y1574969D02*
Y1575203D01*
X1884500Y1574981D02*
Y1575228D01*
X1884600Y1574956D02*
Y1575235D01*
X1884700Y1574918D02*
Y1575215D01*
X1884800Y1574851D02*
Y1575189D01*
X1884900Y1574680D02*
Y1575149D01*
X1885000Y1572978D02*
Y1575095D01*
X1885100Y1572978D02*
Y1574994D01*
X1885200Y1572978D02*
Y1574807D01*
X1885300Y1574639D02*
Y1574869D01*
X1885400Y1574773D02*
Y1575036D01*
X1885500Y1574857D02*
Y1575111D01*
X1885600Y1574932D02*
Y1575168D01*
X1885700Y1574957D02*
Y1575193D01*
X1885800Y1574977D02*
Y1575215D01*
X1885900Y1574979D02*
Y1575235D01*
X1886000Y1574959D02*
Y1575236D01*
X1886100Y1574937D02*
Y1575221D01*
X1886200Y1574812D02*
Y1575207D01*
X1886300Y1574605D02*
Y1575165D01*
X1886400Y1572978D02*
Y1575105D01*
X1886500Y1572978D02*
Y1574961D01*
X1886600Y1572978D02*
Y1574583D01*
X1959800Y1656555D02*
Y1656738D01*
X1959900Y1656341D02*
Y1656749D01*
Y1658326D02*
Y1658585D01*
X1960000Y1656201D02*
Y1656760D01*
Y1658315D02*
Y1658754D01*
X1960100Y1656110D02*
Y1656647D01*
Y1658304D02*
Y1658892D01*
X1960200Y1656053D02*
Y1656449D01*
Y1658527D02*
Y1658959D01*
X1960300Y1655996D02*
Y1656328D01*
Y1658698D02*
Y1659026D01*
X1960400Y1655968D02*
Y1656278D01*
Y1658748D02*
Y1659058D01*
X1960500Y1655956D02*
Y1656234D01*
Y1658793D02*
Y1659070D01*
X1960600Y1655943D02*
Y1656214D01*
Y1657521D02*
Y1657753D01*
Y1658818D02*
Y1659083D01*
X1960700Y1655939D02*
Y1656194D01*
Y1657538D02*
Y1657753D01*
Y1658831D02*
Y1659086D01*
X1960800Y1655959D02*
Y1656203D01*
Y1657528D02*
Y1657753D01*
Y1658811D02*
Y1659066D01*
X1960900Y1655979D02*
Y1656220D01*
Y1657511D02*
Y1657809D01*
Y1658791D02*
Y1659043D01*
X1961000Y1655999D02*
Y1656237D01*
Y1657494D02*
Y1657884D01*
Y1658733D02*
Y1659003D01*
X1961100Y1656019D02*
Y1656307D01*
Y1657424D02*
Y1657624D01*
Y1657715D02*
Y1657979D01*
Y1658628D02*
Y1658962D01*
X1961200Y1656075D02*
Y1656382D01*
Y1657349D02*
Y1657590D01*
Y1657790D02*
Y1658208D01*
Y1658365D02*
Y1658887D01*
X1961300Y1656132D02*
Y1656545D01*
Y1657217D02*
Y1657557D01*
Y1657865D02*
Y1658812D01*
X1961400Y1656191D02*
Y1657499D01*
Y1657940D02*
Y1658737D01*
X1961500Y1656351D02*
Y1657399D01*
Y1658228D02*
Y1658380D01*
X1961600Y1656511D02*
Y1657251D01*
X1962300Y1657791D02*
Y1658322D01*
X1962400Y1656355D02*
Y1656699D01*
Y1657501D02*
Y1658596D01*
X1962500Y1656205D02*
Y1656711D01*
Y1657303D02*
Y1658796D01*
X1962600Y1656104D02*
Y1656722D01*
Y1657246D02*
Y1657727D01*
Y1658370D02*
Y1658868D01*
X1962700Y1656037D02*
Y1656462D01*
Y1657188D02*
Y1657560D01*
Y1658537D02*
Y1658939D01*
X1962800Y1655975D02*
Y1656327D01*
Y1657133D02*
Y1657453D01*
Y1658647D02*
Y1659008D01*
X1962900Y1655963D02*
Y1656260D01*
Y1657105D02*
Y1657378D01*
Y1658727D02*
Y1659030D01*
X1963000Y1655950D02*
Y1656222D01*
Y1657076D02*
Y1657343D01*
Y1658792D02*
Y1659052D01*
X1963100Y1655938D02*
Y1656197D01*
Y1657053D02*
Y1657326D01*
Y1658812D02*
Y1659075D01*
X1963200Y1655944D02*
Y1656208D01*
Y1657073D02*
Y1657309D01*
Y1658832D02*
Y1659088D01*
X1963300Y1655958D02*
Y1656237D01*
Y1657094D02*
Y1657319D01*
Y1658823D02*
Y1659074D01*
X1963400Y1655973D02*
Y1656266D01*
Y1657134D02*
Y1657336D01*
Y1658806D02*
Y1659060D01*
X1963500Y1656013D02*
Y1656311D01*
Y1657174D02*
Y1657353D01*
Y1658789D02*
Y1659036D01*
X1963600Y1656063D02*
Y1656391D01*
Y1657257D02*
Y1657423D01*
Y1658719D02*
Y1658986D01*
X1963700Y1656122D02*
Y1656472D01*
Y1657343D02*
Y1657498D01*
Y1658644D02*
Y1658936D01*
X1963800Y1656222D02*
Y1656753D01*
Y1657429D02*
Y1657661D01*
Y1658451D02*
Y1658849D01*
X1963900Y1656326D02*
Y1658744D01*
X1964000Y1656501D02*
Y1658569D01*
X1964100Y1656789D02*
Y1658317D01*
X1965000Y1655978D02*
Y1656280D01*
X1965100Y1655978D02*
Y1656280D01*
X1965200Y1655978D02*
Y1656280D01*
X1966000Y1657067D02*
Y1657572D01*
X1966100Y1656677D02*
Y1658301D01*
X1966200Y1656386D02*
Y1658588D01*
X1966300Y1656226D02*
Y1657098D01*
Y1657887D02*
Y1658772D01*
X1966400Y1656154D02*
Y1656599D01*
Y1658427D02*
Y1658897D01*
X1966500Y1656083D02*
Y1656419D01*
Y1658607D02*
Y1658963D01*
X1966600Y1656017D02*
Y1656339D01*
Y1658687D02*
Y1659013D01*
X1966700Y1655995D02*
Y1656259D01*
Y1658767D02*
Y1659053D01*
X1966800Y1655972D02*
Y1656224D01*
Y1658802D02*
Y1659068D01*
X1966900Y1655950D02*
Y1656204D01*
Y1658822D02*
Y1659082D01*
X1967000Y1655938D02*
Y1656196D01*
Y1658831D02*
Y1659085D01*
X1967100Y1655953D02*
Y1656216D01*
Y1658814D02*
Y1659065D01*
X1967200Y1655967D02*
Y1656236D01*
Y1658798D02*
Y1659045D01*
X1967300Y1655993D02*
Y1656307D01*
Y1658743D02*
Y1659025D01*
X1967400Y1656043D02*
Y1656387D01*
Y1658618D02*
Y1659003D01*
X1967500Y1656093D02*
Y1656520D01*
Y1658482D02*
Y1658928D01*
X1967600Y1656204D02*
Y1656860D01*
Y1658165D02*
Y1658829D01*
X1967700Y1656345D02*
Y1658673D01*
X1967800Y1656578D02*
Y1658398D01*
X1967900Y1656996D02*
Y1658093D01*
X1968500Y1657067D02*
Y1657572D01*
X1968600Y1656677D02*
Y1658301D01*
X1968700Y1656386D02*
Y1658588D01*
X1968800Y1656226D02*
Y1657098D01*
Y1657887D02*
Y1658772D01*
X1968900Y1656154D02*
Y1656599D01*
Y1658427D02*
Y1658897D01*
X1969000Y1656083D02*
Y1656419D01*
Y1658607D02*
Y1658963D01*
X1969100Y1656017D02*
Y1656339D01*
Y1658687D02*
Y1659013D01*
X1969200Y1655995D02*
Y1656259D01*
Y1658767D02*
Y1659053D01*
X1969300Y1655972D02*
Y1656224D01*
Y1658802D02*
Y1659068D01*
X1969400Y1655950D02*
Y1656204D01*
Y1658822D02*
Y1659082D01*
X1969500Y1655938D02*
Y1656196D01*
Y1658831D02*
Y1659085D01*
X1969600Y1655953D02*
Y1656216D01*
Y1658814D02*
Y1659065D01*
X1969700Y1655967D02*
Y1656236D01*
Y1658798D02*
Y1659045D01*
X1969800Y1655993D02*
Y1656307D01*
Y1658743D02*
Y1659025D01*
X1969900Y1656043D02*
Y1656387D01*
Y1658618D02*
Y1659003D01*
X1970000Y1656093D02*
Y1656520D01*
Y1658482D02*
Y1658928D01*
X1970100Y1656204D02*
Y1656860D01*
Y1658165D02*
Y1658829D01*
X1970200Y1656345D02*
Y1658673D01*
X1970300Y1656578D02*
Y1658398D01*
X1970400Y1656996D02*
Y1658093D01*
X1971100Y1655978D02*
Y1658200D01*
X1971200Y1655978D02*
Y1658200D01*
X1971300Y1655978D02*
Y1658200D01*
X1971400Y1657617D02*
Y1657844D01*
X1971500Y1657737D02*
Y1657932D01*
X1971600Y1657857D02*
Y1658032D01*
X1971700Y1657912D02*
Y1658124D01*
X1971800Y1657941D02*
Y1658164D01*
X1971900Y1657969D02*
Y1658203D01*
X1972000Y1657981D02*
Y1658228D01*
X1972100Y1657956D02*
Y1658235D01*
X1972200Y1657918D02*
Y1658215D01*
X1972300Y1657851D02*
Y1658189D01*
X1972400Y1657680D02*
Y1658149D01*
X1972500Y1655978D02*
Y1658095D01*
X1972600Y1655978D02*
Y1657994D01*
X1972700Y1655978D02*
Y1657807D01*
X1972800Y1657639D02*
Y1657869D01*
X1972900Y1657773D02*
Y1658036D01*
X1973000Y1657857D02*
Y1658111D01*
X1973100Y1657932D02*
Y1658168D01*
X1973200Y1657957D02*
Y1658193D01*
X1973300Y1657977D02*
Y1658215D01*
X1973400Y1657979D02*
Y1658235D01*
X1973500Y1657959D02*
Y1658236D01*
X1973600Y1657937D02*
Y1658221D01*
X1973700Y1657812D02*
Y1658207D01*
X1973800Y1657605D02*
Y1658165D01*
X1973900Y1655978D02*
Y1658105D01*
X1974000Y1655978D02*
Y1657961D01*
X1974100Y1655978D02*
Y1657583D01*
X1974800Y1655978D02*
Y1658200D01*
X1974900Y1655978D02*
Y1658200D01*
X1975000Y1655978D02*
Y1658200D01*
X1975100Y1657450D02*
Y1657862D01*
X1975200Y1657677D02*
Y1657882D01*
X1975300Y1657797D02*
Y1657982D01*
X1975400Y1657898D02*
Y1658082D01*
X1975500Y1657926D02*
Y1658144D01*
X1975600Y1657955D02*
Y1658184D01*
X1975700Y1657983D02*
Y1658215D01*
X1975800Y1657969D02*
Y1658240D01*
X1975900Y1657944D02*
Y1658225D01*
X1976000Y1657885D02*
Y1658205D01*
X1976100Y1657780D02*
Y1658169D01*
X1976200Y1655978D02*
Y1658129D01*
X1976300Y1655978D02*
Y1658045D01*
X1976400Y1655978D02*
Y1657894D01*
X1976500Y1657457D02*
Y1657803D01*
X1976600Y1657706D02*
Y1657953D01*
X1976700Y1657820D02*
Y1658074D01*
X1976800Y1657895D02*
Y1658149D01*
X1976900Y1657947D02*
Y1658181D01*
X1977000Y1657967D02*
Y1658205D01*
X1977100Y1657987D02*
Y1658225D01*
X1977200Y1657969D02*
Y1658243D01*
X1977300Y1657949D02*
Y1658228D01*
X1977400Y1657878D02*
Y1658214D01*
X1977500Y1657745D02*
Y1658195D01*
X1977600Y1655978D02*
Y1658135D01*
X1977700Y1655978D02*
Y1658061D01*
X1977800Y1655978D02*
Y1657861D01*
*
G04 PC Custom Flashes*
G04 Layer Name PCB_ESP-Moonlight_V2.0_ - flashes*
%LPD*%
*
*
G04 PC Circuitry*
G04 Layer Name PCB_ESP-Moonlight_V2.0_ - circuitry*
%LPD*%
*
G54D10*
X1891732Y1498031D02*
X1891735D01*
X1891732Y1651575D02*
X1891735D01*
X1891732D02*
X1891735D01*
X2045276D02*
X2045278D01*
G54D44*
X1918934Y1504803D02*
G75*
G03X1918934I-5430J0D01*
G54D48*
G01X1908899Y1551168D02*
X1897109Y1538678D01*
X1908659Y1538328D02*
X1897159Y1551318D01*
X1902098Y1539508D02*
G03X1902098I-989J0D01*
G01X1905979Y1549988D02*
Y1550608D01*
G54D49*
X1916933Y1508309D02*
X1909035Y1500480D01*
G54D109*
X2024917Y1573614D02*
Y1549992D01*
X2044209*
Y1573614*
X2024917*
Y1564953D02*
X2026886D01*
Y1558654*
X2024917*
Y1564953*
X1982434Y1667395D02*
X1984252Y1660833D01*
X1982434Y1667395D02*
X1980616Y1660833D01*
X1983570Y1663020D02*
X1981297D01*
X1978570Y1667395D02*
Y1660833D01*
Y1667395D02*
X1975388Y1660833D01*
Y1667395D02*
Y1660833D01*
X1971752Y1667395D02*
Y1660833D01*
X1973343Y1667395D02*
X1970161D01*
X1968116D02*
Y1660833D01*
Y1667395D02*
X1965161D01*
X1968116Y1664270D02*
X1966297D01*
X1968116Y1660833D02*
X1965161D01*
X1963116Y1667395D02*
Y1660833D01*
Y1667395D02*
X1959934Y1660833D01*
Y1667395D02*
Y1660833D01*
X1957888Y1667395D02*
Y1660833D01*
Y1667395D02*
X1954707Y1660833D01*
Y1667395D02*
Y1660833D01*
X1950843Y1667395D02*
X1952661Y1660833D01*
X1950843Y1667395D02*
X1949025Y1660833D01*
X1951979Y1663020D02*
X1949707D01*
X2033254Y1575631D02*
X2030390D01*
X2031822Y1549209D02*
Y1545553D01*
X2033254Y1547381D02*
X2030390D01*
X2027207Y1599053D02*
X2024254Y1599962D01*
X2027207Y1600871D02*
X2024254Y1599962D01*
X2026504Y1603599D02*
X2026785Y1603485D01*
X2027066Y1603258*
X2027207Y1603030*
Y1602576*
X2027066Y1602349*
X2026785Y1602121*
X2026504Y1602008*
X2026082Y1601894*
X2025379*
X2024957Y1602008*
X2024676Y1602121*
X2024395Y1602349*
X2024254Y1602576*
Y1603030*
X2024395Y1603258*
X2024676Y1603485*
X2024957Y1603599*
X2026504Y1606326D02*
X2026785Y1606212D01*
X2027066Y1605985*
X2027207Y1605758*
Y1605303*
X2027066Y1605076*
X2026785Y1604849*
X2026504Y1604735*
X2026082Y1604621*
X2025379*
X2024957Y1604735*
X2024676Y1604849*
X2024395Y1605076*
X2024254Y1605303*
Y1605758*
X2024395Y1605985*
X2024676Y1606212*
X2024957Y1606326*
X2027207Y1575712D02*
X2024254Y1574803D01*
X2027207Y1575712D02*
X2024254Y1576621D01*
X2025238Y1575144D02*
Y1576280D01*
X2027207Y1577644D02*
X2025098D01*
X2024676Y1577758*
X2024395Y1577985*
X2024254Y1578326*
Y1578553*
X2024395Y1578894*
X2024676Y1579121*
X2025098Y1579235*
X2027207*
Y1580258D02*
X2024254Y1581849D01*
X2027207D02*
X2024254Y1580258D01*
X2023691Y1582871D02*
Y1585258D01*
X2027207Y1585940D02*
X2024254Y1586849D01*
X2027207Y1587758D02*
X2024254Y1586849D01*
X2026504Y1590485D02*
X2026785Y1590371D01*
X2027066Y1590144*
X2027207Y1589917*
Y1589462*
X2027066Y1589235*
X2026785Y1589008*
X2026504Y1588894*
X2026082Y1588780*
X2025379*
X2024957Y1588894*
X2024676Y1589008*
X2024395Y1589235*
X2024254Y1589462*
Y1589917*
X2024395Y1590144*
X2024676Y1590371*
X2024957Y1590485*
X2026504Y1593212D02*
X2026785Y1593099D01*
X2027066Y1592871*
X2027207Y1592644*
Y1592190*
X2027066Y1591962*
X2026785Y1591735*
X2026504Y1591621*
X2026082Y1591508*
X2025379*
X2024957Y1591621*
X2024676Y1591735*
X2024395Y1591962*
X2024254Y1592190*
Y1592644*
X2024395Y1592871*
X2024676Y1593099*
X2024957Y1593212*
X2041004Y1546508D02*
X2041285Y1546394D01*
X2041566Y1546167*
X2041707Y1545940*
Y1545485*
X2041566Y1545258*
X2041285Y1545030*
X2041004Y1544917*
X2040582Y1544803*
X2039879*
X2039457Y1544917*
X2039176Y1545030*
X2038895Y1545258*
X2038754Y1545485*
Y1545940*
X2038895Y1546167*
X2039176Y1546394*
X2039457Y1546508*
X2039879*
Y1545940D02*
Y1546508D01*
X2041707Y1515553D02*
X2038754D01*
X2041707D02*
Y1516576D01*
X2041566Y1516917*
X2041426Y1517030*
X2041145Y1517144*
X2040863*
X2040582Y1517030*
X2040441Y1516917*
X2040301Y1516576*
Y1515553*
Y1516349D02*
X2038754Y1517144D01*
X1902993Y1530998D02*
X1899694Y1525117D01*
X1900179Y1524652*
X1901176Y1524355*
X1904662Y1524006*
X1906285Y1523624*
X1906649Y1522775*
X1907434Y1523336*
X1902993Y1530998*
X1894392Y1515927D02*
X1897526Y1521491D01*
X1898023Y1520651*
X1898317Y1520024*
X1898644Y1519723*
X1899662Y1519021*
X1894392Y1515927*
X1908776Y1520992D02*
X1908273Y1520768D01*
X1909352Y1518850*
X1908731Y1515486*
X1907336Y1514065*
X1906625Y1514013*
X1906167Y1514590*
X1906220Y1516148*
X1906648Y1516777*
X1906802Y1519032*
X1906288Y1519782*
X1904235Y1518557*
X1905127Y1517578*
X1905730Y1516806*
X1906081Y1516320*
X1906097Y1514962*
X1905993Y1514563*
X1905582Y1514069*
X1904694Y1514089*
X1902017Y1517220*
X1895396Y1513353*
X1913348*
X1908776Y1520992*
X1908674Y1536488D02*
X1897334D01*
Y1534118*
X1908674*
Y1536488*
X1903929Y1515468D02*
X1904133Y1515913D01*
X1904501Y1516151*
X1904889Y1516075*
X1905431Y1515414*
X1905593Y1515002*
X1905631Y1514680*
X1905550Y1514340*
X1908412Y1515763D02*
X1908217Y1515826D01*
X1907785Y1515840*
X1907315Y1515385*
X1907181Y1514920*
X1907201Y1514632*
X1907286Y1514431*
X1906457Y1523224D02*
X1907278D01*
X1906074Y1523674D02*
X1907237D01*
X1903481Y1524124D02*
X1906977D01*
X1900440Y1524574D02*
X1906716D01*
X1899790Y1525024D02*
X1906455D01*
X1899894Y1525474D02*
X1906194D01*
X1900146Y1525924D02*
X1905934D01*
X1900399Y1526374D02*
X1905673D01*
X1900651Y1526824D02*
X1905412D01*
X1900904Y1527274D02*
X1905151D01*
X1901156Y1527724D02*
X1904891D01*
X1901409Y1528174D02*
X1904630D01*
X1901661Y1528624D02*
X1904369D01*
X1901914Y1529074D02*
X1904108D01*
X1902166Y1529524D02*
X1903847D01*
X1902419Y1529974D02*
X1903587D01*
X1902671Y1530424D02*
X1903326D01*
X1902923Y1530874D02*
X1903065D01*
X1896166Y1519076D02*
X1899584D01*
X1895912Y1518626D02*
X1898988D01*
X1896419Y1519526D02*
X1898931D01*
X1896673Y1519976D02*
X1898370D01*
X1895659Y1518176D02*
X1898222D01*
X1896926Y1520426D02*
X1898129D01*
X1897180Y1520876D02*
X1897890D01*
X1897433Y1521326D02*
X1897624D01*
X1895405Y1517726D02*
X1897455D01*
X1895152Y1517276D02*
X1896689D01*
X1894898Y1516826D02*
X1895923D01*
X1894645Y1516376D02*
X1895156D01*
X1896165Y1513802D02*
X1913079D01*
X1907519Y1514252D02*
X1912810D01*
X1907961Y1514702D02*
X1912540D01*
X1908402Y1515152D02*
X1912271D01*
X1908752Y1515602D02*
X1912002D01*
X1908835Y1516052D02*
X1911732D01*
X1908918Y1516502D02*
X1911463D01*
X1909001Y1516952D02*
X1911194D01*
X1909084Y1517402D02*
X1910925D01*
X1909167Y1517852D02*
X1910655D01*
X1909250Y1518302D02*
X1910386D01*
X1909334Y1518752D02*
X1910117D01*
X1909154Y1519202D02*
X1909847D01*
X1908901Y1519652D02*
X1909578D01*
X1908647Y1520102D02*
X1909309D01*
X1908394Y1520552D02*
X1909039D01*
X1904561Y1518752D02*
X1906783D01*
X1904467Y1518302D02*
X1906752D01*
X1904877Y1517852D02*
X1906721D01*
X1905264Y1517402D02*
X1906691D01*
X1905315Y1519202D02*
X1906686D01*
X1905616Y1516952D02*
X1906660D01*
X1905950Y1516502D02*
X1906461D01*
X1905734Y1514252D02*
X1906436D01*
X1906069Y1519652D02*
X1906377D01*
X1906084Y1516052D02*
X1906217D01*
X1906090Y1515602D02*
X1906201D01*
X1906095Y1515152D02*
X1906186D01*
X1906029Y1514702D02*
X1906171D01*
X1896935Y1514252D02*
X1904555D01*
X1897705Y1514702D02*
X1904170D01*
X1898476Y1515152D02*
X1903785D01*
X1899246Y1515602D02*
X1903400D01*
X1900017Y1516052D02*
X1903016D01*
X1900787Y1516502D02*
X1902631D01*
X1901558Y1516952D02*
X1902246D01*
X1897334Y1536367D02*
X1908674D01*
X1897334Y1535917D02*
X1908674D01*
X1897334Y1535467D02*
X1908674D01*
X1897334Y1535017D02*
X1908674D01*
X1897334Y1534567D02*
X1908674D01*
X1899606Y1651575D02*
G03X1891732Y1643701I0J-7874D01*
G01X1899606Y1651575D02*
X2037402D01*
X2045276Y1643701D02*
G03X2037402Y1651575I-7874J-0D01*
G01X2045276Y1643701D02*
Y1505906D01*
X2037402Y1498031D02*
G03X2045276Y1505906I-0J7875D01*
G01X2037402Y1498031D02*
X1899606D01*
X1891732Y1505906D02*
G03X1899606Y1498031I7874J-0D01*
G01X1891732Y1505906D02*
Y1643701D01*
X2041339D02*
G03X2041339I-3937J0D01*
G01X1903543D02*
G03X1903543I-3937J0D01*
G01X1956693Y1517717D02*
X1980315D01*
Y1510630*
X1956693*
Y1517717*
X1903543Y1505906D02*
G03X1903543I-3937J0D01*
G01X2041339D02*
G03X2041339I-3937J0D01*
G01X1877254Y1498031D02*
Y1569928D01*
Y1498031D02*
X1876254Y1503031D01*
X1878254*
X1877254Y1498031*
Y1651575D02*
Y1579678D01*
Y1651575D02*
X1878254Y1646575D01*
X1876254*
X1877254Y1651575*
X1889732Y1498031D02*
X1875254D01*
X1889732Y1651575D02*
X1875254D01*
X1891732Y1657803D02*
X1956470D01*
X1891732D02*
X1896732Y1658803D01*
Y1656803*
X1891732Y1657803*
X2045276D02*
X1980538D01*
X2045276D02*
X2040276Y1656803D01*
Y1658803*
X2045276Y1657803*
X1891732Y1653575D02*
Y1659803D01*
X2045276Y1653575D02*
Y1659803D01*
X1899579Y1548958D02*
X1900659Y1540728D01*
X1906539Y1549078D02*
X1899389D01*
X1902409Y1539338D02*
X1905989D01*
X1906879Y1549238*
G54D114*
X1903659Y1546268D02*
G03X1903709Y1546728I-7J234D01*
G01X1903659Y1546268D02*
X1902072D01*
X1902132Y1546778D02*
G03X1902073Y1546268I-44J-253D01*
G01X1902132Y1546778D02*
X1903699D01*
G54D119*
X1916189Y1504753D02*
X1915086D01*
Y1507603D02*
G03Y1504753I-0J-1425D01*
G01Y1507603D02*
X1916189D01*
Y1504753*
X1912154Y1507603D02*
Y1505313D01*
Y1505338D02*
G03X1910450Y1505320I-827J-2350D01*
Y1502553I805J-1383*
G01X1912154*
Y1505338*
X1916189Y1502553D02*
Y1504753D01*
G54D231*
X2012204Y1646303D02*
Y1649703D01*
X2012904Y1650403*
X2017004*
X2017804Y1649603*
Y1646303*
X2012204Y1643303D02*
Y1639903D01*
X2012904Y1639203*
X2017004*
X2017804Y1640003*
Y1643303*
X1936704Y1525303D02*
Y1528703D01*
X1937404Y1529403*
X1941504*
X1942304Y1528603*
Y1525303*
X1936704Y1522303D02*
Y1518903D01*
X1937404Y1518203*
X1941504*
X1942304Y1519003*
Y1522303*
X1984254Y1533003D02*
X1980854D01*
X1980154Y1533703*
Y1537803*
X1980954Y1538603*
X1984254*
X1987254Y1533003D02*
X1990654D01*
X1991354Y1533703*
Y1537803*
X1990554Y1538603*
X1987254*
X2012954Y1580303D02*
Y1583703D01*
X2013654Y1584403*
X2017754*
X2018554Y1583603*
Y1580303*
X2012954Y1577303D02*
Y1573903D01*
X2013654Y1573203*
X2017754*
X2018554Y1574003*
Y1577303*
X2010504Y1538253D02*
X2007104D01*
X2006404Y1538953*
Y1543053*
X2007204Y1543853*
X2010504*
X2013504Y1538253D02*
X2016904D01*
X2017604Y1538953*
Y1543053*
X2016804Y1543853*
X2013504*
X1971254Y1546303D02*
X1969054D01*
X1968654Y1545904*
Y1543716*
X1969067Y1543303*
X1971254*
X1973254Y1546303D02*
X1975454D01*
X1975854Y1545903*
Y1543703*
X1975454Y1543303*
X1973254*
X1965504D02*
X1967704D01*
X1968104Y1543702*
Y1545890*
X1967691Y1546303*
X1965504*
X1963504Y1543303D02*
X1961304D01*
X1960904Y1543703*
Y1545903*
X1961304Y1546303*
X1963504*
X1926004Y1515303D02*
Y1513103D01*
X1926403Y1512703*
X1928591*
X1929004Y1513116*
Y1515303*
X1926004Y1517303D02*
Y1519503D01*
X1926404Y1519903*
X1928604*
X1929004Y1519503*
Y1517303*
X2022754Y1579053D02*
Y1581253D01*
X2022355Y1581653*
X2020167*
X2019754Y1581240*
Y1579053*
X2022754Y1577053D02*
Y1574853D01*
X2022354Y1574453*
X2020154*
X2019754Y1574853*
Y1577053*
X2008254Y1644053D02*
Y1641853D01*
X2008653Y1641453*
X2010841*
X2011254Y1641866*
Y1644053*
X2008254Y1646053D02*
Y1648253D01*
X2008654Y1648653*
X2010854*
X2011254Y1648253*
Y1646053*
X2014004Y1632053D02*
X2016204D01*
X2016604Y1632452*
Y1634640*
X2016191Y1635053*
X2014004*
X2012004Y1632053D02*
X2009804D01*
X2009404Y1632453*
Y1634653*
X2009804Y1635053*
X2012004*
X1936754Y1567053D02*
Y1569253D01*
X1936355Y1569653*
X1934167*
X1933754Y1569240*
Y1567053*
X1936754Y1565053D02*
Y1562853D01*
X1936354Y1562453*
X1934154*
X1933754Y1562853*
Y1565053*
X2012004Y1631553D02*
X2009804D01*
X2009404Y1631154*
Y1628966*
X2009817Y1628553*
X2012004*
X2014004Y1631553D02*
X2016204D01*
X2016604Y1631153*
Y1628953*
X2016204Y1628553*
X2014004*
X2006004Y1544803D02*
X1999354D01*
X1997954Y1546203*
Y1553403*
X1999354Y1554803*
X2006004*
X2013504Y1544803D02*
X2020154D01*
X2021554Y1546203*
Y1553403*
X2020154Y1554803*
X2013504*
X1991392Y1557756D02*
Y1551850D01*
X1996116*
Y1557756*
X1991392*
Y1556870D02*
X1996116D01*
X1908774Y1608890D02*
X1923734D01*
Y1594717*
X1908774*
Y1608890*
X1914974Y1607512D02*
X1917533D01*
Y1596094*
X1914974*
Y1607512*
X1912234Y1595717D02*
G03X1912234I-492J0D01*
G01X1908774Y1594717D02*
X1923734D01*
Y1608890*
X1908774*
Y1594717*
Y1593140D02*
X1923734D01*
Y1578967*
X1908774*
Y1593140*
X1914974Y1591762D02*
X1917533D01*
Y1580344*
X1914974*
Y1591762*
X1912234Y1579967D02*
G03X1912234I-492J0D01*
G01X1908774Y1578967D02*
X1923734D01*
Y1593140*
X1908774*
Y1578967*
X2007524Y1570890D02*
X2022484D01*
Y1556717*
X2007524*
Y1570890*
X2013724Y1569512D02*
X2016283D01*
Y1558094*
X2013724*
Y1569512*
X2010984Y1557717D02*
G03X2010984I-492J0D01*
G01X2007524Y1556717D02*
X2022484D01*
Y1570890*
X2007524*
Y1556717*
X2014004Y1635553D02*
X2016604D01*
Y1638553*
X2014004*
X2012004Y1635553D02*
X2009404D01*
Y1638553*
X2012004*
X2021254Y1531053D02*
X2018654D01*
Y1528053*
X2021254*
X2023254Y1531053D02*
X2025854D01*
Y1528053*
X2023254*
X1926254Y1625553D02*
X1928854D01*
Y1628553*
X1926254*
X1924254Y1625553D02*
X1921654D01*
Y1628553*
X1924254*
X1926254Y1630553D02*
X1928854D01*
Y1633553*
X1926254*
X1924254Y1630553D02*
X1921654D01*
Y1633553*
X1924254*
X1928254Y1604803D02*
Y1607403D01*
X1925254*
Y1604803*
X1928254Y1602803D02*
Y1600203D01*
X1925254*
Y1602803*
Y1583053D02*
Y1580453D01*
X1928254*
Y1583053*
X1925254Y1585053D02*
Y1587653D01*
X1928254*
Y1585053*
X1939254Y1533053D02*
X1936654D01*
Y1530053*
X1939254*
X1941254Y1533053D02*
X1943854D01*
Y1530053*
X1941254*
X1971504Y1539803D02*
Y1542403D01*
X1968504*
Y1539803*
X1971504Y1537803D02*
Y1535203D01*
X1968504*
Y1537803*
X1968004Y1539803D02*
Y1542403D01*
X1965004*
Y1539803*
X1968004Y1537803D02*
Y1535203D01*
X1965004*
Y1537803*
X1968004Y1551803D02*
Y1554403D01*
X1965004*
Y1551803*
X1968004Y1549803D02*
Y1547203D01*
X1965004*
Y1549803*
X1939254Y1536803D02*
X1936654D01*
Y1533803*
X1939254*
X1941254Y1536803D02*
X1943854D01*
Y1533803*
X1941254*
X1921254Y1575053D02*
X1923854D01*
Y1578053*
X1921254*
X1919254Y1575053D02*
X1916654D01*
Y1578053*
X1919254*
X1936004Y1517303D02*
Y1519903D01*
X1933004*
Y1517303*
X1936004Y1515303D02*
Y1512703D01*
X1933004*
Y1515303*
X1913254Y1575053D02*
X1915854D01*
Y1578053*
X1913254*
X1911254Y1575053D02*
X1908654D01*
Y1578053*
X1911254*
X1932504Y1517303D02*
Y1519903D01*
X1929504*
Y1517303*
X1932504Y1515303D02*
Y1512703D01*
X1929504*
Y1515303*
X1919004D02*
Y1512703D01*
X1922004*
Y1515303*
X1919004Y1517303D02*
Y1519903D01*
X1922004*
Y1517303*
X1922504Y1515303D02*
Y1512703D01*
X1925504*
Y1515303*
X1922504Y1517303D02*
Y1519903D01*
X1925504*
Y1517303*
X2021254Y1526053D02*
X2018654D01*
Y1523053*
X2021254*
X2023254Y1526053D02*
X2025854D01*
Y1523053*
X2023254*
X2021254Y1521053D02*
X2018654D01*
Y1518053*
X2021254*
X2023254Y1521053D02*
X2025854D01*
Y1518053*
X2023254*
X2014004Y1595553D02*
X2016604D01*
Y1598553*
X2014004*
X2012004Y1595553D02*
X2009404D01*
Y1598553*
X2012004*
X1988004Y1521553D02*
Y1518953D01*
X1991004*
Y1521553*
X1988004Y1523553D02*
Y1526153D01*
X1991004*
Y1523553*
X2001504Y1562303D02*
X1998904D01*
Y1559303*
X2001504*
X2003504Y1562303D02*
X2006104D01*
Y1559303*
X2003504*
X2012004Y1621053D02*
X2009404D01*
Y1618053*
X2012004*
X2014004Y1621053D02*
X2016604D01*
Y1618053*
X2014004*
Y1621553D02*
X2016604D01*
Y1624553*
X2014004*
X2012004Y1621553D02*
X2009404D01*
Y1624553*
X2012004*
X2003504Y1555803D02*
X2006104D01*
Y1558803*
X2003504*
X2001504Y1555803D02*
X1998904D01*
Y1558803*
X2001504*
X1971754Y1551803D02*
Y1554403D01*
X1968754*
Y1551803*
X1971754Y1549803D02*
Y1547203D01*
X1968754*
Y1549803*
X2012004Y1628053D02*
X2009404D01*
Y1625053*
X2012004*
X2014004Y1628053D02*
X2016604D01*
Y1625053*
X2014004*
X2012004Y1616303D02*
X2009404D01*
Y1613303*
X2012004*
X2014004Y1616303D02*
X2016604D01*
Y1613303*
X2014004*
X2012004Y1612803D02*
X2009404D01*
Y1609803*
X2012004*
X2014004Y1612803D02*
X2016604D01*
Y1609803*
X2014004*
X1904528Y1571063D02*
X1922244D01*
Y1553346*
X1904528*
Y1571063*
X1918307Y1562205D02*
G03X1918307I-4921J0D01*
G01X2003937Y1651738D02*
X1933071D01*
X2003937Y1649809D02*
Y1676541D01*
X1933071*
Y1649809*
X2003937Y1579337D02*
Y1576187D01*
X1994094*
X1942913D02*
X1933071D01*
Y1579337*
X1913911Y1540640D02*
Y1543396D01*
X1916667*
X1933596Y1526467D02*
Y1523711D01*
X1930841*
X1913911Y1526467D02*
Y1523711D01*
X1916667*
X1930644Y1543396D02*
X1932612D01*
X1933596Y1542411*
Y1540443*
X1934870Y1544183D02*
G03X1934870I-880J0D01*
G01X1998254Y1517014D02*
X2012254D01*
Y1537092*
X1998254*
Y1517014*
X1996442Y1516600D02*
G03X1996442I-1054J0D01*
G01X2003285Y1517014D02*
X2007222D01*
Y1517309*
G03X2003285I-1968J-249*
G01Y1517014*
X2040516Y1531482D02*
Y1529119D01*
X2039138Y1530301D02*
X2042091D01*
X2044048Y1520293D02*
G03X2025942Y1520309I-9044J10010D01*
G01X2025949Y1520303D02*
X2031067D01*
X2038941D02*
X2044059D01*
X2030872Y1634616D02*
X2029872D01*
X2030418Y1633716*
X2030145*
X2029963Y1633603*
X2029872Y1633491*
X2029781Y1633153*
Y1632928*
X2029872Y1632591*
X2030054Y1632366*
X2030327Y1632253*
X2030599*
X2030872Y1632366*
X2030963Y1632478*
X2031054Y1632703*
X2028963Y1634616D02*
X2028236Y1632253D01*
X2027508Y1634616D02*
X2028236Y1632253D01*
X2026508Y1634616D02*
X2025508D01*
X2026054Y1633716*
X2025781*
X2025599Y1633603*
X2025508Y1633491*
X2025418Y1633153*
Y1632928*
X2025508Y1632591*
X2025690Y1632366*
X2025963Y1632253*
X2026236*
X2026508Y1632366*
X2026599Y1632478*
X2026690Y1632703*
X1916440Y1647303D02*
X1916531Y1647528D01*
X1916713Y1647753*
X1916895Y1647866*
X1917258*
X1917440Y1647753*
X1917622Y1647528*
X1917713Y1647303*
X1917804Y1646966*
Y1646403*
X1917713Y1646066*
X1917622Y1645841*
X1917440Y1645616*
X1917258Y1645503*
X1916895*
X1916713Y1645616*
X1916531Y1645841*
X1916440Y1646066*
Y1646403*
X1916895D02*
X1916440D01*
X1915622Y1647866D02*
Y1645503D01*
Y1647866D02*
X1914349Y1645503D01*
Y1647866D02*
Y1645503D01*
X1913531Y1647866D02*
Y1645503D01*
Y1647866D02*
X1912895D01*
X1912622Y1647753*
X1912440Y1647528*
X1912349Y1647303*
X1912258Y1646966*
Y1646403*
X1912349Y1646066*
X1912440Y1645841*
X1912622Y1645616*
X1912895Y1645503*
X1913531*
X1917168Y1638616D02*
Y1636253D01*
X1917804Y1638616D02*
X1916531D01*
X1915713D02*
X1914440Y1636253D01*
Y1638616D02*
X1915713Y1636253D01*
X1913622Y1638616D02*
Y1636253D01*
Y1638616D02*
X1912986D01*
X1912713Y1638503*
X1912531Y1638278*
X1912440Y1638053*
X1912349Y1637716*
Y1637153*
X1912440Y1636816*
X1912531Y1636591*
X1912713Y1636366*
X1912986Y1636253*
X1913622*
X1917804Y1622116D02*
Y1619753D01*
Y1622116D02*
X1916986D01*
X1916713Y1622003*
X1916622Y1621891*
X1916531Y1621666*
Y1621441*
X1916622Y1621216*
X1916713Y1621103*
X1916986Y1620991*
X1917804*
X1917168D02*
X1916531Y1619753D01*
X1915713Y1622116D02*
X1914440Y1619753D01*
Y1622116D02*
X1915713Y1619753D01*
X1913622Y1622116D02*
Y1619753D01*
Y1622116D02*
X1912986D01*
X1912713Y1622003*
X1912531Y1621778*
X1912440Y1621553*
X1912349Y1621216*
Y1620653*
X1912440Y1620316*
X1912531Y1620091*
X1912713Y1619866*
X1912986Y1619753*
X1913622*
X1917804Y1614366D02*
Y1612003D01*
Y1614366D02*
X1916622D01*
X1917804Y1613241D02*
X1917077D01*
X1917804Y1612003D02*
X1916622D01*
X1915804Y1614366D02*
Y1612003D01*
Y1614366D02*
X1914531Y1612003D01*
Y1614366D02*
Y1612003D01*
X1932304Y1574866D02*
Y1572503D01*
X1930940Y1574866D02*
X1931122Y1574753D01*
X1931304Y1574528*
X1931395Y1574303*
X1931486Y1573966*
Y1573403*
X1931395Y1573066*
X1931304Y1572841*
X1931122Y1572616*
X1930940Y1572503*
X1930577*
X1930395Y1572616*
X1930213Y1572841*
X1930122Y1573066*
X1930031Y1573403*
Y1573966*
X1930122Y1574303*
X1930213Y1574528*
X1930395Y1574753*
X1930577Y1574866*
X1930940*
X1928668D02*
X1928940Y1574753D01*
X1929122Y1574416*
X1929213Y1573853*
Y1573516*
X1929122Y1572953*
X1928940Y1572616*
X1928668Y1572503*
X1928486*
X1928213Y1572616*
X1928031Y1572953*
X1927940Y1573516*
Y1573853*
X1928031Y1574416*
X1928213Y1574753*
X1928486Y1574866*
X1928668*
X1960440Y1533803D02*
X1960531Y1534028D01*
X1960713Y1534253*
X1960895Y1534366*
X1961258*
X1961440Y1534253*
X1961622Y1534028*
X1961713Y1533803*
X1961804Y1533466*
Y1532903*
X1961713Y1532566*
X1961622Y1532341*
X1961440Y1532116*
X1961258Y1532003*
X1960895*
X1960713Y1532116*
X1960531Y1532341*
X1960440Y1532566*
Y1532903*
X1960895D02*
X1960440D01*
X1959622Y1534366D02*
Y1532003D01*
Y1534366D02*
X1958349Y1532003D01*
Y1534366D02*
Y1532003D01*
X1957531Y1534366D02*
Y1532003D01*
Y1534366D02*
X1956895D01*
X1956622Y1534253*
X1956440Y1534028*
X1956349Y1533803*
X1956258Y1533466*
Y1532903*
X1956349Y1532566*
X1956440Y1532341*
X1956622Y1532116*
X1956895Y1532003*
X1957531*
X1967304Y1534366D02*
Y1532003D01*
Y1534366D02*
X1966668D01*
X1966395Y1534253*
X1966213Y1534028*
X1966122Y1533803*
X1966031Y1533466*
Y1532903*
X1966122Y1532566*
X1966213Y1532341*
X1966395Y1532116*
X1966668Y1532003*
X1967304*
X1964395Y1534028D02*
Y1532003D01*
X1965213Y1533016D02*
X1963577D01*
X1972554Y1534366D02*
Y1532003D01*
Y1534366D02*
X1971918D01*
X1971645Y1534253*
X1971463Y1534028*
X1971372Y1533803*
X1971281Y1533466*
Y1532903*
X1971372Y1532566*
X1971463Y1532341*
X1971645Y1532116*
X1971918Y1532003*
X1972554*
X1970463Y1533016D02*
X1968827D01*
X1979554Y1534366D02*
X1978827Y1532003D01*
X1978099Y1534366D02*
X1978827Y1532003D01*
X1977281Y1534366D02*
Y1532003D01*
Y1534366D02*
X1976463D01*
X1976190Y1534253*
X1976099Y1534141*
X1976008Y1533916*
Y1533691*
X1976099Y1533466*
X1976190Y1533353*
X1976463Y1533241*
X1977281D02*
X1976463D01*
X1976190Y1533128*
X1976099Y1533016*
X1976008Y1532791*
Y1532453*
X1976099Y1532228*
X1976190Y1532116*
X1976463Y1532003*
X1977281*
X1975190Y1534366D02*
Y1532678D01*
X1975099Y1532341*
X1974918Y1532116*
X1974645Y1532003*
X1974463*
X1974190Y1532116*
X1974008Y1532341*
X1973918Y1532678*
Y1534366*
X1970190Y1502053D02*
X1970281Y1502278D01*
X1970463Y1502503*
X1970645Y1502616*
X1971008*
X1971190Y1502503*
X1971372Y1502278*
X1971463Y1502053*
X1971554Y1501716*
Y1501153*
X1971463Y1500816*
X1971372Y1500591*
X1971190Y1500366*
X1971008Y1500253*
X1970645*
X1970463Y1500366*
X1970281Y1500591*
X1970190Y1500816*
Y1501153*
X1970645D02*
X1970190D01*
X1969372Y1502616D02*
Y1500253D01*
Y1502616D02*
X1968099Y1500253D01*
Y1502616D02*
Y1500253D01*
X1967281Y1502616D02*
Y1500253D01*
Y1502616D02*
X1966645D01*
X1966372Y1502503*
X1966190Y1502278*
X1966099Y1502053*
X1966008Y1501716*
Y1501153*
X1966099Y1500816*
X1966190Y1500591*
X1966372Y1500366*
X1966645Y1500253*
X1967281*
X1906909Y1549238D02*
X1906239Y1549648D01*
X1905739Y1549898*
X1905189Y1550048*
X1904599Y1550188*
X1903829Y1550298*
X1903249Y1550348*
X1902489Y1550328*
X1901759Y1550278*
X1901019Y1550158*
X1900399Y1550018*
X1899749Y1549808*
X1899179Y1549538*
X1899059Y1549458*
G54D284*
X1899579Y1547678D02*
X1898919D01*
G03Y1546968I155J-355*
G01X1899649*
X1905669Y1539108D02*
Y1538428D01*
X1904899*
Y1539138*
X1904049Y1550388D02*
X1904019Y1550688D01*
X1903879Y1550808*
X1903069Y1550848*
X1902489*
X1902219Y1550728*
X1902109Y1550628*
Y1550328*
X1898699Y1549908D02*
X1898809Y1550118D01*
X1898949Y1550198*
X1899159Y1550188*
X1899259Y1550098*
X1899339Y1550008*
X1899349Y1549898*
Y1549688*
G54D285*
X1901359Y1539508D02*
G03X1901359I-260J0D01*
G74*
G01X0Y0D02*
M02*
