%
T1C.00984F0S0
X191025Y15008
X191125Y15088
X19085Y151155
X189375Y15118
X19085Y15153
X190725Y151905
X190875Y15228
X189375Y15253
X19085Y152655
X190325Y15338
X189375Y15388
X190925Y153905
X1914Y154955
X19035Y155205
X191525Y155205
X189375Y15558
X1908Y15568
X19135Y15618
X190525Y15638
X191525Y15693
X19165Y157155
X189375Y15728
X190675Y157655
X189975Y15788
X191375Y15853
X189375Y158605
X19055Y15903
X191375Y15933
X19Y159405
X191675Y159855
X189375Y16003
X190575Y16038
X189975Y16083
X191225Y16103
X19065Y16138
X189375Y161705
X19065Y16203
X190525Y162505
X18975Y162905
X190875Y16348
X1915Y163755
X189375Y163905
X1908Y16433
X1915Y164355
X1905Y16493
X1917Y16493
X19295Y164755
X194075Y164755
X194075Y164255
X1924Y16403
X192775Y16403
X19425Y16403
X19265Y163805
X191975Y16248
X192675Y161305
X192275Y16053
X1926Y159855
X1921Y159855
X1929Y159855
X1929Y157855
X192125Y157205
X1939Y156905
X193775Y156405
X193675Y15528
X192975Y155005
X19255Y15388
X191875Y153805
X192725Y15368
X1929Y15348
X192225Y153455
X191875Y153455
X191875Y153105
X192325Y153105
X192325Y152805
X191875Y152805
X1928Y152805
X193625Y152405
X1935Y15208
X1938Y15173
X1938Y15118
X19305Y15118
X1924Y151005
X19265Y150905
X193225Y15083
X1932Y150105
X1953Y15003
X195075Y15068
X19545Y15113
X194625Y15143
X1948Y15173
X19545Y15188
X19465Y152105
X194375Y15213
X19465Y15238
X1948Y15273
X1948Y15358
X196025Y15448
X1947Y15453
X195525Y155305
X196575Y15563
X1962Y15613
X195075Y156205
X1967Y157005
X1961Y15723
X195475Y159205
X195475Y159455
X1947Y159655
X195475Y15968
X195475Y159905
X195425Y16013
X19665Y16013
X1952Y16103
X194675Y16153
X19525Y16198
X19465Y16218
X195275Y16258
X194975Y162805
X19475Y162905
X195875Y162905
X195675Y16308
X19465Y16348
X1953Y16348
X19615Y16348
X194425Y163605
X1945Y164255
X195625Y16428
X19665Y164305
X196775Y16488
X19535Y16488
X198225Y16488
X1979Y16423
X198225Y163955
X199225Y163305
X197125Y162905
X198375Y16288
X1984Y16223
X1985Y161155
X1976Y16053
X1971Y159905
X1971Y15968
X19935Y15963
X1971Y159455
X197025Y15923
X1983Y159155
X19925Y15838
X199025Y15838
X198025Y15723
X197775Y15703
X196975Y157005
X196975Y15643
X1982Y15613
X1989Y15583
X19735Y155505
X198825Y155055
X19805Y15503
X1973Y154155
X1986Y154055
X198375Y154055
X197125Y153305
X1969Y153305
X19815Y15198
X198875Y15178
X19885Y15128
X198275Y15113
X199325Y15003
X1974Y15003
X201375Y150105
X199375Y150905
X2012Y150905
X19955Y15158
X201775Y151605
X200575Y15168
X200525Y152255
X200875Y152255
X200175Y152255
X200525Y152705
X20185Y152705
X200875Y152705
X200175Y152705
X20185Y15318
X200175Y153205
X200875Y153205
X200525Y153205
X2008Y154805
X2001Y15543
X2007Y15568
X201825Y156805
X20015Y156905
X1994Y157905
X1994Y158155
X201575Y158505
X201175Y15938
X201425Y160705
X201225Y160855
X1994Y162055
X20175Y16263
X201775Y16343
X201775Y16368
X199425Y16388
X2007Y164855
X2018Y164855
X1996Y16488
X200975Y16493
X202975Y164855
X202525Y16418
X204325Y16378
X203225Y163705
X204125Y162905
X20345Y16288
X204325Y162105
X20225Y161705
X203525Y161705
X202575Y16143
X20355Y160855
X204325Y16083
X2027Y159555
X204325Y15933
X202275Y159205
X201925Y15838
X20275Y15803
X2025Y158005
X204325Y158005
X203475Y15723
X204325Y15683
X20275Y156805
X20365Y156755
X2025Y15668
X20275Y156555
X20365Y156355
X20275Y156305
X204325Y155505
X204325Y15388
X204325Y152455
X20215Y151605
X204325Y15113
X2027Y150955
X202225Y150555
X2031Y15013
T2C.01F095S3
X203Y15963
X2035Y15963
X20325Y15963
X204Y162005
X2022Y16203
X2024Y16218
X204Y16228
X2022Y16233
X201975Y16413
T3C.01969F095S3
X190283Y16123G85X189968Y16123
T4C.02362F197S55
X190125Y162215
T5C.03543F197S55
X2035Y15203
X2035Y15303
X2035Y15403
X2032Y155787
X2032Y156574
M30
