*
*
G04 PADS 9.5 Build Number: 522968 generated Gerber (RS-274-X) file*
G04 PC Version=2.1*
*
%IN "PCB_ESP-Moonlight_V2.0_"*%
*
%MOIN*%
*
%FSLAX35Y35*%
*
*
*
*
G04 PC Standard Apertures*
*
*
G04 Thermal Relief Aperture macro.*
%AMTER*
1,1,$1,0,0*
1,0,$1-$2,0,0*
21,0,$3,$4,0,0,45*
21,0,$3,$4,0,0,135*
%
*
*
G04 Annular Aperture macro.*
%AMANN*
1,1,$1,0,0*
1,0,$2,0,0*
%
*
*
G04 Odd Aperture macro.*
%AMODD*
1,1,$1,0,0*
1,0,$1-0.005,0,0*
%
*
*
G04 PC Custom Aperture Macros*
*
*
*
*
*
*
G04 PC Aperture Table*
*
%ADD010C,0.001*%
%ADD044C,0.01*%
%ADD109C,0.005*%
%ADD114C,0.003*%
%ADD183C,0.00591*%
%ADD231C,0.004*%
*
*
*
*
G04 PC Circuitry*
G04 Layer Name PCB_ESP-Moonlight_V2.0_ - circuitry*
%LPD*%
*
G54D10*
G01X1977857Y1657532D02*
X1977814Y1657833D01*
X1977691Y1658080*
X1977488Y1658202*
X1977488D02*
X1977194Y1658244D01*
X1976981Y1658201*
X1976813Y1658159*
X1976651Y1658037*
X1976522Y1657822*
X1976434Y1657825*
X1976348Y1657997*
X1976227Y1658118*
X1976018Y1658201*
X1975810Y1658243*
X1975646Y1658202*
X1975435Y1658118*
X1975175Y1657857*
X1975089Y1657892*
Y1658200*
X1974788*
Y1655978*
X1975089*
Y1657401*
X1975091Y1657413*
X1975136Y1657592*
X1975146Y1657612*
X1975369Y1657880*
X1975394Y1657896*
X1975706Y1657985*
X1975732Y1657986*
X1975911Y1657941*
X1975926Y1657934*
X1976060Y1657845*
X1976077Y1657826*
X1976166Y1657647*
X1976172Y1657625*
Y1655978*
X1976473*
Y1657267*
X1976474Y1657275*
X1976519Y1657587*
X1976528Y1657610*
X1976662Y1657789*
X1976672Y1657799*
X1976851Y1657932*
X1976871Y1657941*
X1977094Y1657986*
X1977114*
X1977337Y1657941*
X1977367Y1657922*
X1977501Y1657744*
X1977508Y1657730*
X1977553Y1657596*
X1977556Y1657580*
Y1655978*
X1977857*
Y1657532*
X1974107D02*
X1974064Y1657833D01*
X1973941Y1658080*
X1973738Y1658202*
X1973738D02*
X1973444Y1658244D01*
X1973231Y1658201*
X1973063Y1658159*
X1972901Y1658037*
X1972772Y1657822*
X1972684Y1657825*
X1972598Y1657997*
X1972477Y1658118*
X1972268Y1658201*
X1972060Y1658243*
X1971896Y1658202*
X1971685Y1658118*
X1971425Y1657857*
X1971339Y1657892*
Y1658200*
X1971038*
Y1655978*
X1971339*
Y1657401*
X1971341Y1657413*
X1971386Y1657592*
X1971396Y1657612*
X1971619Y1657880*
X1971644Y1657896*
X1971956Y1657985*
X1971982Y1657986*
X1972161Y1657941*
X1972176Y1657934*
X1972310Y1657845*
X1972327Y1657826*
X1972416Y1657647*
X1972422Y1657625*
Y1655978*
X1972723*
Y1657267*
X1972724Y1657275*
X1972769Y1657587*
X1972778Y1657610*
X1972912Y1657789*
X1972922Y1657799*
X1973101Y1657932*
X1973121Y1657941*
X1973344Y1657986*
X1973364*
X1973587Y1657941*
X1973617Y1657922*
X1973751Y1657744*
X1973758Y1657730*
X1973803Y1657596*
X1973806Y1657580*
Y1655978*
X1974107*
Y1657532*
X1970447Y1657930D02*
X1970360Y1658234D01*
X1970184Y1658717*
X1970059Y1658884*
X1969895Y1659006*
X1969468Y1659092*
X1969172Y1659049*
X1968922Y1658924*
X1968754Y1658715*
X1968625Y1658413*
X1968537Y1658019*
X1968493Y1657489*
Y1657095*
X1968581Y1656745*
X1968668Y1656439*
X1968793Y1656231*
X1969089Y1656019*
X1969472Y1655934*
X1969767Y1655977*
X1969767D02*
X1970018Y1656102D01*
X1970185Y1656311*
X1970315Y1656613*
X1970402Y1657007*
X1970447Y1657493*
Y1657930*
X1970145Y1657848D02*
Y1657134D01*
X1970144Y1657125*
X1970100Y1656857*
X1970099Y1656856*
X1970055Y1656633*
X1970050Y1656620*
X1969961Y1656442*
X1969948Y1656425*
X1969724Y1656246*
X1969703Y1656236*
X1969480Y1656192*
X1969460*
X1969237Y1656236*
X1969215Y1656246*
X1968992Y1656425*
X1968979Y1656442*
X1968889Y1656620*
X1968885Y1656633*
X1968840Y1656856*
Y1656857*
X1968796Y1657125*
X1968795Y1657134*
Y1657848*
Y1657855*
X1968840Y1658167*
Y1658170*
X1968885Y1658393*
X1968889Y1658406*
X1968979Y1658584*
X1968992Y1658601*
X1969215Y1658780*
X1969237Y1658790*
X1969460Y1658834*
X1969478Y1658835*
X1969746Y1658790*
X1969777Y1658772*
X1969955Y1658549*
X1969958Y1658545*
X1970047Y1658411*
X1970055Y1658393*
X1970099Y1658170*
X1970100Y1658167*
X1970144Y1657855*
X1970145Y1657848*
X1967947Y1657930D02*
X1967860Y1658234D01*
X1967684Y1658717*
X1967559Y1658884*
X1967395Y1659006*
X1966968Y1659092*
X1966672Y1659049*
X1966422Y1658924*
X1966254Y1658715*
X1966125Y1658413*
X1966037Y1658019*
X1965993Y1657489*
Y1657095*
X1966081Y1656745*
X1966168Y1656439*
X1966293Y1656231*
X1966589Y1656019*
X1966972Y1655934*
X1967267Y1655977*
X1967267D02*
X1967518Y1656102D01*
X1967685Y1656311*
X1967815Y1656613*
X1967902Y1657007*
X1967947Y1657493*
Y1657930*
X1967645Y1657848D02*
Y1657134D01*
X1967644Y1657125*
X1967600Y1656857*
X1967599Y1656856*
X1967555Y1656633*
X1967550Y1656620*
X1967461Y1656442*
X1967448Y1656425*
X1967224Y1656246*
X1967203Y1656236*
X1966980Y1656192*
X1966960*
X1966737Y1656236*
X1966715Y1656246*
X1966492Y1656425*
X1966479Y1656442*
X1966389Y1656620*
X1966385Y1656633*
X1966340Y1656856*
Y1656857*
X1966296Y1657125*
X1966295Y1657134*
Y1657848*
Y1657855*
X1966340Y1658167*
Y1658170*
X1966385Y1658393*
X1966389Y1658406*
X1966479Y1658584*
X1966492Y1658601*
X1966715Y1658780*
X1966737Y1658790*
X1966960Y1658834*
X1966978Y1658835*
X1967246Y1658790*
X1967277Y1658772*
X1967455Y1658549*
X1967458Y1658545*
X1967547Y1658411*
X1967555Y1658393*
X1967599Y1658170*
X1967600Y1658167*
X1967644Y1657855*
X1967645Y1657848*
X1965223Y1656280D02*
X1964922D01*
Y1655978*
X1965223*
Y1656280*
X1964196Y1657580D02*
X1964152Y1658107D01*
X1964152D02*
X1964066Y1658454D01*
X1963894Y1658755*
X1963726Y1658923*
X1963473Y1659049*
X1963177Y1659092*
X1962794Y1659007*
X1962500Y1658796*
X1962330Y1658456*
X1962244Y1658070*
X1962330Y1657641*
X1962499Y1657303*
X1962793Y1657135*
X1963088Y1657051*
X1963295Y1657092*
X1963506Y1657177*
X1963812Y1657439*
X1963895Y1657401*
Y1657357*
Y1657352*
X1963850Y1656861*
X1963845Y1656843*
X1963758Y1656670*
X1963715Y1656496*
X1963698Y1656469*
X1963474Y1656291*
X1963457Y1656282*
X1963144Y1656193*
X1963118Y1656192*
X1962940Y1656237*
X1962924Y1656244*
X1962790Y1656333*
X1962776Y1656347*
X1962687Y1656481*
X1962681Y1656493*
X1962605Y1656722*
X1962300Y1656688*
X1962373Y1656395*
X1962542Y1656143*
X1962791Y1655976*
X1963130Y1655934*
X1963428Y1655977*
X1963428D02*
X1963681Y1656103D01*
X1963894Y1656316*
X1964065Y1656616*
X1964152Y1657051*
X1964196Y1657580*
X1963895Y1658071D02*
X1963894Y1658064D01*
X1963850Y1657751*
X1963843Y1657733*
X1963709Y1657510*
X1963696Y1657495*
X1963518Y1657361*
X1963496Y1657352*
X1963228Y1657307*
X1963212*
X1962944Y1657352*
X1962922Y1657361*
X1962743Y1657495*
X1962731Y1657510*
X1962597Y1657733*
X1962590Y1657750*
X1962546Y1658018*
X1962545Y1658026*
Y1658033*
X1962590Y1658346*
X1962597Y1658365*
X1962731Y1658588*
X1962742Y1658601*
X1962965Y1658780*
X1962987Y1658790*
X1963210Y1658834*
X1963228Y1658835*
X1963496Y1658790*
X1963518Y1658781*
X1963696Y1658647*
X1963711Y1658629*
X1963845Y1658361*
X1963850Y1658347*
X1963894Y1658079*
X1963895Y1658071*
X1961696Y1656868D02*
X1961654Y1657161D01*
X1961528Y1657370*
X1961362Y1657536*
X1961106Y1657622*
X1961092Y1657709*
X1961435Y1657966*
X1961517Y1658295*
X1961433Y1658712*
X1961097Y1658965*
X1960884Y1659050*
X1960673Y1659092*
X1960336Y1659050*
X1960086Y1658883*
X1959916Y1658628*
X1959807Y1658337*
X1960107Y1658303*
X1960182Y1658491*
X1960184Y1658495*
X1960273Y1658674*
X1960296Y1658696*
X1960474Y1658785*
X1960485Y1658789*
X1960663Y1658834*
X1960685*
X1960908Y1658790*
X1960926Y1658782*
X1961060Y1658693*
X1961077Y1658674*
X1961166Y1658495*
X1961170Y1658485*
X1961215Y1658306*
Y1658284*
X1961171Y1658061*
X1961157Y1658036*
X1961023Y1657902*
X1961018Y1657897*
X1960839Y1657763*
X1960809Y1657753*
X1960541*
X1960510Y1657506*
X1960712Y1657540*
X1960728*
X1960996Y1657495*
X1961018Y1657486*
X1961196Y1657352*
X1961206Y1657342*
X1961340Y1657164*
X1961350Y1657142*
X1961394Y1656874*
X1961395Y1656866*
X1961394Y1656856*
X1961349Y1656633*
X1961343Y1656617*
X1961209Y1656393*
X1961196Y1656379*
X1961018Y1656245*
X1960996Y1656236*
X1960728Y1656191*
X1960710Y1656192*
X1960487Y1656236*
X1960474Y1656241*
X1960296Y1656330*
X1960278Y1656345*
X1960144Y1656523*
X1960137Y1656537*
X1960060Y1656767*
X1959755Y1656733*
X1959829Y1656441*
X1960040Y1656145*
X1960334Y1655977*
X1960673Y1655934*
X1961104Y1656020*
X1961398Y1656189*
X1961611Y1656528*
X1961696Y1656868*
X1886607Y1574532D02*
X1886564Y1574833D01*
X1886441Y1575080*
X1886238Y1575202*
X1886238D02*
X1885944Y1575244D01*
X1885731Y1575201*
X1885563Y1575159*
X1885401Y1575037*
X1885272Y1574822*
X1885184Y1574825*
X1885098Y1574997*
X1884977Y1575118*
X1884768Y1575201*
X1884560Y1575243*
X1884396Y1575202*
X1884185Y1575118*
X1883925Y1574857*
X1883839Y1574892*
Y1575200*
X1883538*
Y1572978*
X1883839*
Y1574401*
X1883841Y1574413*
X1883886Y1574592*
X1883896Y1574612*
X1884119Y1574880*
X1884144Y1574896*
X1884456Y1574985*
X1884482Y1574986*
X1884661Y1574941*
X1884676Y1574934*
X1884810Y1574845*
X1884827Y1574826*
X1884916Y1574647*
X1884922Y1574625*
Y1572978*
X1885223*
Y1574267*
X1885224Y1574275*
X1885269Y1574587*
X1885278Y1574610*
X1885412Y1574789*
X1885422Y1574799*
X1885601Y1574932*
X1885621Y1574941*
X1885844Y1574986*
X1885864*
X1886087Y1574941*
X1886117Y1574922*
X1886251Y1574744*
X1886258Y1574730*
X1886303Y1574596*
X1886306Y1574580*
Y1572978*
X1886607*
Y1574532*
X1882857D02*
X1882814Y1574833D01*
X1882691Y1575080*
X1882488Y1575202*
X1882488D02*
X1882194Y1575244D01*
X1881981Y1575201*
X1881813Y1575159*
X1881651Y1575037*
X1881522Y1574822*
X1881434Y1574825*
X1881348Y1574997*
X1881227Y1575118*
X1881018Y1575201*
X1880810Y1575243*
X1880646Y1575202*
X1880435Y1575118*
X1880175Y1574857*
X1880089Y1574892*
Y1575200*
X1879788*
Y1572978*
X1880089*
Y1574401*
X1880091Y1574413*
X1880136Y1574592*
X1880146Y1574612*
X1880369Y1574880*
X1880394Y1574896*
X1880706Y1574985*
X1880732Y1574986*
X1880911Y1574941*
X1880926Y1574934*
X1881060Y1574845*
X1881077Y1574826*
X1881166Y1574647*
X1881172Y1574625*
Y1572978*
X1881473*
Y1574267*
X1881474Y1574275*
X1881519Y1574587*
X1881528Y1574610*
X1881662Y1574789*
X1881672Y1574799*
X1881851Y1574932*
X1881871Y1574941*
X1882094Y1574986*
X1882114*
X1882337Y1574941*
X1882367Y1574922*
X1882501Y1574744*
X1882508Y1574730*
X1882553Y1574596*
X1882556Y1574580*
Y1572978*
X1882857*
Y1574532*
X1879197Y1574930D02*
X1879110Y1575234D01*
X1878934Y1575717*
X1878809Y1575884*
X1878645Y1576006*
X1878218Y1576092*
X1877922Y1576049*
X1877672Y1575924*
X1877504Y1575715*
X1877375Y1575413*
X1877287Y1575019*
X1877243Y1574489*
Y1574095*
X1877331Y1573745*
X1877418Y1573439*
X1877543Y1573231*
X1877839Y1573019*
X1878222Y1572934*
X1878517Y1572977*
X1878517D02*
X1878768Y1573102D01*
X1878935Y1573311*
X1879065Y1573613*
X1879152Y1574007*
X1879197Y1574493*
Y1574930*
X1878895Y1574848D02*
Y1574134D01*
X1878894Y1574125*
X1878850Y1573857*
X1878849Y1573856*
X1878805Y1573633*
X1878800Y1573620*
X1878711Y1573442*
X1878698Y1573425*
X1878474Y1573246*
X1878453Y1573236*
X1878230Y1573192*
X1878210*
X1877987Y1573236*
X1877965Y1573246*
X1877742Y1573425*
X1877729Y1573442*
X1877639Y1573620*
X1877635Y1573633*
X1877590Y1573856*
Y1573857*
X1877546Y1574125*
X1877545Y1574134*
Y1574848*
Y1574855*
X1877590Y1575167*
Y1575170*
X1877635Y1575393*
X1877639Y1575406*
X1877729Y1575584*
X1877742Y1575601*
X1877965Y1575780*
X1877987Y1575790*
X1878210Y1575834*
X1878228Y1575835*
X1878496Y1575790*
X1878527Y1575772*
X1878705Y1575549*
X1878708Y1575545*
X1878797Y1575411*
X1878805Y1575393*
X1878849Y1575170*
X1878850Y1575167*
X1878894Y1574855*
X1878895Y1574848*
X1876697Y1574930D02*
X1876610Y1575234D01*
X1876434Y1575717*
X1876309Y1575884*
X1876145Y1576006*
X1875718Y1576092*
X1875422Y1576049*
X1875172Y1575924*
X1875004Y1575715*
X1874875Y1575413*
X1874787Y1575019*
X1874743Y1574489*
Y1574095*
X1874831Y1573745*
X1874918Y1573439*
X1875043Y1573231*
X1875339Y1573019*
X1875722Y1572934*
X1876017Y1572977*
X1876017D02*
X1876268Y1573102D01*
X1876435Y1573311*
X1876565Y1573613*
X1876652Y1574007*
X1876697Y1574493*
Y1574930*
X1876395Y1574848D02*
Y1574134D01*
X1876394Y1574125*
X1876350Y1573857*
X1876349Y1573856*
X1876305Y1573633*
X1876300Y1573620*
X1876211Y1573442*
X1876198Y1573425*
X1875974Y1573246*
X1875953Y1573236*
X1875730Y1573192*
X1875710*
X1875487Y1573236*
X1875465Y1573246*
X1875242Y1573425*
X1875229Y1573442*
X1875139Y1573620*
X1875135Y1573633*
X1875090Y1573856*
Y1573857*
X1875046Y1574125*
X1875045Y1574134*
Y1574848*
Y1574855*
X1875090Y1575167*
Y1575170*
X1875135Y1575393*
X1875139Y1575406*
X1875229Y1575584*
X1875242Y1575601*
X1875465Y1575780*
X1875487Y1575790*
X1875710Y1575834*
X1875728Y1575835*
X1875996Y1575790*
X1876027Y1575772*
X1876205Y1575549*
X1876208Y1575545*
X1876297Y1575411*
X1876305Y1575393*
X1876349Y1575170*
X1876350Y1575167*
X1876394Y1574855*
X1876395Y1574848*
X1873973Y1573280D02*
X1873672D01*
Y1572978*
X1873973*
Y1573280*
X1872946Y1574580D02*
X1872902Y1575107D01*
X1872902D02*
X1872816Y1575454D01*
X1872644Y1575755*
X1872476Y1575923*
X1872223Y1576049*
X1871927Y1576092*
X1871544Y1576007*
X1871250Y1575796*
X1871080Y1575456*
X1870994Y1575070*
X1871080Y1574641*
X1871249Y1574303*
X1871543Y1574135*
X1871838Y1574051*
X1872045Y1574092*
X1872256Y1574177*
X1872562Y1574439*
X1872645Y1574401*
Y1574357*
Y1574352*
X1872600Y1573861*
X1872595Y1573843*
X1872508Y1573670*
X1872465Y1573496*
X1872448Y1573469*
X1872224Y1573291*
X1872207Y1573282*
X1871894Y1573193*
X1871868Y1573192*
X1871690Y1573237*
X1871674Y1573244*
X1871540Y1573333*
X1871526Y1573347*
X1871437Y1573481*
X1871431Y1573493*
X1871355Y1573722*
X1871050Y1573688*
X1871123Y1573395*
X1871292Y1573143*
X1871541Y1572976*
X1871880Y1572934*
X1872178Y1572977*
X1872178D02*
X1872431Y1573103D01*
X1872644Y1573316*
X1872815Y1573616*
X1872902Y1574051*
X1872946Y1574580*
X1872645Y1575071D02*
X1872644Y1575064D01*
X1872600Y1574751*
X1872593Y1574733*
X1872459Y1574510*
X1872446Y1574495*
X1872268Y1574361*
X1872246Y1574352*
X1871978Y1574307*
X1871962*
X1871694Y1574352*
X1871672Y1574361*
X1871493Y1574495*
X1871481Y1574510*
X1871347Y1574733*
X1871340Y1574750*
X1871296Y1575018*
X1871295Y1575026*
Y1575033*
X1871340Y1575346*
X1871347Y1575365*
X1871481Y1575588*
X1871492Y1575601*
X1871715Y1575780*
X1871737Y1575790*
X1871960Y1575834*
X1871978Y1575835*
X1872246Y1575790*
X1872268Y1575781*
X1872446Y1575647*
X1872461Y1575629*
X1872595Y1575361*
X1872600Y1575347*
X1872644Y1575079*
X1872645Y1575071*
X1870446Y1573868D02*
X1870404Y1574161D01*
X1870278Y1574370*
X1870112Y1574536*
X1869856Y1574622*
X1869842Y1574709*
X1870185Y1574966*
X1870267Y1575295*
X1870183Y1575712*
X1869847Y1575965*
X1869634Y1576050*
X1869423Y1576092*
X1869086Y1576050*
X1868836Y1575883*
X1868666Y1575628*
X1868557Y1575337*
X1868857Y1575303*
X1868932Y1575491*
X1868934Y1575495*
X1869023Y1575674*
X1869046Y1575696*
X1869224Y1575785*
X1869235Y1575789*
X1869413Y1575834*
X1869435*
X1869658Y1575790*
X1869676Y1575782*
X1869810Y1575693*
X1869827Y1575674*
X1869916Y1575495*
X1869920Y1575485*
X1869965Y1575306*
Y1575284*
X1869921Y1575061*
X1869907Y1575036*
X1869773Y1574902*
X1869768Y1574897*
X1869589Y1574763*
X1869559Y1574753*
X1869291*
X1869260Y1574506*
X1869462Y1574540*
X1869478*
X1869746Y1574495*
X1869768Y1574486*
X1869946Y1574352*
X1869956Y1574342*
X1870090Y1574164*
X1870100Y1574142*
X1870144Y1573874*
X1870145Y1573866*
X1870144Y1573856*
X1870099Y1573633*
X1870093Y1573617*
X1869959Y1573393*
X1869946Y1573379*
X1869768Y1573245*
X1869746Y1573236*
X1869478Y1573191*
X1869460Y1573192*
X1869237Y1573236*
X1869224Y1573241*
X1869046Y1573330*
X1869028Y1573345*
X1868894Y1573523*
X1868887Y1573537*
X1868810Y1573767*
X1868505Y1573733*
X1868579Y1573441*
X1868790Y1573145*
X1869084Y1572977*
X1869423Y1572934*
X1869854Y1573020*
X1870148Y1573189*
X1870361Y1573528*
X1870446Y1573868*
X1868600Y1573411D02*
Y1573743D01*
Y1575332D02*
Y1575451D01*
X1868700Y1573271D02*
Y1573755D01*
Y1575321D02*
Y1575679D01*
X1868800Y1573139D02*
Y1573766D01*
Y1575310D02*
Y1575829D01*
X1868900Y1573082D02*
Y1573515D01*
Y1575410D02*
Y1575926D01*
X1869000Y1573025D02*
Y1573382D01*
Y1575627D02*
Y1575992D01*
X1869100Y1572975D02*
Y1573303D01*
Y1575723D02*
Y1576051D01*
X1869200Y1572962D02*
Y1573253D01*
Y1575773D02*
Y1576064D01*
X1869300Y1572950D02*
Y1573224D01*
Y1574513D02*
Y1574753D01*
Y1575806D02*
Y1576076D01*
X1869400Y1572937D02*
Y1573204D01*
Y1574530D02*
Y1574753D01*
Y1575831D02*
Y1576089D01*
X1869500Y1572949D02*
Y1573195D01*
Y1574536D02*
Y1574753D01*
Y1575821D02*
Y1576076D01*
X1869600Y1572969D02*
Y1573212D01*
Y1574520D02*
Y1574771D01*
Y1575801D02*
Y1576056D01*
X1869700Y1572989D02*
Y1573228D01*
Y1574503D02*
Y1574846D01*
Y1575766D02*
Y1576023D01*
X1869800Y1573009D02*
Y1573270D01*
Y1574462D02*
Y1574929D01*
Y1575700D02*
Y1575983D01*
X1869900Y1573047D02*
Y1573345D01*
Y1574387D02*
Y1574607D01*
Y1574753D02*
Y1575029D01*
Y1575528D02*
Y1575925D01*
X1870000Y1573104D02*
Y1573462D01*
Y1574284D02*
Y1574574D01*
Y1574828D02*
Y1575850D01*
X1870100Y1573161D02*
Y1573636D01*
Y1574139D02*
Y1574540D01*
Y1574903D02*
Y1575775D01*
X1870200Y1573271D02*
Y1574449D01*
Y1575028D02*
Y1575630D01*
X1870300Y1573431D02*
Y1574334D01*
X1870400Y1573685D02*
Y1574168D01*
X1871000Y1575041D02*
Y1575097D01*
X1871100Y1573489D02*
Y1573694D01*
Y1574601D02*
Y1575496D01*
X1871200Y1573280D02*
Y1573705D01*
Y1574401D02*
Y1575696D01*
X1871300Y1573137D02*
Y1573716D01*
Y1574274D02*
Y1574991D01*
Y1575066D02*
Y1575832D01*
X1871400Y1573071D02*
Y1573587D01*
Y1574217D02*
Y1574644D01*
Y1575454D02*
Y1575904D01*
X1871500Y1573004D02*
Y1573387D01*
Y1574160D02*
Y1574490D01*
Y1575607D02*
Y1575975D01*
X1871600Y1572969D02*
Y1573293D01*
Y1574119D02*
Y1574415D01*
Y1575687D02*
Y1576019D01*
X1871700Y1572956D02*
Y1573234D01*
Y1574090D02*
Y1574351D01*
Y1575767D02*
Y1576041D01*
X1871800Y1572944D02*
Y1573209D01*
Y1574062D02*
Y1574334D01*
Y1575802D02*
Y1576063D01*
X1871900Y1572937D02*
Y1573194D01*
Y1574063D02*
Y1574318D01*
Y1575822D02*
Y1576086D01*
X1872000Y1572951D02*
Y1573223D01*
Y1574083D02*
Y1574311D01*
Y1575831D02*
Y1576081D01*
X1872100Y1572965D02*
Y1573251D01*
Y1574114D02*
Y1574328D01*
Y1575814D02*
Y1576067D01*
X1872200Y1572988D02*
Y1573280D01*
Y1574154D02*
Y1574344D01*
Y1575798D02*
Y1576053D01*
X1872300Y1573038D02*
Y1573351D01*
Y1574214D02*
Y1574386D01*
Y1575756D02*
Y1576011D01*
X1872400Y1573088D02*
Y1573431D01*
Y1574300D02*
Y1574461D01*
Y1575681D02*
Y1575961D01*
X1872500Y1573172D02*
Y1573637D01*
Y1574386D02*
Y1574578D01*
Y1575551D02*
Y1575899D01*
X1872600Y1573272D02*
Y1573861D01*
Y1574451D02*
Y1574754D01*
Y1575344D02*
Y1575799D01*
X1872700Y1573414D02*
Y1575657D01*
X1872800Y1573589D02*
Y1575482D01*
X1872900Y1574039D02*
Y1575117D01*
X1873700Y1572978D02*
Y1573280D01*
X1873800Y1572978D02*
Y1573280D01*
X1873900Y1572978D02*
Y1573280D01*
X1874800Y1573867D02*
Y1575076D01*
X1874900Y1573502D02*
Y1575472D01*
X1875000Y1573302D02*
Y1575705D01*
X1875100Y1573190D02*
Y1573808D01*
Y1575218D02*
Y1575834D01*
X1875200Y1573119D02*
Y1573499D01*
Y1575527D02*
Y1575938D01*
X1875300Y1573047D02*
Y1573379D01*
Y1575647D02*
Y1575988D01*
X1875400Y1573006D02*
Y1573299D01*
Y1575727D02*
Y1576038D01*
X1875500Y1572984D02*
Y1573234D01*
Y1575792D02*
Y1576061D01*
X1875600Y1572961D02*
Y1573214D01*
Y1575812D02*
Y1576075D01*
X1875700Y1572939D02*
Y1573194D01*
Y1575832D02*
Y1576089D01*
X1875800Y1572945D02*
Y1573206D01*
Y1575823D02*
Y1576075D01*
X1875900Y1572960D02*
Y1573226D01*
Y1575806D02*
Y1576055D01*
X1876000Y1572974D02*
Y1573267D01*
Y1575789D02*
Y1576035D01*
X1876100Y1573018D02*
Y1573347D01*
Y1575680D02*
Y1576015D01*
X1876200Y1573068D02*
Y1573427D01*
Y1575555D02*
Y1575965D01*
X1876300Y1573142D02*
Y1573620D01*
Y1575406D02*
Y1575890D01*
X1876400Y1573267D02*
Y1575762D01*
X1876500Y1573462D02*
Y1575536D01*
X1876600Y1573771D02*
Y1575261D01*
X1877300Y1573867D02*
Y1575076D01*
X1877400Y1573502D02*
Y1575472D01*
X1877500Y1573302D02*
Y1575705D01*
X1877600Y1573190D02*
Y1573808D01*
Y1575218D02*
Y1575834D01*
X1877700Y1573119D02*
Y1573499D01*
Y1575527D02*
Y1575938D01*
X1877800Y1573047D02*
Y1573379D01*
Y1575647D02*
Y1575988D01*
X1877900Y1573006D02*
Y1573299D01*
Y1575727D02*
Y1576038D01*
X1878000Y1572984D02*
Y1573234D01*
Y1575792D02*
Y1576061D01*
X1878100Y1572961D02*
Y1573214D01*
Y1575812D02*
Y1576075D01*
X1878200Y1572939D02*
Y1573194D01*
Y1575832D02*
Y1576089D01*
X1878300Y1572945D02*
Y1573206D01*
Y1575823D02*
Y1576075D01*
X1878400Y1572960D02*
Y1573226D01*
Y1575806D02*
Y1576055D01*
X1878500Y1572974D02*
Y1573267D01*
Y1575789D02*
Y1576035D01*
X1878600Y1573018D02*
Y1573347D01*
Y1575680D02*
Y1576015D01*
X1878700Y1573068D02*
Y1573427D01*
Y1575555D02*
Y1575965D01*
X1878800Y1573142D02*
Y1573620D01*
Y1575406D02*
Y1575890D01*
X1878900Y1573267D02*
Y1575762D01*
X1879000Y1573462D02*
Y1575536D01*
X1879100Y1573771D02*
Y1575261D01*
X1879800Y1572978D02*
Y1575200D01*
X1879900Y1572978D02*
Y1575200D01*
X1880000Y1572978D02*
Y1575200D01*
X1880100Y1574450D02*
Y1574862D01*
X1880200Y1574677D02*
Y1574882D01*
X1880300Y1574797D02*
Y1574982D01*
X1880400Y1574898D02*
Y1575082D01*
X1880500Y1574926D02*
Y1575144D01*
X1880600Y1574955D02*
Y1575184D01*
X1880700Y1574983D02*
Y1575215D01*
X1880800Y1574969D02*
Y1575240D01*
X1880900Y1574944D02*
Y1575225D01*
X1881000Y1574885D02*
Y1575205D01*
X1881100Y1574780D02*
Y1575169D01*
X1881200Y1572978D02*
Y1575129D01*
X1881300Y1572978D02*
Y1575045D01*
X1881400Y1572978D02*
Y1574894D01*
X1881500Y1574457D02*
Y1574803D01*
X1881600Y1574706D02*
Y1574953D01*
X1881700Y1574820D02*
Y1575074D01*
X1881800Y1574895D02*
Y1575149D01*
X1881900Y1574947D02*
Y1575181D01*
X1882000Y1574967D02*
Y1575205D01*
X1882100Y1574987D02*
Y1575225D01*
X1882200Y1574969D02*
Y1575243D01*
X1882300Y1574949D02*
Y1575228D01*
X1882400Y1574878D02*
Y1575214D01*
X1882500Y1574745D02*
Y1575195D01*
X1882600Y1572978D02*
Y1575135D01*
X1882700Y1572978D02*
Y1575061D01*
X1882800Y1572978D02*
Y1574861D01*
X1883600Y1572978D02*
Y1575200D01*
X1883700Y1572978D02*
Y1575200D01*
X1883800Y1572978D02*
Y1575200D01*
X1883900Y1574617D02*
Y1574844D01*
X1884000Y1574737D02*
Y1574932D01*
X1884100Y1574857D02*
Y1575032D01*
X1884200Y1574912D02*
Y1575124D01*
X1884300Y1574941D02*
Y1575164D01*
X1884400Y1574969D02*
Y1575203D01*
X1884500Y1574981D02*
Y1575228D01*
X1884600Y1574956D02*
Y1575235D01*
X1884700Y1574918D02*
Y1575215D01*
X1884800Y1574851D02*
Y1575189D01*
X1884900Y1574680D02*
Y1575149D01*
X1885000Y1572978D02*
Y1575095D01*
X1885100Y1572978D02*
Y1574994D01*
X1885200Y1572978D02*
Y1574807D01*
X1885300Y1574639D02*
Y1574869D01*
X1885400Y1574773D02*
Y1575036D01*
X1885500Y1574857D02*
Y1575111D01*
X1885600Y1574932D02*
Y1575168D01*
X1885700Y1574957D02*
Y1575193D01*
X1885800Y1574977D02*
Y1575215D01*
X1885900Y1574979D02*
Y1575235D01*
X1886000Y1574959D02*
Y1575236D01*
X1886100Y1574937D02*
Y1575221D01*
X1886200Y1574812D02*
Y1575207D01*
X1886300Y1574605D02*
Y1575165D01*
X1886400Y1572978D02*
Y1575105D01*
X1886500Y1572978D02*
Y1574961D01*
X1886600Y1572978D02*
Y1574583D01*
X1959800Y1656555D02*
Y1656738D01*
X1959900Y1656341D02*
Y1656749D01*
Y1658326D02*
Y1658585D01*
X1960000Y1656201D02*
Y1656760D01*
Y1658315D02*
Y1658754D01*
X1960100Y1656110D02*
Y1656647D01*
Y1658304D02*
Y1658892D01*
X1960200Y1656053D02*
Y1656449D01*
Y1658527D02*
Y1658959D01*
X1960300Y1655996D02*
Y1656328D01*
Y1658698D02*
Y1659026D01*
X1960400Y1655968D02*
Y1656278D01*
Y1658748D02*
Y1659058D01*
X1960500Y1655956D02*
Y1656234D01*
Y1658793D02*
Y1659070D01*
X1960600Y1655943D02*
Y1656214D01*
Y1657521D02*
Y1657753D01*
Y1658818D02*
Y1659083D01*
X1960700Y1655939D02*
Y1656194D01*
Y1657538D02*
Y1657753D01*
Y1658831D02*
Y1659086D01*
X1960800Y1655959D02*
Y1656203D01*
Y1657528D02*
Y1657753D01*
Y1658811D02*
Y1659066D01*
X1960900Y1655979D02*
Y1656220D01*
Y1657511D02*
Y1657809D01*
Y1658791D02*
Y1659043D01*
X1961000Y1655999D02*
Y1656237D01*
Y1657494D02*
Y1657884D01*
Y1658733D02*
Y1659003D01*
X1961100Y1656019D02*
Y1656307D01*
Y1657424D02*
Y1657624D01*
Y1657715D02*
Y1657979D01*
Y1658628D02*
Y1658962D01*
X1961200Y1656075D02*
Y1656382D01*
Y1657349D02*
Y1657590D01*
Y1657790D02*
Y1658208D01*
Y1658365D02*
Y1658887D01*
X1961300Y1656132D02*
Y1656545D01*
Y1657217D02*
Y1657557D01*
Y1657865D02*
Y1658812D01*
X1961400Y1656191D02*
Y1657499D01*
Y1657940D02*
Y1658737D01*
X1961500Y1656351D02*
Y1657399D01*
Y1658228D02*
Y1658380D01*
X1961600Y1656511D02*
Y1657251D01*
X1962300Y1657791D02*
Y1658322D01*
X1962400Y1656355D02*
Y1656699D01*
Y1657501D02*
Y1658596D01*
X1962500Y1656205D02*
Y1656711D01*
Y1657303D02*
Y1658796D01*
X1962600Y1656104D02*
Y1656722D01*
Y1657246D02*
Y1657727D01*
Y1658370D02*
Y1658868D01*
X1962700Y1656037D02*
Y1656462D01*
Y1657188D02*
Y1657560D01*
Y1658537D02*
Y1658939D01*
X1962800Y1655975D02*
Y1656327D01*
Y1657133D02*
Y1657453D01*
Y1658647D02*
Y1659008D01*
X1962900Y1655963D02*
Y1656260D01*
Y1657105D02*
Y1657378D01*
Y1658727D02*
Y1659030D01*
X1963000Y1655950D02*
Y1656222D01*
Y1657076D02*
Y1657343D01*
Y1658792D02*
Y1659052D01*
X1963100Y1655938D02*
Y1656197D01*
Y1657053D02*
Y1657326D01*
Y1658812D02*
Y1659075D01*
X1963200Y1655944D02*
Y1656208D01*
Y1657073D02*
Y1657309D01*
Y1658832D02*
Y1659088D01*
X1963300Y1655958D02*
Y1656237D01*
Y1657094D02*
Y1657319D01*
Y1658823D02*
Y1659074D01*
X1963400Y1655973D02*
Y1656266D01*
Y1657134D02*
Y1657336D01*
Y1658806D02*
Y1659060D01*
X1963500Y1656013D02*
Y1656311D01*
Y1657174D02*
Y1657353D01*
Y1658789D02*
Y1659036D01*
X1963600Y1656063D02*
Y1656391D01*
Y1657257D02*
Y1657423D01*
Y1658719D02*
Y1658986D01*
X1963700Y1656122D02*
Y1656472D01*
Y1657343D02*
Y1657498D01*
Y1658644D02*
Y1658936D01*
X1963800Y1656222D02*
Y1656753D01*
Y1657429D02*
Y1657661D01*
Y1658451D02*
Y1658849D01*
X1963900Y1656326D02*
Y1658744D01*
X1964000Y1656501D02*
Y1658569D01*
X1964100Y1656789D02*
Y1658317D01*
X1965000Y1655978D02*
Y1656280D01*
X1965100Y1655978D02*
Y1656280D01*
X1965200Y1655978D02*
Y1656280D01*
X1966000Y1657067D02*
Y1657572D01*
X1966100Y1656677D02*
Y1658301D01*
X1966200Y1656386D02*
Y1658588D01*
X1966300Y1656226D02*
Y1657098D01*
Y1657887D02*
Y1658772D01*
X1966400Y1656154D02*
Y1656599D01*
Y1658427D02*
Y1658897D01*
X1966500Y1656083D02*
Y1656419D01*
Y1658607D02*
Y1658963D01*
X1966600Y1656017D02*
Y1656339D01*
Y1658687D02*
Y1659013D01*
X1966700Y1655995D02*
Y1656259D01*
Y1658767D02*
Y1659053D01*
X1966800Y1655972D02*
Y1656224D01*
Y1658802D02*
Y1659068D01*
X1966900Y1655950D02*
Y1656204D01*
Y1658822D02*
Y1659082D01*
X1967000Y1655938D02*
Y1656196D01*
Y1658831D02*
Y1659085D01*
X1967100Y1655953D02*
Y1656216D01*
Y1658814D02*
Y1659065D01*
X1967200Y1655967D02*
Y1656236D01*
Y1658798D02*
Y1659045D01*
X1967300Y1655993D02*
Y1656307D01*
Y1658743D02*
Y1659025D01*
X1967400Y1656043D02*
Y1656387D01*
Y1658618D02*
Y1659003D01*
X1967500Y1656093D02*
Y1656520D01*
Y1658482D02*
Y1658928D01*
X1967600Y1656204D02*
Y1656860D01*
Y1658165D02*
Y1658829D01*
X1967700Y1656345D02*
Y1658673D01*
X1967800Y1656578D02*
Y1658398D01*
X1967900Y1656996D02*
Y1658093D01*
X1968500Y1657067D02*
Y1657572D01*
X1968600Y1656677D02*
Y1658301D01*
X1968700Y1656386D02*
Y1658588D01*
X1968800Y1656226D02*
Y1657098D01*
Y1657887D02*
Y1658772D01*
X1968900Y1656154D02*
Y1656599D01*
Y1658427D02*
Y1658897D01*
X1969000Y1656083D02*
Y1656419D01*
Y1658607D02*
Y1658963D01*
X1969100Y1656017D02*
Y1656339D01*
Y1658687D02*
Y1659013D01*
X1969200Y1655995D02*
Y1656259D01*
Y1658767D02*
Y1659053D01*
X1969300Y1655972D02*
Y1656224D01*
Y1658802D02*
Y1659068D01*
X1969400Y1655950D02*
Y1656204D01*
Y1658822D02*
Y1659082D01*
X1969500Y1655938D02*
Y1656196D01*
Y1658831D02*
Y1659085D01*
X1969600Y1655953D02*
Y1656216D01*
Y1658814D02*
Y1659065D01*
X1969700Y1655967D02*
Y1656236D01*
Y1658798D02*
Y1659045D01*
X1969800Y1655993D02*
Y1656307D01*
Y1658743D02*
Y1659025D01*
X1969900Y1656043D02*
Y1656387D01*
Y1658618D02*
Y1659003D01*
X1970000Y1656093D02*
Y1656520D01*
Y1658482D02*
Y1658928D01*
X1970100Y1656204D02*
Y1656860D01*
Y1658165D02*
Y1658829D01*
X1970200Y1656345D02*
Y1658673D01*
X1970300Y1656578D02*
Y1658398D01*
X1970400Y1656996D02*
Y1658093D01*
X1971100Y1655978D02*
Y1658200D01*
X1971200Y1655978D02*
Y1658200D01*
X1971300Y1655978D02*
Y1658200D01*
X1971400Y1657617D02*
Y1657844D01*
X1971500Y1657737D02*
Y1657932D01*
X1971600Y1657857D02*
Y1658032D01*
X1971700Y1657912D02*
Y1658124D01*
X1971800Y1657941D02*
Y1658164D01*
X1971900Y1657969D02*
Y1658203D01*
X1972000Y1657981D02*
Y1658228D01*
X1972100Y1657956D02*
Y1658235D01*
X1972200Y1657918D02*
Y1658215D01*
X1972300Y1657851D02*
Y1658189D01*
X1972400Y1657680D02*
Y1658149D01*
X1972500Y1655978D02*
Y1658095D01*
X1972600Y1655978D02*
Y1657994D01*
X1972700Y1655978D02*
Y1657807D01*
X1972800Y1657639D02*
Y1657869D01*
X1972900Y1657773D02*
Y1658036D01*
X1973000Y1657857D02*
Y1658111D01*
X1973100Y1657932D02*
Y1658168D01*
X1973200Y1657957D02*
Y1658193D01*
X1973300Y1657977D02*
Y1658215D01*
X1973400Y1657979D02*
Y1658235D01*
X1973500Y1657959D02*
Y1658236D01*
X1973600Y1657937D02*
Y1658221D01*
X1973700Y1657812D02*
Y1658207D01*
X1973800Y1657605D02*
Y1658165D01*
X1973900Y1655978D02*
Y1658105D01*
X1974000Y1655978D02*
Y1657961D01*
X1974100Y1655978D02*
Y1657583D01*
X1974800Y1655978D02*
Y1658200D01*
X1974900Y1655978D02*
Y1658200D01*
X1975000Y1655978D02*
Y1658200D01*
X1975100Y1657450D02*
Y1657862D01*
X1975200Y1657677D02*
Y1657882D01*
X1975300Y1657797D02*
Y1657982D01*
X1975400Y1657898D02*
Y1658082D01*
X1975500Y1657926D02*
Y1658144D01*
X1975600Y1657955D02*
Y1658184D01*
X1975700Y1657983D02*
Y1658215D01*
X1975800Y1657969D02*
Y1658240D01*
X1975900Y1657944D02*
Y1658225D01*
X1976000Y1657885D02*
Y1658205D01*
X1976100Y1657780D02*
Y1658169D01*
X1976200Y1655978D02*
Y1658129D01*
X1976300Y1655978D02*
Y1658045D01*
X1976400Y1655978D02*
Y1657894D01*
X1976500Y1657457D02*
Y1657803D01*
X1976600Y1657706D02*
Y1657953D01*
X1976700Y1657820D02*
Y1658074D01*
X1976800Y1657895D02*
Y1658149D01*
X1976900Y1657947D02*
Y1658181D01*
X1977000Y1657967D02*
Y1658205D01*
X1977100Y1657987D02*
Y1658225D01*
X1977200Y1657969D02*
Y1658243D01*
X1977300Y1657949D02*
Y1658228D01*
X1977400Y1657878D02*
Y1658214D01*
X1977500Y1657745D02*
Y1658195D01*
X1977600Y1655978D02*
Y1658135D01*
X1977700Y1655978D02*
Y1658061D01*
X1977800Y1655978D02*
Y1657861D01*
*
G04 PC Custom Flashes*
G04 Layer Name PCB_ESP-Moonlight_V2.0_ - flashes*
%LPD*%
*
*
G04 PC Circuitry*
G04 Layer Name PCB_ESP-Moonlight_V2.0_ - circuitry*
%LPD*%
*
G54D10*
X1891732Y1498031D02*
X1891735D01*
X1891732Y1651575D02*
X1891735D01*
X1891732D02*
X1891735D01*
X2045276D02*
X2045278D01*
G54D44*
X1966254Y1576053D02*
Y1564045D01*
X1973144*
Y1576053*
X1966254*
G54D109*
X1983390Y1512045D02*
Y1507123D01*
Y1512045D02*
X1985754D01*
X1983390Y1509702D02*
X1984845D01*
X1983390Y1507123D02*
X1985754D01*
X1989936Y1511342D02*
X1989572Y1511811D01*
X1989027Y1512045*
X1988299*
X1987754Y1511811*
X1987390Y1511342*
Y1510873*
X1987572Y1510405*
X1987754Y1510170*
X1988118Y1509936*
X1989208Y1509467*
X1989572Y1509233*
X1989754Y1508998*
X1989936Y1508530*
Y1507827*
X1989572Y1507358*
X1989027Y1507123*
X1988299*
X1987754Y1507358*
X1987390Y1507827*
X1991572Y1512045D02*
Y1507123D01*
Y1512045D02*
X1993208D01*
X1993754Y1511811*
X1993936Y1511577*
X1994118Y1511108*
Y1510405*
X1993936Y1509936*
X1993754Y1509702*
X1993208Y1509467*
X1991572*
X1995754Y1509233D02*
X1999027D01*
X2000663Y1512045D02*
Y1507123D01*
Y1512045D02*
X2002118Y1507123D01*
X2003572Y1512045D02*
X2002118Y1507123D01*
X2003572Y1512045D02*
Y1507123D01*
X2006118Y1510405D02*
X2005754Y1510170D01*
X2005390Y1509702*
X2005208Y1508998*
Y1508530*
X2005390Y1507827*
X2005754Y1507358*
X2006118Y1507123*
X2006663*
X2007027Y1507358*
X2007390Y1507827*
X2007572Y1508530*
Y1508998*
X2007390Y1509702*
X2007027Y1510170*
X2006663Y1510405*
X2006118*
X2010118D02*
X2009754Y1510170D01*
X2009390Y1509702*
X2009208Y1508998*
Y1508530*
X2009390Y1507827*
X2009754Y1507358*
X2010118Y1507123*
X2010663*
X2011027Y1507358*
X2011390Y1507827*
X2011572Y1508530*
Y1508998*
X2011390Y1509702*
X2011027Y1510170*
X2010663Y1510405*
X2010118*
X2013208D02*
Y1507123D01*
Y1509467D02*
X2013754Y1510170D01*
X2014118Y1510405*
X2014663*
X2015027Y1510170*
X2015208Y1509467*
Y1507123*
X2016845Y1512045D02*
Y1507123D01*
X2018481Y1512045D02*
X2018663Y1511811D01*
X2018845Y1512045*
X2018663Y1512280*
X2018481Y1512045*
X2018663Y1510405D02*
Y1507123D01*
X2022663Y1510405D02*
Y1506655D01*
X2022481Y1505952*
X2022299Y1505717*
X2021936Y1505483*
X2021390*
X2021027Y1505717*
X2022663Y1509702D02*
X2022299Y1510170D01*
X2021936Y1510405*
X2021390*
X2021027Y1510170*
X2020663Y1509702*
X2020481Y1508998*
Y1508530*
X2020663Y1507827*
X2021027Y1507358*
X2021390Y1507123*
X2021936*
X2022299Y1507358*
X2022663Y1507827*
X2024299Y1512045D02*
Y1507123D01*
Y1509467D02*
X2024845Y1510170D01*
X2025208Y1510405*
X2025754*
X2026118Y1510170*
X2026299Y1509467*
Y1507123*
X2028481Y1512045D02*
Y1508061D01*
X2028663Y1507358*
X2029027Y1507123*
X2029390*
X2027936Y1510405D02*
X2029208D01*
X1980549Y1503748D02*
X1981458Y1500795D01*
X1982368Y1503748D02*
X1981458Y1500795D01*
X1983504Y1503045D02*
Y1503186D01*
X1983618Y1503467*
X1983731Y1503608*
X1983958Y1503748*
X1984413*
X1984640Y1503608*
X1984754Y1503467*
X1984868Y1503186*
Y1502905*
X1984754Y1502623*
X1984527Y1502202*
X1983390Y1500795*
X1984981*
X1986118Y1501077D02*
X1986004Y1500936D01*
X1986118Y1500795*
X1986231Y1500936*
X1986118Y1501077*
X1987936Y1503748D02*
X1987595Y1503608D01*
X1987368Y1503186*
X1987254Y1502483*
Y1502061*
X1987368Y1501358*
X1987595Y1500936*
X1987936Y1500795*
X1988163*
X1988504Y1500936*
X1988731Y1501358*
X1988845Y1502061*
Y1502483*
X1988731Y1503186*
X1988504Y1503608*
X1988163Y1503748*
X1987936*
X1993390Y1504311D02*
X1992595Y1499811D01*
X1994072Y1504311D02*
X1993277Y1499811D01*
X1992595Y1502483D02*
X1994186D01*
X1992481Y1501639D02*
X1994072D01*
X1995436Y1503748D02*
X1996686D01*
X1996004Y1502623*
X1996345*
X1996572Y1502483*
X1996686Y1502342*
X1996799Y1501920*
Y1501639*
X1996686Y1501217*
X1996458Y1500936*
X1996118Y1500795*
X1995777*
X1995436Y1500936*
X1995322Y1501077*
X1995208Y1501358*
X1997822Y1503186D02*
X1998049Y1503327D01*
X1998390Y1503748*
Y1500795*
X2000777Y1503327D02*
X2000663Y1503608D01*
X2000322Y1503748*
X2000095*
X1999754Y1503608*
X1999527Y1503186*
X1999413Y1502483*
Y1501780*
X1999527Y1501217*
X1999754Y1500936*
X2000095Y1500795*
X2000208*
X2000549Y1500936*
X2000777Y1501217*
X2000890Y1501639*
Y1501780*
X2000777Y1502202*
X2000549Y1502483*
X2000208Y1502623*
X2000095*
X1999754Y1502483*
X1999527Y1502202*
X1999413Y1501780*
X2003277Y1503327D02*
X2003163Y1503608D01*
X2002822Y1503748*
X2002595*
X2002254Y1503608*
X2002027Y1503186*
X2001913Y1502483*
Y1501780*
X2002027Y1501217*
X2002254Y1500936*
X2002595Y1500795*
X2002708*
X2003049Y1500936*
X2003277Y1501217*
X2003390Y1501639*
Y1501780*
X2003277Y1502202*
X2003049Y1502483*
X2002708Y1502623*
X2002595*
X2002254Y1502483*
X2002027Y1502202*
X2001913Y1501780*
X2004527Y1503045D02*
Y1503186D01*
X2004640Y1503467*
X2004754Y1503608*
X2004981Y1503748*
X2005436*
X2005663Y1503608*
X2005777Y1503467*
X2005890Y1503186*
Y1502905*
X2005777Y1502623*
X2005549Y1502202*
X2004413Y1500795*
X2006004*
X2008652Y1503045D02*
Y1503186D01*
X2008765Y1503467*
X2008879Y1503608*
X2009106Y1503748*
X2009561*
X2009788Y1503608*
X2009902Y1503467*
X2010015Y1503186*
Y1502905*
X2009902Y1502623*
X2009674Y1502202*
X2008538Y1500795*
X2010129*
X2011833Y1503748D02*
X2011493Y1503608D01*
X2011265Y1503186*
X2011152Y1502483*
Y1502061*
X2011265Y1501358*
X2011493Y1500936*
X2011833Y1500795*
X2012061*
X2012402Y1500936*
X2012629Y1501358*
X2012743Y1502061*
Y1502483*
X2012629Y1503186*
X2012402Y1503608*
X2012061Y1503748*
X2011833*
X2013879Y1503045D02*
Y1503186D01*
X2013993Y1503467*
X2014106Y1503608*
X2014333Y1503748*
X2014788*
X2015015Y1503608*
X2015129Y1503467*
X2015243Y1503186*
Y1502905*
X2015129Y1502623*
X2014902Y1502202*
X2013765Y1500795*
X2015356*
X2017061Y1503748D02*
X2016720Y1503608D01*
X2016493Y1503186*
X2016379Y1502483*
Y1502061*
X2016493Y1501358*
X2016720Y1500936*
X2017061Y1500795*
X2017288*
X2017629Y1500936*
X2017856Y1501358*
X2017970Y1502061*
Y1502483*
X2017856Y1503186*
X2017629Y1503608*
X2017288Y1503748*
X2017061*
X2019106Y1501077D02*
X2018993Y1500936D01*
X2019106Y1500795*
X2019220Y1500936*
X2019106Y1501077*
X2020924Y1503748D02*
X2020583Y1503608D01*
X2020356Y1503186*
X2020243Y1502483*
Y1502061*
X2020356Y1501358*
X2020583Y1500936*
X2020924Y1500795*
X2021152*
X2021493Y1500936*
X2021720Y1501358*
X2021833Y1502061*
Y1502483*
X2021720Y1503186*
X2021493Y1503608*
X2021152Y1503748*
X2020924*
X2023993D02*
X2022856Y1501780D01*
X2024561*
X2023993Y1503748D02*
Y1500795D01*
X2025697Y1501077D02*
X2025583Y1500936D01*
X2025697Y1500795*
X2025811Y1500936*
X2025697Y1501077*
X2026947Y1503045D02*
Y1503186D01*
X2027061Y1503467*
X2027174Y1503608*
X2027402Y1503748*
X2027856*
X2028083Y1503608*
X2028197Y1503467*
X2028311Y1503186*
Y1502905*
X2028197Y1502623*
X2027970Y1502202*
X2026833Y1500795*
X2028424*
X2029447Y1503186D02*
X2029674Y1503327D01*
X2030015Y1503748*
Y1500795*
X1899606Y1651575D02*
G75*
G03X1891732Y1643701I0J-7874D01*
G01X1899606Y1651575D02*
X2037402D01*
X2045276Y1643701D02*
G03X2037402Y1651575I-7874J-0D01*
G01X2045276Y1643701D02*
Y1505906D01*
X2037402Y1498031D02*
G03X2045276Y1505906I-0J7875D01*
G01X2037402Y1498031D02*
X1899606D01*
X1891732Y1505906D02*
G03X1899606Y1498031I7874J-0D01*
G01X1891732Y1505906D02*
Y1643701D01*
X2041339D02*
G03X2041339I-3937J0D01*
G01X1903543D02*
G03X1903543I-3937J0D01*
G01X1956693Y1517717D02*
X1980315D01*
Y1510630*
X1956693*
Y1517717*
X1903543Y1505906D02*
G03X1903543I-3937J0D01*
G01X2041339D02*
G03X2041339I-3937J0D01*
G01X1877254Y1498031D02*
Y1569928D01*
Y1498031D02*
X1876254Y1503031D01*
X1878254*
X1877254Y1498031*
Y1651575D02*
Y1579678D01*
Y1651575D02*
X1878254Y1646575D01*
X1876254*
X1877254Y1651575*
X1889732Y1498031D02*
X1875254D01*
X1889732Y1651575D02*
X1875254D01*
X1891732Y1657803D02*
X1956470D01*
X1891732D02*
X1896732Y1658803D01*
Y1656803*
X1891732Y1657803*
X2045276D02*
X1980538D01*
X2045276D02*
X2040276Y1656803D01*
Y1658803*
X2045276Y1657803*
X1891732Y1653575D02*
Y1659803D01*
X2045276Y1653575D02*
Y1659803D01*
X2043307Y1643701D02*
G03X2043307I-5905J0D01*
G01X1905512D02*
G03X1905512I-5906J0D01*
G01Y1505906D02*
G03X1905512I-5906J0D01*
G01X2043307D02*
G03X2043307I-5905J0D01*
G54D114*
G01X2001885Y1524802D02*
G03X2018193Y1517810I9653J0D01*
G01X2004504Y1531413D02*
G03X2001885Y1524802I7034J-6611D01*
G01X2004504Y1531413D02*
X2004706Y1531235D01*
G03X2002149Y1524752I6943J-6483*
X2018166Y1517840I9500J-0*
G01X2018193Y1517810*
X2017877Y1517578D02*
X2017940D01*
X2017552Y1517308D02*
X2017622D01*
X2017194Y1517038D02*
X2017273D01*
X2016798Y1516768D02*
X2016889D01*
X2016353Y1516498D02*
X2016459D01*
X2015844Y1516228D02*
X2015972D01*
X2015243Y1515958D02*
X2015406D01*
X2014495Y1515688D02*
X2014718D01*
X2013418Y1515418D02*
X2013800D01*
X2009276D02*
X2009880D01*
X2008358Y1515688D02*
X2008803D01*
X2007670Y1515958D02*
X2008055D01*
X2007104Y1516228D02*
X2007454D01*
X2006617Y1516498D02*
X2006945D01*
X2006187Y1516768D02*
X2006500D01*
X2005803Y1517038D02*
X2006104D01*
X2005454Y1517308D02*
X2005747D01*
X2005136Y1517578D02*
X2005421D01*
X2004843Y1517848D02*
X2005123D01*
X2004574Y1518118D02*
X2004849D01*
X2004324Y1518388D02*
X2004596D01*
X2004444Y1531348D02*
X2004578D01*
X2004204Y1531078D02*
X2004563D01*
X2004093Y1518658D02*
X2004361D01*
X2003981Y1530808D02*
X2004330D01*
X2003878Y1518928D02*
X2004144D01*
X2003774Y1530538D02*
X2004115D01*
X2003679Y1519198D02*
X2003942D01*
X2003582Y1530268D02*
X2003915D01*
X2003493Y1519468D02*
X2003754D01*
X2003403Y1529998D02*
X2003730D01*
X2003320Y1519738D02*
X2003580D01*
X2003237Y1529728D02*
X2003557D01*
X2003160Y1520008D02*
X2003418D01*
X2003082Y1529458D02*
X2003397D01*
X2003011Y1520278D02*
X2003269D01*
X2002939Y1529188D02*
X2003249D01*
X2002873Y1520548D02*
X2003130D01*
X2002807Y1528918D02*
X2003112D01*
X2002746Y1520818D02*
X2003002D01*
X2002684Y1528648D02*
X2002985D01*
X2002628Y1521088D02*
X2002884D01*
X2002572Y1528378D02*
X2002869D01*
X2002521Y1521358D02*
X2002776D01*
X2002469Y1528108D02*
X2002762D01*
X2002422Y1521628D02*
X2002678D01*
X2002375Y1527838D02*
X2002665D01*
X2002332Y1521898D02*
X2002588D01*
X2002290Y1527568D02*
X2002577D01*
X2002252Y1522168D02*
X2002507D01*
X2002213Y1527298D02*
X2002497D01*
X2002179Y1522438D02*
X2002435D01*
X2002145Y1527028D02*
X2002426D01*
X2002115Y1522708D02*
X2002372D01*
X2002085Y1526758D02*
X2002364D01*
X2002059Y1522978D02*
X2002316D01*
X2002034Y1526488D02*
X2002309D01*
X2002011Y1523248D02*
X2002269D01*
X2001990Y1526218D02*
X2002263D01*
X2001971Y1523518D02*
X2002230D01*
X2001953Y1525948D02*
X2002225D01*
X2001939Y1523788D02*
X2002198D01*
X2001925Y1525678D02*
X2002195D01*
X2001914Y1524058D02*
X2002175D01*
X2001904Y1525408D02*
X2002172D01*
X2001897Y1524328D02*
X2002159D01*
X2001891Y1525138D02*
X2002157D01*
X2001887Y1524598D02*
X2002151D01*
X2001885Y1524868D02*
X2002150D01*
G54D183*
X1953937Y1627953D02*
X1983071D01*
Y1610236*
X1981102Y1608268*
X1953937*
Y1627953*
X2007244Y1614140D02*
X2021811Y1588909D01*
X2006468Y1580051*
X2003779Y1580771*
X1990197Y1604297*
X2007244Y1614140*
X2021811Y1560697D02*
X2007244Y1535467D01*
X1991901Y1544325*
X1991181Y1547014*
X2004764Y1570540*
X2021811Y1560697*
X1983071Y1522961D02*
X1953937D01*
Y1540677*
X1955906Y1542646*
X1983071*
Y1522961*
X1929764Y1535467D02*
X1915197Y1560697D01*
X1930540Y1569555*
X1933229Y1568835*
X1946811Y1545309*
X1929764Y1535467*
X1915197Y1588909D02*
X1929764Y1614140D01*
X1945106Y1605281*
X1945106D02*
X1945827Y1602592D01*
X1932244Y1579067*
X1915197Y1588909*
G54D231*
X1988054Y1571053D02*
Y1574453D01*
X1987354Y1575153*
X1983254*
X1982454Y1574353*
Y1571053*
X1988054Y1568053D02*
Y1564653D01*
X1987354Y1563953*
X1983254*
X1982454Y1564753*
Y1568053*
X1964704Y1582053D02*
Y1578653D01*
X1965404Y1577953*
X1969504*
X1970304Y1578753*
Y1582053*
X1964704Y1585053D02*
Y1588453D01*
X1965404Y1589153*
X1969504*
X1970304Y1588353*
Y1585053*
X2011713Y1616472D02*
X2009309Y1614068D01*
Y1613078*
X2012208Y1610179*
X2013340*
X2015673Y1612513*
X2013835Y1618594D02*
X2016239Y1620998D01*
X2017229*
X2020128Y1618099*
Y1616967*
X2017794Y1614634*
X1994304Y1571053D02*
Y1574453D01*
X1993604Y1575153*
X1989504*
X1988704Y1574353*
Y1571053*
X1994304Y1568053D02*
Y1564653D01*
X1993604Y1563953*
X1989504*
X1988704Y1564753*
Y1568053*
X1970954Y1582053D02*
Y1578653D01*
X1971654Y1577953*
X1975754*
X1976554Y1578753*
Y1582053*
X1970954Y1585053D02*
Y1588453D01*
X1971654Y1589153*
X1975754*
X1976554Y1588353*
Y1585053*
X1913504Y1508603D02*
X1910104D01*
X1909404Y1507903*
Y1503803*
X1910204Y1503003*
X1913504*
X1916504Y1508603D02*
X1919904D01*
X1920604Y1507903*
Y1503803*
X1919804Y1503003*
X1916504*
X1964004Y1581303D02*
Y1579103D01*
X1963605Y1578703*
X1961417*
X1961004Y1579116*
Y1581303*
X1964004Y1583303D02*
Y1585503D01*
X1963604Y1585903*
X1961404*
X1961004Y1585503*
Y1583303*
X1978754Y1569303D02*
Y1571503D01*
X1979153Y1571903*
X1981341*
X1981754Y1571490*
Y1569303*
X1978754Y1567303D02*
Y1565103D01*
X1979154Y1564703*
X1981354*
X1981754Y1565103*
Y1567303*
X1904254Y1628803D02*
X1906454D01*
X1906854Y1628404*
Y1626216*
X1906441Y1625803*
X1904254*
X1902254Y1628803D02*
X1900054D01*
X1899654Y1628403*
Y1626203*
X1900054Y1625803*
X1902254*
X1979504Y1580553D02*
Y1582753D01*
X1979903Y1583153*
X1982091*
X1982504Y1582740*
Y1580553*
X1979504Y1578553D02*
Y1576353D01*
X1979904Y1575953*
X1982104*
X1982504Y1576353*
Y1578553*
X1914004Y1513053D02*
X1916204D01*
X1916604Y1512654*
Y1510466*
X1916191Y1510053*
X1914004*
X1912004Y1513053D02*
X1909804D01*
X1909404Y1512653*
Y1510453*
X1909804Y1510053*
X1912004*
X1940843Y1585358D02*
X1958165D01*
Y1567248*
X1940843*
Y1585358*
X1938167Y1637783D02*
Y1622823D01*
X1952341*
Y1637783*
X1938167*
X1939545Y1631583D02*
Y1629024D01*
X1950963*
Y1631583*
X1939545*
X1951833Y1634815D02*
G03X1951833I-492J0D01*
G01X1952341Y1637783D02*
Y1622823D01*
X1938167*
Y1637783*
X1952341*
X1923167D02*
Y1622823D01*
X1937341*
Y1637783*
X1923167*
X1924545Y1631583D02*
Y1629024D01*
X1935963*
Y1631583*
X1924545*
X1936833Y1634815D02*
G03X1936833I-492J0D01*
G01X1937341Y1637783D02*
Y1622823D01*
X1923167*
Y1637783*
X1937341*
X1908167D02*
Y1622823D01*
X1922341*
Y1637783*
X1908167*
X1909545Y1631583D02*
Y1629024D01*
X1920963*
Y1631583*
X1909545*
X1921833Y1634815D02*
G03X1921833I-492J0D01*
G01X1922341Y1637783D02*
Y1622823D01*
X1908167*
Y1637783*
X1922341*
X1914004Y1528053D02*
X1916604D01*
Y1525053*
X1914004*
X1912004Y1528053D02*
X1909404D01*
Y1525053*
X1912004*
X1904254Y1632303D02*
X1906854D01*
Y1629303*
X1904254*
X1902254Y1632303D02*
X1899654D01*
Y1629303*
X1902254*
X1904254Y1635803D02*
X1906854D01*
Y1632803*
X1904254*
X1902254Y1635803D02*
X1899654D01*
Y1632803*
X1902254*
X1914004Y1531803D02*
X1916604D01*
Y1528803*
X1914004*
X1912004Y1531803D02*
X1909404D01*
Y1528803*
X1912004*
X1968754Y1559803D02*
X1966154D01*
Y1562803*
X1968754*
X1970754Y1559803D02*
X1973354D01*
Y1562803*
X1970754*
X1986254Y1578553D02*
Y1575953D01*
X1983254*
Y1578553*
X1986254Y1580553D02*
Y1583153D01*
X1983254*
Y1580553*
X1987004D02*
Y1583153D01*
X1990004*
Y1580553*
X1987004Y1578553D02*
Y1575953D01*
X1990004*
Y1578553*
X1914004Y1524303D02*
X1916604D01*
Y1521303*
X1914004*
X1912004Y1524303D02*
X1909404D01*
Y1521303*
X1912004*
X1930754Y1517428D02*
Y1520028D01*
X1933754*
Y1517428*
X1930754Y1515428D02*
Y1512828D01*
X1933754*
Y1515428*
X1930754Y1525178D02*
Y1527778D01*
X1933754*
Y1525178*
X1930754Y1523178D02*
Y1520578D01*
X1933754*
Y1523178*
X1914004Y1520553D02*
X1916604D01*
Y1517553*
X1914004*
X1912004Y1520553D02*
X1909404D01*
Y1517553*
X1912004*
X1914004Y1516803D02*
X1916604D01*
Y1513803*
X1914004*
X1912004Y1516803D02*
X1909404D01*
Y1513803*
X1912004*
X1970254Y1638553D02*
X1967654D01*
Y1641553*
X1970254*
X1972254Y1638553D02*
X1974854D01*
Y1641553*
X1972254*
X1970254Y1634553D02*
X1967654D01*
Y1637553*
X1970254*
X1972254Y1634553D02*
X1974854D01*
Y1637553*
X1972254*
X1970254Y1630553D02*
X1967654D01*
Y1633553*
X1970254*
X1972254Y1630553D02*
X1974854D01*
Y1633553*
X1972254*
X2019022Y1607907D02*
X2020860Y1606068D01*
X2018739Y1603947*
X2016900Y1605785*
X2017607Y1609321D02*
X2015769Y1611159D01*
X2013648Y1609038*
X2015486Y1607200*
X2021772Y1610657D02*
X2023610Y1608818D01*
X2021489Y1606697*
X2019650Y1608535*
X2020357Y1612071D02*
X2018519Y1613909D01*
X2016398Y1611788*
X2018236Y1609950*
X2024522Y1613407D02*
X2026360Y1611568D01*
X2024239Y1609447*
X2022400Y1611285*
X2023107Y1614821D02*
X2021269Y1616659D01*
X2019148Y1614538*
X2020986Y1612700*
X2017357Y1541785D02*
X2015519Y1539947D01*
X2013398Y1542068*
X2015236Y1543907*
X2018772Y1543200D02*
X2020610Y1545038D01*
X2018489Y1547159*
X2016650Y1545321*
X2020107Y1539035D02*
X2018269Y1537197D01*
X2016148Y1539318*
X2017986Y1541157*
X2021522Y1540450D02*
X2023360Y1542288D01*
X2021239Y1544409*
X2019400Y1542571*
X2022857Y1536285D02*
X2021019Y1534447D01*
X2018898Y1536568*
X2020736Y1538407*
X2024272Y1537700D02*
X2026110Y1539538D01*
X2023989Y1541659*
X2022150Y1539821*
X1989004Y1527303D02*
X1986404D01*
Y1530303*
X1989004*
X1991004Y1527303D02*
X1993604D01*
Y1530303*
X1991004*
X1989004Y1531053D02*
X1986404D01*
Y1534053*
X1989004*
X1991004Y1531053D02*
X1993604D01*
Y1534053*
X1991004*
X1989004Y1534803D02*
X1986404D01*
Y1537803*
X1989004*
X1991004Y1534803D02*
X1993604D01*
Y1537803*
X1991004*
X1935986Y1531700D02*
X1934148Y1533538D01*
X1936269Y1535659*
X1938107Y1533821*
X1937400Y1530285D02*
X1939239Y1528447D01*
X1941360Y1530568*
X1939522Y1532407*
X1938736Y1534450D02*
X1936898Y1536288D01*
X1939019Y1538409*
X1940857Y1536571*
X1940150Y1533035D02*
X1941989Y1531197D01*
X1944110Y1533318*
X1942272Y1535157*
X1941486Y1537200D02*
X1939648Y1539038D01*
X1941769Y1541159*
X1943607Y1539321*
X1942900Y1535785D02*
X1944739Y1533947D01*
X1946860Y1536068*
X1945022Y1537907*
X1916254Y1578553D02*
Y1581153D01*
X1919254*
Y1578553*
X1916254Y1576553D02*
Y1573953D01*
X1919254*
Y1576553*
X1920004Y1578553D02*
Y1581153D01*
X1923004*
Y1578553*
X1920004Y1576553D02*
Y1573953D01*
X1923004*
Y1576553*
X1923754Y1578553D02*
Y1581153D01*
X1926754*
Y1578553*
X1923754Y1576553D02*
Y1573953D01*
X1926754*
Y1576553*
X1948004Y1641803D02*
X1950604D01*
Y1638803*
X1948004*
X1946004Y1641803D02*
X1943404D01*
Y1638803*
X1946004*
X1933004Y1641803D02*
X1935604D01*
Y1638803*
X1933004*
X1931004Y1641803D02*
X1928404D01*
Y1638803*
X1931004*
X1918004Y1641803D02*
X1920604D01*
Y1638803*
X1918004*
X1916004Y1641803D02*
X1913404D01*
Y1638803*
X1916004*
X2002254Y1572503D02*
X2006354D01*
Y1578103*
X2002254*
X1999254Y1572503D02*
X1995154D01*
Y1578103*
X1999254*
X1906766Y1576870D02*
X1895742D01*
Y1612303*
X1906766*
Y1576870*
X1903054Y1579603D02*
X1900254Y1582403D01*
X1903254Y1585403*
X1900354Y1588303*
X1903154Y1591103*
X1900454Y1593803*
X1903054Y1596403*
X1900254Y1599203*
X1902654Y1601603*
X1901154Y1603103*
Y1607003*
X1930482Y1511630D02*
X1931982Y1510830D01*
Y1512430*
X1930482Y1511630*
X1929660Y1509679D02*
Y1525427D01*
X1929659*
X1917848*
X1917848*
Y1509679*
X1917848*
X1929659*
X1929660*
X1915304Y1577053D02*
Y1580453D01*
X1914604Y1581153*
X1910504*
X1909704Y1580353*
Y1577053*
X1915304Y1574053D02*
Y1570653D01*
X1914604Y1569953*
X1910504*
X1909704Y1570753*
Y1574053*
X1948544Y1528634D02*
X1950949Y1531038D01*
Y1532028*
X1948050Y1534927*
X1946918*
X1944585Y1532594*
X1946423Y1526513D02*
X1944019Y1524108D01*
X1943029*
X1940130Y1527008*
Y1528139*
X1942463Y1530472*
X1988754Y1526353D02*
X1985354D01*
X1984654Y1525653*
Y1521553*
X1985454Y1520753*
X1988754*
X1991754Y1526353D02*
X1995154D01*
X1995854Y1525653*
Y1521553*
X1995054Y1520753*
X1991754*
X2025923Y1549094D02*
X2023519Y1551498D01*
X2022529*
X2019630Y1548599*
Y1547467*
X2021963Y1545134*
X2028044Y1546972D02*
X2030449Y1544568D01*
Y1543578*
X2027550Y1540679*
X2026418*
X2024085Y1543013*
X1981804Y1637553D02*
Y1640953D01*
X1981104Y1641653*
X1977004*
X1976204Y1640853*
Y1637553*
X1981804Y1634553D02*
Y1631153D01*
X1981104Y1630453*
X1977004*
X1976204Y1631253*
Y1634553*
X2007203Y1519578D02*
G03X2007203I-744J0D01*
G01X2005935Y1529738D02*
X2005792D01*
X2016295Y1519174D02*
G03X2005792Y1529738I-10563J2D01*
G01X2016295Y1519174D02*
X2016294Y1519103D01*
X2017487Y1519154*
X2018605Y1520861*
G03X2007609Y1531956I-13536J-2418*
G01X2005935Y1530782*
Y1529738*
X2005898Y1528136D02*
G03X2005651Y1522450I690J-2879D01*
G01X2014834Y1519174D02*
G03X2005898Y1528136I-8962J-0D01*
G01X2014653Y1517385D02*
G03X2014834Y1519174I-8781J1789D01*
G01X2014653Y1517385D02*
X2013773Y1516944D01*
X2012705Y1517262*
G03X2012929Y1519033I-6888J1771*
X2006269Y1526130I-7112J-0*
X2006118Y1526104I-21J-335*
X2005587Y1525306I336J-798*
X2006118Y1524507I867J-0*
X2006211Y1524482I130J310*
G01X2011110Y1519006D02*
G03X2006211Y1524482I-5511J-0D01*
G01X2010602Y1516695D02*
G03X2011110Y1519006I-5003J2311D01*
G01X2010602Y1516695D02*
X2009539Y1516788D01*
X2008668Y1517447*
G03X2008995Y1518923I-3196J1484*
X2005651Y1522450I-3525J6*
G01X2019573Y1524597D02*
G03X2010704Y1532888I-8310J0D01*
G01X2019550Y1523984D02*
G03X2019573Y1524597I-8287J613D01*
G01X2019550Y1523984D02*
X2019253Y1523858D01*
G03X2010584Y1532555I-12838J-4129*
G01X2010704Y1532888*
X2007203Y1519578D02*
G03X2007203I-744J0D01*
G01X2016153Y1520901D02*
X2018598D01*
X2016087Y1521261D02*
X2018527D01*
X2016008Y1521621D02*
X2018447D01*
X2016206Y1520541D02*
X2018396D01*
X2015916Y1521981D02*
X2018356D01*
X2015810Y1522341D02*
X2018255D01*
X2016247Y1520181D02*
X2018160D01*
X2015689Y1522701D02*
X2018143D01*
X2015554Y1523061D02*
X2018021D01*
X2016275Y1519821D02*
X2017924D01*
X2015404Y1523421D02*
X2017886D01*
X2015238Y1523781D02*
X2017741D01*
X2016291Y1519461D02*
X2017688D01*
X2015055Y1524141D02*
X2017583D01*
X2014854Y1524501D02*
X2017413D01*
X2014634Y1524861D02*
X2017229D01*
X2014394Y1525221D02*
X2017032D01*
X2014131Y1525581D02*
X2016821D01*
X2013844Y1525941D02*
X2016595D01*
X2013529Y1526301D02*
X2016352D01*
X2013184Y1526661D02*
X2016093D01*
X2012804Y1527021D02*
X2015815D01*
X2012383Y1527381D02*
X2015518D01*
X2011913Y1527741D02*
X2015198D01*
X2011381Y1528101D02*
X2014856D01*
X2010767Y1528461D02*
X2014487D01*
X2010037Y1528821D02*
X2014089D01*
X2009117Y1529181D02*
X2013657D01*
X2007763Y1529541D02*
X2013186D01*
X2005935Y1529901D02*
X2012669D01*
X2005935Y1530261D02*
X2012097D01*
X2005935Y1530621D02*
X2011452D01*
X2006219Y1530981D02*
X2010712D01*
X2006733Y1531341D02*
X2009832D01*
X2007246Y1531701D02*
X2008712D01*
X2012927Y1519213D02*
X2014834D01*
X2012927Y1518853D02*
X2014828D01*
X2012908Y1519573D02*
X2014825D01*
X2012909Y1518493D02*
X2014808D01*
X2012872Y1519933D02*
X2014802D01*
X2012872Y1518133D02*
X2014773D01*
X2012816Y1520293D02*
X2014764D01*
X2012817Y1517773D02*
X2014724D01*
X2012742Y1520653D02*
X2014711D01*
X2012742Y1517413D02*
X2014659D01*
X2012648Y1521013D02*
X2014643D01*
X2012533Y1521373D02*
X2014560D01*
X2012396Y1521733D02*
X2014461D01*
X2012237Y1522093D02*
X2014345D01*
X2012052Y1522453D02*
X2014212D01*
X2011841Y1522813D02*
X2014061D01*
X2013406Y1517053D02*
X2013991D01*
X2011599Y1523173D02*
X2013892D01*
X2011324Y1523533D02*
X2013702D01*
X2011009Y1523893D02*
X2013490D01*
X2010647Y1524253D02*
X2013255D01*
X2010226Y1524613D02*
X2012994D01*
X2009727Y1524973D02*
X2012704D01*
X2009116Y1525333D02*
X2012382D01*
X2008310Y1525693D02*
X2012021D01*
X2006952Y1526053D02*
X2011615D01*
X2003863Y1526413D02*
X2011154D01*
X2008995Y1518853D02*
X2011108D01*
X2008984Y1519213D02*
X2011106D01*
X2008968Y1518493D02*
X2011086D01*
X2008936Y1519573D02*
X2011081D01*
X2008904Y1518133D02*
X2011041D01*
X2008849Y1519933D02*
X2011031D01*
X2008800Y1517773D02*
X2010971D01*
X2008721Y1520293D02*
X2010958D01*
X2008713Y1517413D02*
X2010875D01*
X2008545Y1520653D02*
X2010858D01*
X2009188Y1517053D02*
X2010753D01*
X2008313Y1521013D02*
X2010731D01*
X2004046Y1526773D02*
X2010622D01*
X2008010Y1521373D02*
X2010576D01*
X2007606Y1521733D02*
X2010388D01*
X2007024Y1522093D02*
X2010164D01*
X2004298Y1527133D02*
X2009990D01*
X2005640Y1522453D02*
X2009898D01*
X2004918Y1522813D02*
X2009583D01*
X2004486Y1523173D02*
X2009205D01*
X2004649Y1527493D02*
X2009204D01*
X2004182Y1523533D02*
X2008741D01*
X2003961Y1523893D02*
X2008145D01*
X2005166Y1527853D02*
X2008104D01*
X2003803Y1524253D02*
X2007282D01*
X2003737Y1526053D02*
X2006016D01*
X2003699Y1524613D02*
X2005932D01*
X2003660Y1525693D02*
X2005679D01*
X2003642Y1524973D02*
X2005653D01*
X2003629Y1525333D02*
X2005588D01*
X2019000Y1524577D02*
X2019573D01*
X2018855Y1524937D02*
X2019566D01*
X2019132Y1524217D02*
X2019564D01*
X2018698Y1525297D02*
X2019543D01*
X2018529Y1525657D02*
X2019505D01*
X2018346Y1526017D02*
X2019451D01*
X2018149Y1526377D02*
X2019380D01*
X2017938Y1526737D02*
X2019293D01*
X2017711Y1527097D02*
X2019188D01*
X2017468Y1527457D02*
X2019065D01*
X2017207Y1527817D02*
X2018924D01*
X2016928Y1528177D02*
X2018762D01*
X2016628Y1528537D02*
X2018580D01*
X2016306Y1528897D02*
X2018374D01*
X2015960Y1529257D02*
X2018144D01*
X2015586Y1529617D02*
X2017885D01*
X2015182Y1529977D02*
X2017597D01*
X2014743Y1530337D02*
X2017272D01*
X2014263Y1530697D02*
X2016907D01*
X2013734Y1531057D02*
X2016491D01*
X2013144Y1531417D02*
X2016011D01*
X2012476Y1531777D02*
X2015447D01*
X2011700Y1532137D02*
X2014757D01*
X2010758Y1532497D02*
X2013842D01*
X2010692Y1532857D02*
X2012176D01*
X2005716Y1519553D02*
X2007202D01*
X2005796Y1519913D02*
X2007123D01*
X2005823Y1519193D02*
X2007095D01*
X2006196Y1520273D02*
X2006722D01*
G74*
X0Y0D02*
M02*
