*
*
G04 PADS 9.5 Build Number: 522968 generated Gerber (RS-274-X) file*
G04 PC Version=2.1*
*
%IN "PCB_ESP-Moonlight_V2.0_"*%
*
%MOIN*%
*
%FSLAX35Y35*%
*
*
*
*
G04 PC Standard Apertures*
*
*
G04 Thermal Relief Aperture macro.*
%AMTER*
1,1,$1,0,0*
1,0,$1-$2,0,0*
21,0,$3,$4,0,0,45*
21,0,$3,$4,0,0,135*
%
*
*
G04 Annular Aperture macro.*
%AMANN*
1,1,$1,0,0*
1,0,$2,0,0*
%
*
*
G04 Odd Aperture macro.*
%AMODD*
1,1,$1,0,0*
1,0,$1-0.005,0,0*
%
*
*
G04 PC Custom Aperture Macros*
*
*
*
*
*
*
G04 PC Aperture Table*
*
%ADD010C,0.001*%
%ADD045C,0.02*%
%ADD109C,0.005*%
%ADD120C,0.01575*%
%ADD133C,0.02362*%
%ADD235R,0.01575X0.0189*%
%ADD287O,0.02362X0.07087*%
%ADD288R,0.01378X0.07087*%
%ADD289O,0.03937X0.07087*%
%ADD293R,0.19685X0.05906*%
*
*
*
*
G04 PC Circuitry*
G04 Layer Name PCB_ESP-Moonlight_V2.0_ - circuitry*
%LPD*%
*
*
G04 PC Custom Flashes*
G04 Layer Name PCB_ESP-Moonlight_V2.0_ - flashes*
%LPD*%
*
*
G04 PC Circuitry*
G04 Layer Name PCB_ESP-Moonlight_V2.0_ - circuitry*
%LPD*%
*
G54D10*
G54D45*
G01X1962004Y1431053D03*
Y1428553D03*
G54D109*
X1968504Y1422244D02*
Y1428205D01*
X1969754Y1429455*
X1965004D02*
X1965945Y1428514D01*
Y1422244*
X1965004Y1429455D02*
X1966754Y1431205D01*
Y1441303*
X1968754Y1443303*
X1968004Y1440053D02*
Y1431205D01*
X1969754Y1429455*
X1968004Y1440053D02*
X1968754Y1440803D01*
X1959004Y1431803D02*
X1962754D01*
Y1427700*
X1964004Y1426450*
Y1418803*
X1962607*
X1959004Y1422407*
Y1431803*
Y1426002D02*
X1964004D01*
X1959004Y1425552D02*
X1964004D01*
X1959004Y1425102D02*
X1964004D01*
X1959004Y1424652D02*
X1964004D01*
X1959004Y1424202D02*
X1964004D01*
X1959004Y1423752D02*
X1964004D01*
X1959004Y1423302D02*
X1964004D01*
X1959004Y1422852D02*
X1964004D01*
X1959009Y1422402D02*
X1964004D01*
X1959459Y1421952D02*
X1964004D01*
X1959909Y1421502D02*
X1964004D01*
X1960359Y1421052D02*
X1964004D01*
X1960809Y1420602D02*
X1964004D01*
X1961259Y1420152D02*
X1964004D01*
X1961709Y1419702D02*
X1964004D01*
X1962159Y1419252D02*
X1964004D01*
X1959004Y1426452D02*
X1964002D01*
X1959004Y1426902D02*
X1963552D01*
X1959004Y1427352D02*
X1963102D01*
X1959004Y1431402D02*
X1962754D01*
X1959004Y1430952D02*
X1962754D01*
X1959004Y1430502D02*
X1962754D01*
X1959004Y1430052D02*
X1962754D01*
X1959004Y1429602D02*
X1962754D01*
X1959004Y1429152D02*
X1962754D01*
X1959004Y1428702D02*
X1962754D01*
X1959004Y1428252D02*
X1962754D01*
X1959004Y1427802D02*
X1962754D01*
X1978309Y1417757D02*
G75*
G03X1978309I-1931J0D01*
G01X1983789Y1403543D02*
Y1477559D01*
G03X1983071Y1478278I-718J0*
G01X1979921*
X1978671Y1479528D02*
G03X1979921Y1478278I1250J-0D01*
G01X1978671Y1479528D02*
Y1486789D01*
G03X1978521Y1486939I-150J-0*
G01X1958487*
G03X1958337Y1486789I-0J-150*
G01Y1479528*
X1957087Y1478278D02*
G03X1958337Y1479528I-0J1250D01*
G01X1957087Y1478278D02*
X1953937D01*
G03X1953219Y1477559I0J-719*
G01Y1403543*
G03X1953937Y1402825I718J0*
G01X1983071*
G03X1983789Y1403543I-0J718*
G01X1978309Y1417757D02*
G03X1978309I-1931J0D01*
G01X1972502Y1425787D02*
Y1418701D01*
X1971752Y1417951D02*
G03X1972502Y1418701I-0J750D01*
G01X1971752Y1417951D02*
X1970374D01*
X1969882Y1418135D02*
G03X1970374Y1417951I492J566D01*
G01X1969882Y1418135D02*
G03X1969685I-99J-113D01*
G01X1969193Y1417951D02*
G03X1969685Y1418135I-0J750D01*
G01X1969193Y1417951D02*
X1967815D01*
X1967323Y1418135D02*
G03X1967815Y1417951I492J566D01*
G01X1967323Y1418135D02*
G03X1967126I-99J-113D01*
G01X1966634Y1417951D02*
G03X1967126Y1418135I-0J750D01*
G01X1966634Y1417951D02*
X1965256D01*
X1964850Y1418070D02*
G03X1965256Y1417951I406J631D01*
G01X1964850Y1418070D02*
G03X1964669Y1418056I-81J-126D01*
G01X1964004Y1417803D02*
G03X1964669Y1418056I-0J1000D01*
G01X1964004Y1417803D02*
X1962708D01*
G03X1962559Y1417661I0J-150*
G01X1960076Y1419607D02*
G03X1962559Y1417661I554J-1850D01*
G01X1960076Y1419607D02*
G03X1960139Y1419857I-43J144D01*
G01X1958297Y1421700*
X1958004Y1422407D02*
G03X1958297Y1421700I1000J-0D01*
G01X1958004Y1422407D02*
Y1431803D01*
X1959004Y1432803D02*
G03X1958004Y1431803I-0J-1000D01*
G01X1959004Y1432803D02*
X1962754D01*
X1963754Y1431803D02*
G03X1962754Y1432803I-1000J0D01*
G01X1963754Y1431803D02*
Y1431244D01*
G03X1963956Y1431103I150J-0*
G01X1964217Y1431150D02*
G03X1963956Y1431103I-0J-750D01*
G01X1964217Y1431150D02*
X1965222D01*
G03X1965329Y1431194I0J150*
G01X1965710Y1431575*
G03X1965754Y1431681I-106J106*
G01Y1441303*
X1966047Y1442010D02*
G03X1965754Y1441303I707J-707D01*
G01X1966047Y1442010D02*
X1967174Y1443137D01*
G03X1967217Y1443248I-106J106*
G01X1969787Y1442164D02*
G03X1967217Y1443249I-1033J1139D01*
G01X1969787Y1442164D02*
G03Y1441942I100J-111D01*
G01X1969118Y1439310D02*
G03X1969787Y1441942I-364J1493D01*
G01X1969118Y1439310D02*
G03X1969004Y1439164I36J-146D01*
G01Y1431681*
G03X1969048Y1431575I150J0*
G01X1969429Y1431194*
G03X1969535Y1431150I106J106*
G01X1970541*
X1971291Y1430400D02*
G03X1970541Y1431150I-750J-0D01*
G01X1971291Y1430400D02*
Y1428510D01*
X1970541Y1427760D02*
G03X1971291Y1428510I0J750D01*
G01X1970541Y1427760D02*
X1969654D01*
G03X1969504Y1427610I-0J-150*
G01Y1426560*
G03X1969577Y1426432I150J0*
G01X1969685Y1426353D02*
G03X1969577Y1426432I-492J-566D01*
G01X1969685Y1426353D02*
G03X1969882I98J114D01*
G01X1970374Y1426537D02*
G03X1969882Y1426353I0J-750D01*
G01X1970374Y1426537D02*
X1971752D01*
X1972502Y1425787D02*
G03X1971752Y1426537I-750J0D01*
G01X1953219Y1477452D02*
X1983789D01*
X1953219Y1477002D02*
X1983789D01*
X1953219Y1476552D02*
X1983789D01*
X1953219Y1476102D02*
X1983789D01*
X1953219Y1475652D02*
X1983789D01*
X1953219Y1475202D02*
X1983789D01*
X1953219Y1474752D02*
X1983789D01*
X1953219Y1474302D02*
X1983789D01*
X1953219Y1473852D02*
X1983789D01*
X1953219Y1473402D02*
X1983789D01*
X1953219Y1472952D02*
X1983789D01*
X1953219Y1472502D02*
X1983789D01*
X1953219Y1472052D02*
X1983789D01*
X1953219Y1471602D02*
X1983789D01*
X1953219Y1471152D02*
X1983789D01*
X1953219Y1470702D02*
X1983789D01*
X1953219Y1470252D02*
X1983789D01*
X1953219Y1469802D02*
X1983789D01*
X1953219Y1469352D02*
X1983789D01*
X1953219Y1468902D02*
X1983789D01*
X1953219Y1468452D02*
X1983789D01*
X1953219Y1468002D02*
X1983789D01*
X1953219Y1467552D02*
X1983789D01*
X1953219Y1467102D02*
X1983789D01*
X1953219Y1466652D02*
X1983789D01*
X1953219Y1466202D02*
X1983789D01*
X1953219Y1465752D02*
X1983789D01*
X1953219Y1465302D02*
X1983789D01*
X1953219Y1464852D02*
X1983789D01*
X1953219Y1464402D02*
X1983789D01*
X1953219Y1463952D02*
X1983789D01*
X1953219Y1463502D02*
X1983789D01*
X1953219Y1463052D02*
X1983789D01*
X1953219Y1462602D02*
X1983789D01*
X1953219Y1462152D02*
X1983789D01*
X1953219Y1461702D02*
X1983789D01*
X1953219Y1461252D02*
X1983789D01*
X1953219Y1460802D02*
X1983789D01*
X1953219Y1460352D02*
X1983789D01*
X1953219Y1459902D02*
X1983789D01*
X1953219Y1459452D02*
X1983789D01*
X1953219Y1459002D02*
X1983789D01*
X1953219Y1458552D02*
X1983789D01*
X1953219Y1458102D02*
X1983789D01*
X1953219Y1457652D02*
X1983789D01*
X1953219Y1457202D02*
X1983789D01*
X1953219Y1456752D02*
X1983789D01*
X1953219Y1456302D02*
X1983789D01*
X1953219Y1455852D02*
X1983789D01*
X1953219Y1455402D02*
X1983789D01*
X1953219Y1454952D02*
X1983789D01*
X1953219Y1454502D02*
X1983789D01*
X1953219Y1454052D02*
X1983789D01*
X1953219Y1453602D02*
X1983789D01*
X1953219Y1453152D02*
X1983789D01*
X1953219Y1452702D02*
X1983789D01*
X1953219Y1452252D02*
X1983789D01*
X1953219Y1451802D02*
X1983789D01*
X1953219Y1451352D02*
X1983789D01*
X1953219Y1450902D02*
X1983789D01*
X1953219Y1450452D02*
X1983789D01*
X1953219Y1450002D02*
X1983789D01*
X1953219Y1449552D02*
X1983789D01*
X1953219Y1449102D02*
X1983789D01*
X1953219Y1448652D02*
X1983789D01*
X1953219Y1448202D02*
X1983789D01*
X1953219Y1447752D02*
X1983789D01*
X1953219Y1447302D02*
X1983789D01*
X1953219Y1446852D02*
X1983789D01*
X1953219Y1446402D02*
X1983789D01*
X1953219Y1445952D02*
X1983789D01*
X1953219Y1445502D02*
X1983789D01*
X1953219Y1445052D02*
X1983789D01*
X1969577Y1444602D02*
X1983789D01*
X1970036Y1444152D02*
X1983789D01*
X1970239Y1443702D02*
X1983789D01*
X1970291Y1443252D02*
X1983789D01*
X1970207Y1442802D02*
X1983789D01*
X1969962Y1442352D02*
X1983789D01*
X1969829Y1441902D02*
X1983789D01*
X1970148Y1441452D02*
X1983789D01*
X1970278Y1441002D02*
X1983789D01*
X1970271Y1440552D02*
X1983789D01*
X1970122Y1440102D02*
X1983789D01*
X1969773Y1439652D02*
X1983789D01*
X1969009Y1439202D02*
X1983789D01*
X1969004Y1438752D02*
X1983789D01*
X1969004Y1438302D02*
X1983789D01*
X1969004Y1437852D02*
X1983789D01*
X1969004Y1437402D02*
X1983789D01*
X1969004Y1436952D02*
X1983789D01*
X1969004Y1436502D02*
X1983789D01*
X1969004Y1436052D02*
X1983789D01*
X1969004Y1435602D02*
X1983789D01*
X1969004Y1435152D02*
X1983789D01*
X1969004Y1434702D02*
X1983789D01*
X1969004Y1434252D02*
X1983789D01*
X1969004Y1433802D02*
X1983789D01*
X1969004Y1433352D02*
X1983789D01*
X1969004Y1432902D02*
X1983789D01*
X1969004Y1432452D02*
X1983789D01*
X1969004Y1432002D02*
X1983789D01*
X1969071Y1431552D02*
X1983789D01*
X1970805Y1431102D02*
X1983789D01*
X1971248Y1430652D02*
X1983789D01*
X1971291Y1430202D02*
X1983789D01*
X1971291Y1429752D02*
X1983789D01*
X1971291Y1429302D02*
X1983789D01*
X1971291Y1428852D02*
X1983789D01*
X1971284Y1428402D02*
X1983789D01*
X1971042Y1427952D02*
X1983789D01*
X1969504Y1427502D02*
X1983789D01*
X1969504Y1427052D02*
X1983789D01*
X1969504Y1426602D02*
X1983789D01*
X1972407Y1426152D02*
X1983789D01*
X1972502Y1425702D02*
X1983789D01*
X1972502Y1425252D02*
X1983789D01*
X1972502Y1424802D02*
X1983789D01*
X1972502Y1424352D02*
X1983789D01*
X1972502Y1423902D02*
X1983789D01*
X1972502Y1423452D02*
X1983789D01*
X1972502Y1423002D02*
X1983789D01*
X1972502Y1422552D02*
X1983789D01*
X1972502Y1422102D02*
X1983789D01*
X1972502Y1421652D02*
X1983789D01*
X1972502Y1421202D02*
X1983789D01*
X1972502Y1420752D02*
X1983789D01*
X1972502Y1420302D02*
X1983789D01*
X1972502Y1419852D02*
X1983789D01*
X1977390Y1419402D02*
X1983789D01*
X1977895Y1418952D02*
X1983789D01*
X1978160Y1418502D02*
X1983789D01*
X1978286Y1418052D02*
X1983789D01*
X1978303Y1417602D02*
X1983789D01*
X1978212Y1417152D02*
X1983789D01*
X1977995Y1416702D02*
X1983789D01*
X1977588Y1416252D02*
X1983789D01*
X1953219Y1415802D02*
X1983789D01*
X1953219Y1415352D02*
X1983789D01*
X1953219Y1414902D02*
X1983789D01*
X1953219Y1414452D02*
X1983789D01*
X1953219Y1414002D02*
X1983789D01*
X1953219Y1413552D02*
X1983789D01*
X1953219Y1413102D02*
X1983789D01*
X1953219Y1412652D02*
X1983789D01*
X1953219Y1412202D02*
X1983789D01*
X1953219Y1411752D02*
X1983789D01*
X1953219Y1411302D02*
X1983789D01*
X1953219Y1410852D02*
X1983789D01*
X1953219Y1410402D02*
X1983789D01*
X1953219Y1409952D02*
X1983789D01*
X1953219Y1409502D02*
X1983789D01*
X1953219Y1409052D02*
X1983789D01*
X1953219Y1408602D02*
X1983789D01*
X1953219Y1408152D02*
X1983789D01*
X1953219Y1407702D02*
X1983789D01*
X1953219Y1407252D02*
X1983789D01*
X1953219Y1406802D02*
X1983789D01*
X1953219Y1406352D02*
X1983789D01*
X1953219Y1405902D02*
X1983789D01*
X1953219Y1405452D02*
X1983789D01*
X1953219Y1405002D02*
X1983789D01*
X1953219Y1404552D02*
X1983789D01*
X1953219Y1404102D02*
X1983789D01*
X1953219Y1403652D02*
X1983789D01*
X1953305Y1403202D02*
X1983703D01*
X1953306Y1477902D02*
X1983702D01*
X1957511Y1478352D02*
X1979497D01*
X1958104Y1478802D02*
X1978903D01*
X1958306Y1479252D02*
X1978702D01*
X1958337Y1486452D02*
X1978671D01*
X1958337Y1486002D02*
X1978671D01*
X1958337Y1485552D02*
X1978671D01*
X1958337Y1485102D02*
X1978671D01*
X1958337Y1484652D02*
X1978671D01*
X1958337Y1484202D02*
X1978671D01*
X1958337Y1483752D02*
X1978671D01*
X1958337Y1483302D02*
X1978671D01*
X1958337Y1482852D02*
X1978671D01*
X1958337Y1482402D02*
X1978671D01*
X1958337Y1481952D02*
X1978671D01*
X1958337Y1481502D02*
X1978671D01*
X1958337Y1481052D02*
X1978671D01*
X1958337Y1480602D02*
X1978671D01*
X1958337Y1480152D02*
X1978671D01*
X1958337Y1479702D02*
X1978671D01*
X1958388Y1486902D02*
X1978620D01*
X1972502Y1419402D02*
X1975366D01*
X1961840Y1416252D02*
X1975168D01*
X1972502Y1418952D02*
X1974861D01*
X1962247Y1416702D02*
X1974761D01*
X1972475Y1418502D02*
X1974596D01*
X1962464Y1417152D02*
X1974544D01*
X1972128Y1418052D02*
X1974469D01*
X1962555Y1417602D02*
X1974453D01*
X1969569Y1418052D02*
X1969998D01*
X1953219Y1444602D02*
X1967931D01*
X1953219Y1444152D02*
X1967472D01*
X1967010Y1418052D02*
X1967439D01*
X1953219Y1443702D02*
X1967269D01*
X1953219Y1443252D02*
X1967217D01*
X1953219Y1442802D02*
X1966838D01*
X1953219Y1442352D02*
X1966388D01*
X1953219Y1441902D02*
X1965953D01*
X1953219Y1441452D02*
X1965765D01*
X1953219Y1441002D02*
X1965754D01*
X1953219Y1440552D02*
X1965754D01*
X1953219Y1440102D02*
X1965754D01*
X1953219Y1439652D02*
X1965754D01*
X1953219Y1439202D02*
X1965754D01*
X1953219Y1438752D02*
X1965754D01*
X1953219Y1438302D02*
X1965754D01*
X1953219Y1437852D02*
X1965754D01*
X1953219Y1437402D02*
X1965754D01*
X1953219Y1436952D02*
X1965754D01*
X1953219Y1436502D02*
X1965754D01*
X1953219Y1436052D02*
X1965754D01*
X1953219Y1435602D02*
X1965754D01*
X1953219Y1435152D02*
X1965754D01*
X1953219Y1434702D02*
X1965754D01*
X1953219Y1434252D02*
X1965754D01*
X1953219Y1433802D02*
X1965754D01*
X1953219Y1433352D02*
X1965754D01*
X1953219Y1432902D02*
X1965754D01*
X1963515Y1432452D02*
X1965754D01*
X1963734Y1432002D02*
X1965754D01*
X1963754Y1431552D02*
X1965687D01*
X1964664Y1418052D02*
X1964880D01*
X1963855Y1431102D02*
X1963953D01*
X1953219Y1419852D02*
X1960144D01*
X1953219Y1420302D02*
X1959695D01*
X1953219Y1419402D02*
X1959618D01*
X1953219Y1416252D02*
X1959420D01*
X1953219Y1420752D02*
X1959245D01*
X1953219Y1418952D02*
X1959113D01*
X1953219Y1416702D02*
X1959013D01*
X1953219Y1418502D02*
X1958848D01*
X1953219Y1417152D02*
X1958796D01*
X1953219Y1421202D02*
X1958795D01*
X1953219Y1418052D02*
X1958721D01*
X1953219Y1417602D02*
X1958705D01*
X1953219Y1421652D02*
X1958345D01*
X1953219Y1432452D02*
X1958243D01*
X1953219Y1422102D02*
X1958052D01*
X1953219Y1432002D02*
X1958024D01*
X1953219Y1431552D02*
X1958004D01*
X1953219Y1431102D02*
X1958004D01*
X1953219Y1430652D02*
X1958004D01*
X1953219Y1430202D02*
X1958004D01*
X1953219Y1429752D02*
X1958004D01*
X1953219Y1429302D02*
X1958004D01*
X1953219Y1428852D02*
X1958004D01*
X1953219Y1428402D02*
X1958004D01*
X1953219Y1427952D02*
X1958004D01*
X1953219Y1427502D02*
X1958004D01*
X1953219Y1427052D02*
X1958004D01*
X1953219Y1426602D02*
X1958004D01*
X1953219Y1426152D02*
X1958004D01*
X1953219Y1425702D02*
X1958004D01*
X1953219Y1425252D02*
X1958004D01*
X1953219Y1424802D02*
X1958004D01*
X1953219Y1424352D02*
X1958004D01*
X1953219Y1423902D02*
X1958004D01*
X1953219Y1423452D02*
X1958004D01*
X1953219Y1423002D02*
X1958004D01*
X1953219Y1422552D02*
X1958004D01*
X1957087Y1488189D02*
X1979921D01*
Y1479528*
X1983071*
X1985039Y1477559D02*
G03X1983071Y1479528I-1968J0D01*
G01X1985039Y1477559D02*
Y1403543D01*
X1983071Y1401575D02*
G03X1985039Y1403543I-0J1968D01*
G01X1983071Y1401575D02*
X1953937D01*
X1951969Y1403543D02*
G03X1953937Y1401575I1968J0D01*
G01X1951969Y1403543D02*
Y1477559D01*
X1953937Y1479528D02*
G03X1951969Y1477559I0J-1969D01*
G01X1953937Y1479528D02*
X1957087D01*
Y1488189*
G54D120*
X1955254Y1403553D03*
X1964504D03*
X1981504D03*
X1974004D03*
X1954504Y1414303D03*
Y1418803D03*
X1958004Y1420303D03*
X1962254Y1410803D03*
X1983004Y1414553D03*
X1975254Y1410803D03*
X1973254Y1416803D03*
X1975254Y1427053D03*
X1978254Y1423303D03*
X1983004Y1418303D03*
X1964004Y1445053D03*
X1954004Y1440053D03*
X1954254Y1429053D03*
X1965004Y1437053D03*
X1969754D03*
X1959754D03*
X1968754Y1440803D03*
Y1443303D03*
X1971004Y1442053D03*
X1972504Y1447053D03*
X1983004Y1443053D03*
Y1433053D03*
X1961754Y1467053D03*
X1954004Y1460303D03*
X1964004Y1457303D03*
X1959254Y1467053D03*
X1954004Y1450303D03*
X1983004Y1452553D03*
X1972504Y1457303D03*
Y1465303D03*
X1983004Y1461053D03*
X1968504Y1484053D03*
X1960004D03*
X1954004Y1470053D03*
Y1476553D03*
X1977004Y1484053D03*
X1981004Y1467553D03*
X1982754Y1476553D03*
G54D133*
X1960630Y1417757D03*
X1976378D03*
G54D235*
X1969754Y1429455D03*
Y1434652D03*
X1965004Y1429455D03*
Y1434652D03*
X1959754Y1429455D03*
Y1434652D03*
G54D287*
X1962992Y1422244D03*
X1974016D03*
G54D288*
X1965945D03*
X1968504D03*
X1971063D03*
G54D289*
X1954429Y1423819D03*
X1982579D03*
X1954429Y1409252D03*
X1982579D03*
G54D293*
X1968504Y1476378D03*
G74*
X0Y0D02*
M02*
