*
*
G04 PADS 9.5 Build Number: 522968 generated Gerber (RS-274-X) file*
G04 PC Version=2.1*
*
%IN "PCB_ESP-Moonlight_V2.0_"*%
*
%MOIN*%
*
%FSLAX35Y35*%
*
*
*
*
G04 PC Standard Apertures*
*
*
G04 Thermal Relief Aperture macro.*
%AMTER*
1,1,$1,0,0*
1,0,$1-$2,0,0*
21,0,$3,$4,0,0,45*
21,0,$3,$4,0,0,135*
%
*
*
G04 Annular Aperture macro.*
%AMANN*
1,1,$1,0,0*
1,0,$2,0,0*
%
*
*
G04 Odd Aperture macro.*
%AMODD*
1,1,$1,0,0*
1,0,$1-0.005,0,0*
%
*
*
G04 PC Custom Aperture Macros*
*
*
*
*
*
*
G04 PC Aperture Table*
*
%ADD010C,0.001*%
%ADD109C,0.005*%
%ADD231C,0.004*%
*
*
*
*
G04 PC Circuitry*
G04 Layer Name PCB_ESP-Moonlight_V2.0_ - circuitry*
%LPD*%
*
*
G04 PC Custom Flashes*
G04 Layer Name PCB_ESP-Moonlight_V2.0_ - flashes*
%LPD*%
*
*
G04 PC Circuitry*
G04 Layer Name PCB_ESP-Moonlight_V2.0_ - circuitry*
%LPD*%
*
G54D10*
G54D109*
G01X1970465Y1409303D02*
X1967887D01*
X1967371Y1409440*
X1967027Y1409712*
X1966855Y1410121*
X1966855D02*
Y1410394D01*
X1966855D02*
X1967027Y1410803D01*
X1967371Y1411076*
X1967887Y1411212*
X1970465*
X1969949Y1414349D02*
X1970293Y1414076D01*
X1970465Y1413667*
Y1413121*
X1970293Y1412712*
X1969949Y1412440*
X1969606*
X1969606D02*
X1969262Y1412576D01*
X1969090Y1412712*
X1968918Y1412985*
X1968574Y1413803*
X1968402Y1414076*
X1968230Y1414212*
X1968230D02*
X1967887Y1414349D01*
X1967371*
X1967027Y1414076*
X1966855Y1413667*
X1966855D02*
Y1413121D01*
X1966855D02*
X1967027Y1412712D01*
X1967371Y1412440*
X1970465Y1415576D02*
X1966855D01*
X1970465D02*
Y1416803D01*
X1970293Y1417212*
X1970121Y1417349*
X1969777Y1417485*
X1969434*
X1969090Y1417349*
X1968918Y1417212*
X1968746Y1416803*
Y1415576D02*
Y1416803D01*
X1968574Y1417212*
X1968402Y1417349*
X1968059Y1417485*
X1967543*
X1967199Y1417349*
X1967027Y1417212*
X1966855Y1416803*
X1966855D02*
Y1415576D01*
X1971152Y1422803D02*
X1970809Y1422530D01*
X1970293Y1422258*
X1969606Y1421985*
X1969606D02*
X1968746Y1421849D01*
X1968059*
X1967199Y1421985*
X1966512Y1422258*
X1965996Y1422530*
X1965652Y1422803*
X1970465Y1424030D02*
X1966855D01*
X1970465D02*
X1966855Y1425940D01*
X1970465D02*
X1966855D01*
X1969262Y1427849D02*
X1969090Y1427576D01*
X1968746Y1427303*
X1968230Y1427167*
X1968230D02*
X1967887D01*
X1967371Y1427303*
X1967027Y1427576*
X1966855Y1427849*
X1966855D02*
Y1428258D01*
X1966855D02*
X1967027Y1428530D01*
X1967371Y1428803*
X1967887Y1428940*
X1968230*
X1968230D02*
X1968746Y1428803D01*
X1969090Y1428530*
X1969262Y1428258*
Y1427849*
Y1430167D02*
X1966855D01*
X1968230D02*
X1968746Y1430303D01*
X1969090Y1430576*
X1969262Y1430849*
Y1431258*
Y1432485D02*
X1966855D01*
X1968574D02*
X1969090Y1432894D01*
X1969262Y1433167*
Y1433576*
X1969090Y1433849*
X1968574Y1433985*
X1966855*
X1968574D02*
X1969090Y1434394D01*
X1969262Y1434667*
Y1435076*
X1969090Y1435349*
X1968574Y1435485*
X1966855*
X1969262Y1438349D02*
X1966855D01*
X1968746D02*
X1969090Y1438076D01*
X1969262Y1437803*
Y1437394*
X1969090Y1437121*
X1968746Y1436849*
X1968230Y1436712*
X1968230D02*
X1967887D01*
X1967371Y1436849*
X1967027Y1437121*
X1966855Y1437394*
X1966855D02*
Y1437803D01*
X1966855D02*
X1967027Y1438076D01*
X1967371Y1438349*
X1970465Y1439576D02*
X1966855D01*
X1971152Y1440803D02*
X1970809Y1441076D01*
X1970293Y1441349*
X1969606Y1441621*
X1969606D02*
X1968746Y1441758D01*
X1968059*
X1967199Y1441621*
X1966512Y1441349*
X1965996Y1441076*
X1965652Y1440803*
X1957087Y1488189D02*
X1979921D01*
Y1479528*
X1983071*
X1985039Y1477559D02*
G75*
G03X1983071Y1479528I-1968J0D01*
G01X1985039Y1477559D02*
Y1403543D01*
X1983071Y1401575D02*
G03X1985039Y1403543I-0J1968D01*
G01X1983071Y1401575D02*
X1953937D01*
X1951969Y1403543D02*
G03X1953937Y1401575I1968J0D01*
G01X1951969Y1403543D02*
Y1477559D01*
X1953937Y1479528D02*
G03X1951969Y1477559I0J-1969D01*
G01X1953937Y1479528D02*
X1957087D01*
Y1488189*
G54D231*
X1960940Y1465553D02*
X1961031Y1465778D01*
X1961213Y1466003*
X1961395Y1466116*
X1961758*
X1961940Y1466003*
X1962122Y1465778*
X1962213Y1465553*
X1962304Y1465216*
Y1464653*
X1962213Y1464316*
X1962122Y1464091*
X1961940Y1463866*
X1961758Y1463753*
X1961395*
X1961213Y1463866*
X1961031Y1464091*
X1960940Y1464316*
Y1464653*
X1961395D02*
X1960940D01*
X1960122Y1466116D02*
Y1463753D01*
Y1466116D02*
X1958849Y1463753D01*
Y1466116D02*
Y1463753D01*
X1958031Y1466116D02*
Y1463753D01*
Y1466116D02*
X1957395D01*
X1957122Y1466003*
X1956940Y1465778*
X1956849Y1465553*
X1956758Y1465216*
Y1464653*
X1956849Y1464316*
X1956940Y1464091*
X1957122Y1463866*
X1957395Y1463753*
X1958031*
X1967304Y1466116D02*
Y1463753D01*
Y1466116D02*
X1966668D01*
X1966395Y1466003*
X1966213Y1465778*
X1966122Y1465553*
X1966031Y1465216*
Y1464653*
X1966122Y1464316*
X1966213Y1464091*
X1966395Y1463866*
X1966668Y1463753*
X1967304*
X1964395Y1465778D02*
Y1463753D01*
X1965213Y1464766D02*
X1963577D01*
X1973054Y1466116D02*
Y1463753D01*
Y1466116D02*
X1972418D01*
X1972145Y1466003*
X1971963Y1465778*
X1971872Y1465553*
X1971781Y1465216*
Y1464653*
X1971872Y1464316*
X1971963Y1464091*
X1972145Y1463866*
X1972418Y1463753*
X1973054*
X1970963Y1464766D02*
X1969327D01*
X1980804Y1466116D02*
X1980077Y1463753D01*
X1979349Y1466116D02*
X1980077Y1463753D01*
X1978531Y1466116D02*
Y1463753D01*
Y1466116D02*
X1977713D01*
X1977440Y1466003*
X1977349Y1465891*
X1977258Y1465666*
Y1465441*
X1977349Y1465216*
X1977440Y1465103*
X1977713Y1464991*
X1978531D02*
X1977713D01*
X1977440Y1464878*
X1977349Y1464766*
X1977258Y1464541*
Y1464203*
X1977349Y1463978*
X1977440Y1463866*
X1977713Y1463753*
X1978531*
X1976440Y1466116D02*
Y1464428D01*
X1976349Y1464091*
X1976168Y1463866*
X1975895Y1463753*
X1975713*
X1975440Y1463866*
X1975258Y1464091*
X1975168Y1464428*
Y1466116*
G74*
X0Y0D02*
M02*
