*
*
G04 PADS 9.5 Build Number: 522968 generated Gerber (RS-274-X) file*
G04 PC Version=2.1*
*
%IN "PCB_ESP-Moonlight_V2.0_"*%
*
%MOIN*%
*
%FSLAX35Y35*%
*
*
*
*
G04 PC Standard Apertures*
*
*
G04 Thermal Relief Aperture macro.*
%AMTER*
1,1,$1,0,0*
1,0,$1-$2,0,0*
21,0,$3,$4,0,0,45*
21,0,$3,$4,0,0,135*
%
*
*
G04 Annular Aperture macro.*
%AMANN*
1,1,$1,0,0*
1,0,$2,0,0*
%
*
*
G04 Odd Aperture macro.*
%AMODD*
1,1,$1,0,0*
1,0,$1-0.005,0,0*
%
*
*
G04 PC Custom Aperture Macros*
*
*
*
*
*
*
G04 PC Aperture Table*
*
%ADD010C,0.001*%
%ADD045C,0.02*%
%ADD109C,0.005*%
%ADD120C,0.01575*%
%ADD132C,0.04*%
%ADD133C,0.02362*%
%ADD238O,0.05906X0.07087*%
%ADD304R,0.02756X0.11811*%
%ADD305R,0.04724X0.11811*%
*
*
*
*
G04 PC Circuitry*
G04 Layer Name PCB_ESP-Moonlight_V2.0_ - circuitry*
%LPD*%
*
*
G04 PC Custom Flashes*
G04 Layer Name PCB_ESP-Moonlight_V2.0_ - flashes*
%LPD*%
*
*
G04 PC Circuitry*
G04 Layer Name PCB_ESP-Moonlight_V2.0_ - circuitry*
%LPD*%
*
G54D10*
G54D45*
G01X1962004Y1431053D03*
Y1428553D03*
G54D109*
X1968754Y1443303D02*
Y1464803D01*
X1970866Y1466915*
Y1474409*
X1966142D02*
Y1443415D01*
X1968754Y1440803*
X1960754Y1431803D02*
X1963254D01*
Y1427303*
X1960754*
Y1431803*
Y1431802D02*
X1963254D01*
X1960754Y1431352D02*
X1963254D01*
X1960754Y1430902D02*
X1963254D01*
X1960754Y1430452D02*
X1963254D01*
X1960754Y1430002D02*
X1963254D01*
X1960754Y1429552D02*
X1963254D01*
X1960754Y1429102D02*
X1963254D01*
X1960754Y1428652D02*
X1963254D01*
X1960754Y1428202D02*
X1963254D01*
X1960754Y1427752D02*
X1963254D01*
X1978309Y1417757D02*
G75*
G03X1978309I-1931J0D01*
G01X1962561D02*
G03X1962561I-1931J0D01*
G01X1983789Y1403543D02*
Y1477559D01*
G03X1983071Y1478278I-718J0*
G01X1979921*
X1979846Y1478280D02*
G03X1979921Y1478278I75J1248D01*
G01X1979846Y1478280D02*
G03X1979687Y1478130I-9J-150D01*
G01Y1468504*
X1979385Y1467903D02*
G03X1979687Y1468504I-448J601D01*
G01X1979385Y1467903D02*
G03X1979325Y1467782I90J-121D01*
G01Y1433874*
X1978519Y1431929D02*
G03X1979325Y1433874I-1944J1945D01*
G01X1978519Y1431929D02*
X1974698Y1428109D01*
X1972754Y1427303D02*
G03X1974698Y1428109I-0J2750D01*
G01X1972754Y1427303D02*
X1964394D01*
G03X1964245Y1427173I0J-150*
G01X1963254Y1426303D02*
G03X1964245Y1427173I-0J1000D01*
G01X1963254Y1426303D02*
X1960754D01*
X1959754Y1427303D02*
G03X1960754Y1426303I1000J0D01*
G01X1959754Y1427303D02*
Y1431803D01*
X1960754Y1432803D02*
G03X1959754Y1431803I-0J-1000D01*
G01X1960754Y1432803D02*
X1963254D01*
X1971553*
G03X1971659Y1432847I-0J150*
G01X1973781Y1434969*
G03X1973825Y1435075I-106J106*
G01Y1467782*
G03X1973764Y1467903I-150J0*
G01X1973463Y1468504D02*
G03X1973764Y1467903I750J-0D01*
G01X1973463Y1468504D02*
Y1480315D01*
X1974213Y1481065D02*
G03X1973463Y1480315I-0J-750D01*
G01X1974213Y1481065D02*
X1978521D01*
G03X1978671Y1481215I0J150*
G01Y1486789*
G03X1978521Y1486939I-150J-0*
G01X1958487*
G03X1958337Y1486789I-0J-150*
G01Y1479528*
X1957087Y1478278D02*
G03X1958337Y1479528I-0J1250D01*
G01X1957087Y1478278D02*
X1953937D01*
G03X1953219Y1477559I0J-719*
G01Y1403543*
G03X1953937Y1402825I718J0*
G01X1983071*
G03X1983789Y1403543I-0J718*
G01X1978309Y1417757D02*
G03X1978309I-1931J0D01*
G01X1962561D02*
G03X1962561I-1931J0D01*
G01X1972994Y1480315D02*
Y1468504D01*
X1972244Y1467754D02*
G03X1972994Y1468504I0J750D01*
G01X1972244Y1467754D02*
X1972016D01*
G03X1971866Y1467604I0J-150*
G01Y1466915*
X1971573Y1466208D02*
G03X1971866Y1466915I-707J707D01*
G01X1971573Y1466208D02*
X1969798Y1464433D01*
G03X1969754Y1464327I106J-106*
G01Y1444538*
G03X1969802Y1444428I150J-0*
G01X1969787Y1442164D02*
G03X1969802Y1444428I-1033J1139D01*
G01X1969787Y1442164D02*
G03Y1441942I100J-111D01*
G01X1967217Y1440858D02*
G03X1969787Y1441942I1537J-55D01*
G01X1967217Y1440858D02*
G03X1967174Y1440969I-149J5D01*
G01X1965435Y1442708*
X1965142Y1443415D02*
G03X1965435Y1442708I1000J0D01*
G01X1965142Y1443415D02*
Y1467604D01*
G03X1964992Y1467754I-150J-0*
G01X1964764*
X1964014Y1468504D02*
G03X1964764Y1467754I750J-0D01*
G01X1964014Y1468504D02*
Y1480315D01*
X1964764Y1481065D02*
G03X1964014Y1480315I-0J-750D01*
G01X1964764Y1481065D02*
X1967520D01*
X1968270Y1480315D02*
G03X1967520Y1481065I-750J-0D01*
G01X1968270Y1480315D02*
Y1468504D01*
X1967520Y1467754D02*
G03X1968270Y1468504I-0J750D01*
G01X1967520Y1467754D02*
X1967292D01*
G03X1967142Y1467604I-0J-150*
G01Y1444145*
G03X1967422Y1444071I150J0*
G01X1967706Y1444428D02*
G03X1967422Y1444071I1048J-1125D01*
G01X1967706Y1444428D02*
G03X1967754Y1444538I-102J110D01*
G01Y1464803*
X1968047Y1465510D02*
G03X1967754Y1464803I707J-707D01*
G01X1968047Y1465510D02*
X1969822Y1467286D01*
G03X1969866Y1467392I-106J106*
G01Y1467604*
G03X1969716Y1467754I-150J-0*
G01X1969488*
X1968738Y1468504D02*
G03X1969488Y1467754I750J-0D01*
G01X1968738Y1468504D02*
Y1480315D01*
X1969488Y1481065D02*
G03X1968738Y1480315I0J-750D01*
G01X1969488Y1481065D02*
X1972244D01*
X1972994Y1480315D02*
G03X1972244Y1481065I-750J-0D01*
G01X1979687Y1477452D02*
X1983789D01*
X1979687Y1477002D02*
X1983789D01*
X1979687Y1476552D02*
X1983789D01*
X1979687Y1476102D02*
X1983789D01*
X1979687Y1475652D02*
X1983789D01*
X1979687Y1475202D02*
X1983789D01*
X1979687Y1474752D02*
X1983789D01*
X1979687Y1474302D02*
X1983789D01*
X1979687Y1473852D02*
X1983789D01*
X1979687Y1473402D02*
X1983789D01*
X1979687Y1472952D02*
X1983789D01*
X1979687Y1472502D02*
X1983789D01*
X1979687Y1472052D02*
X1983789D01*
X1979687Y1471602D02*
X1983789D01*
X1979687Y1471152D02*
X1983789D01*
X1979687Y1470702D02*
X1983789D01*
X1979687Y1470252D02*
X1983789D01*
X1979687Y1469802D02*
X1983789D01*
X1979687Y1469352D02*
X1983789D01*
X1979687Y1468902D02*
X1983789D01*
X1979685Y1468452D02*
X1983789D01*
X1979494Y1468002D02*
X1983789D01*
X1979325Y1467552D02*
X1983789D01*
X1979325Y1467102D02*
X1983789D01*
X1979325Y1466652D02*
X1983789D01*
X1979325Y1466202D02*
X1983789D01*
X1979325Y1465752D02*
X1983789D01*
X1979325Y1465302D02*
X1983789D01*
X1979325Y1464852D02*
X1983789D01*
X1979325Y1464402D02*
X1983789D01*
X1979325Y1463952D02*
X1983789D01*
X1979325Y1463502D02*
X1983789D01*
X1979325Y1463052D02*
X1983789D01*
X1979325Y1462602D02*
X1983789D01*
X1979325Y1462152D02*
X1983789D01*
X1979325Y1461702D02*
X1983789D01*
X1979325Y1461252D02*
X1983789D01*
X1979325Y1460802D02*
X1983789D01*
X1979325Y1460352D02*
X1983789D01*
X1979325Y1459902D02*
X1983789D01*
X1979325Y1459452D02*
X1983789D01*
X1979325Y1459002D02*
X1983789D01*
X1979325Y1458552D02*
X1983789D01*
X1979325Y1458102D02*
X1983789D01*
X1979325Y1457652D02*
X1983789D01*
X1979325Y1457202D02*
X1983789D01*
X1979325Y1456752D02*
X1983789D01*
X1979325Y1456302D02*
X1983789D01*
X1979325Y1455852D02*
X1983789D01*
X1979325Y1455402D02*
X1983789D01*
X1979325Y1454952D02*
X1983789D01*
X1979325Y1454502D02*
X1983789D01*
X1979325Y1454052D02*
X1983789D01*
X1979325Y1453602D02*
X1983789D01*
X1979325Y1453152D02*
X1983789D01*
X1979325Y1452702D02*
X1983789D01*
X1979325Y1452252D02*
X1983789D01*
X1979325Y1451802D02*
X1983789D01*
X1979325Y1451352D02*
X1983789D01*
X1979325Y1450902D02*
X1983789D01*
X1979325Y1450452D02*
X1983789D01*
X1979325Y1450002D02*
X1983789D01*
X1979325Y1449552D02*
X1983789D01*
X1979325Y1449102D02*
X1983789D01*
X1979325Y1448652D02*
X1983789D01*
X1979325Y1448202D02*
X1983789D01*
X1979325Y1447752D02*
X1983789D01*
X1979325Y1447302D02*
X1983789D01*
X1979325Y1446852D02*
X1983789D01*
X1979325Y1446402D02*
X1983789D01*
X1979325Y1445952D02*
X1983789D01*
X1979325Y1445502D02*
X1983789D01*
X1979325Y1445052D02*
X1983789D01*
X1979325Y1444602D02*
X1983789D01*
X1979325Y1444152D02*
X1983789D01*
X1979325Y1443702D02*
X1983789D01*
X1979325Y1443252D02*
X1983789D01*
X1979325Y1442802D02*
X1983789D01*
X1979325Y1442352D02*
X1983789D01*
X1979325Y1441902D02*
X1983789D01*
X1979325Y1441452D02*
X1983789D01*
X1979325Y1441002D02*
X1983789D01*
X1979325Y1440552D02*
X1983789D01*
X1979325Y1440102D02*
X1983789D01*
X1979325Y1439652D02*
X1983789D01*
X1979325Y1439202D02*
X1983789D01*
X1979325Y1438752D02*
X1983789D01*
X1979325Y1438302D02*
X1983789D01*
X1979325Y1437852D02*
X1983789D01*
X1979325Y1437402D02*
X1983789D01*
X1979325Y1436952D02*
X1983789D01*
X1979325Y1436502D02*
X1983789D01*
X1979325Y1436052D02*
X1983789D01*
X1979325Y1435602D02*
X1983789D01*
X1979325Y1435152D02*
X1983789D01*
X1979325Y1434702D02*
X1983789D01*
X1979325Y1434252D02*
X1983789D01*
X1979324Y1433802D02*
X1983789D01*
X1979275Y1433352D02*
X1983789D01*
X1979147Y1432902D02*
X1983789D01*
X1978929Y1432452D02*
X1983789D01*
X1978589Y1432002D02*
X1983789D01*
X1978142Y1431552D02*
X1983789D01*
X1977692Y1431102D02*
X1983789D01*
X1977242Y1430652D02*
X1983789D01*
X1976792Y1430202D02*
X1983789D01*
X1976342Y1429752D02*
X1983789D01*
X1975892Y1429302D02*
X1983789D01*
X1975442Y1428852D02*
X1983789D01*
X1974992Y1428402D02*
X1983789D01*
X1974528Y1427952D02*
X1983789D01*
X1973780Y1427502D02*
X1983789D01*
X1964222Y1427052D02*
X1983789D01*
X1963967Y1426602D02*
X1983789D01*
X1953219Y1426152D02*
X1983789D01*
X1953219Y1425702D02*
X1983789D01*
X1953219Y1425252D02*
X1983789D01*
X1953219Y1424802D02*
X1983789D01*
X1953219Y1424352D02*
X1983789D01*
X1953219Y1423902D02*
X1983789D01*
X1953219Y1423452D02*
X1983789D01*
X1953219Y1423002D02*
X1983789D01*
X1953219Y1422552D02*
X1983789D01*
X1953219Y1422102D02*
X1983789D01*
X1953219Y1421652D02*
X1983789D01*
X1953219Y1421202D02*
X1983789D01*
X1953219Y1420752D02*
X1983789D01*
X1953219Y1420302D02*
X1983789D01*
X1953219Y1419852D02*
X1983789D01*
X1977390Y1419402D02*
X1983789D01*
X1977895Y1418952D02*
X1983789D01*
X1978160Y1418502D02*
X1983789D01*
X1978286Y1418052D02*
X1983789D01*
X1978303Y1417602D02*
X1983789D01*
X1978212Y1417152D02*
X1983789D01*
X1977995Y1416702D02*
X1983789D01*
X1977588Y1416252D02*
X1983789D01*
X1953219Y1415802D02*
X1983789D01*
X1953219Y1415352D02*
X1983789D01*
X1953219Y1414902D02*
X1983789D01*
X1953219Y1414452D02*
X1983789D01*
X1953219Y1414002D02*
X1983789D01*
X1953219Y1413552D02*
X1983789D01*
X1953219Y1413102D02*
X1983789D01*
X1953219Y1412652D02*
X1983789D01*
X1953219Y1412202D02*
X1983789D01*
X1953219Y1411752D02*
X1983789D01*
X1953219Y1411302D02*
X1983789D01*
X1953219Y1410852D02*
X1983789D01*
X1953219Y1410402D02*
X1983789D01*
X1953219Y1409952D02*
X1983789D01*
X1953219Y1409502D02*
X1983789D01*
X1953219Y1409052D02*
X1983789D01*
X1953219Y1408602D02*
X1983789D01*
X1953219Y1408152D02*
X1983789D01*
X1953219Y1407702D02*
X1983789D01*
X1953219Y1407252D02*
X1983789D01*
X1953219Y1406802D02*
X1983789D01*
X1953219Y1406352D02*
X1983789D01*
X1953219Y1405902D02*
X1983789D01*
X1953219Y1405452D02*
X1983789D01*
X1953219Y1405002D02*
X1983789D01*
X1953219Y1404552D02*
X1983789D01*
X1953219Y1404102D02*
X1983789D01*
X1953219Y1403652D02*
X1983789D01*
X1953305Y1403202D02*
X1983703D01*
X1979687Y1477902D02*
X1983702D01*
X1958337Y1486452D02*
X1978671D01*
X1958337Y1486002D02*
X1978671D01*
X1958337Y1485552D02*
X1978671D01*
X1958337Y1485102D02*
X1978671D01*
X1958337Y1484652D02*
X1978671D01*
X1958337Y1484202D02*
X1978671D01*
X1958337Y1483752D02*
X1978671D01*
X1958337Y1483302D02*
X1978671D01*
X1958337Y1482852D02*
X1978671D01*
X1958337Y1482402D02*
X1978671D01*
X1958337Y1481952D02*
X1978671D01*
X1958337Y1481502D02*
X1978671D01*
X1958388Y1486902D02*
X1978620D01*
X1961642Y1419402D02*
X1975366D01*
X1961840Y1416252D02*
X1975168D01*
X1962147Y1418952D02*
X1974861D01*
X1962247Y1416702D02*
X1974761D01*
X1962412Y1418502D02*
X1974596D01*
X1962464Y1417152D02*
X1974544D01*
X1962538Y1418052D02*
X1974469D01*
X1962555Y1417602D02*
X1974453D01*
X1972384Y1481052D02*
X1974073D01*
X1971866Y1467552D02*
X1973825D01*
X1971866Y1467102D02*
X1973825D01*
X1971831Y1466652D02*
X1973825D01*
X1971567Y1466202D02*
X1973825D01*
X1971117Y1465752D02*
X1973825D01*
X1970667Y1465302D02*
X1973825D01*
X1970217Y1464852D02*
X1973825D01*
X1969774Y1464402D02*
X1973825D01*
X1969754Y1463952D02*
X1973825D01*
X1969754Y1463502D02*
X1973825D01*
X1969754Y1463052D02*
X1973825D01*
X1969754Y1462602D02*
X1973825D01*
X1969754Y1462152D02*
X1973825D01*
X1969754Y1461702D02*
X1973825D01*
X1969754Y1461252D02*
X1973825D01*
X1969754Y1460802D02*
X1973825D01*
X1969754Y1460352D02*
X1973825D01*
X1969754Y1459902D02*
X1973825D01*
X1969754Y1459452D02*
X1973825D01*
X1969754Y1459002D02*
X1973825D01*
X1969754Y1458552D02*
X1973825D01*
X1969754Y1458102D02*
X1973825D01*
X1969754Y1457652D02*
X1973825D01*
X1969754Y1457202D02*
X1973825D01*
X1969754Y1456752D02*
X1973825D01*
X1969754Y1456302D02*
X1973825D01*
X1969754Y1455852D02*
X1973825D01*
X1969754Y1455402D02*
X1973825D01*
X1969754Y1454952D02*
X1973825D01*
X1969754Y1454502D02*
X1973825D01*
X1969754Y1454052D02*
X1973825D01*
X1969754Y1453602D02*
X1973825D01*
X1969754Y1453152D02*
X1973825D01*
X1969754Y1452702D02*
X1973825D01*
X1969754Y1452252D02*
X1973825D01*
X1969754Y1451802D02*
X1973825D01*
X1969754Y1451352D02*
X1973825D01*
X1969754Y1450902D02*
X1973825D01*
X1969754Y1450452D02*
X1973825D01*
X1969754Y1450002D02*
X1973825D01*
X1969754Y1449552D02*
X1973825D01*
X1969754Y1449102D02*
X1973825D01*
X1969754Y1448652D02*
X1973825D01*
X1969754Y1448202D02*
X1973825D01*
X1969754Y1447752D02*
X1973825D01*
X1969754Y1447302D02*
X1973825D01*
X1969754Y1446852D02*
X1973825D01*
X1969754Y1446402D02*
X1973825D01*
X1969754Y1445952D02*
X1973825D01*
X1969754Y1445502D02*
X1973825D01*
X1969754Y1445052D02*
X1973825D01*
X1969754Y1444602D02*
X1973825D01*
X1970036Y1444152D02*
X1973825D01*
X1970239Y1443702D02*
X1973825D01*
X1970291Y1443252D02*
X1973825D01*
X1970207Y1442802D02*
X1973825D01*
X1969962Y1442352D02*
X1973825D01*
X1969829Y1441902D02*
X1973825D01*
X1970148Y1441452D02*
X1973825D01*
X1970278Y1441002D02*
X1973825D01*
X1970271Y1440552D02*
X1973825D01*
X1970122Y1440102D02*
X1973825D01*
X1969773Y1439652D02*
X1973825D01*
X1953219Y1439202D02*
X1973825D01*
X1953219Y1438752D02*
X1973825D01*
X1953219Y1438302D02*
X1973825D01*
X1953219Y1437852D02*
X1973825D01*
X1953219Y1437402D02*
X1973825D01*
X1953219Y1436952D02*
X1973825D01*
X1953219Y1436502D02*
X1973825D01*
X1953219Y1436052D02*
X1973825D01*
X1953219Y1435602D02*
X1973825D01*
X1953219Y1435152D02*
X1973825D01*
X1972801Y1468002D02*
X1973655D01*
X1972937Y1480602D02*
X1973520D01*
X1953219Y1434702D02*
X1973514D01*
X1972992Y1468452D02*
X1973464D01*
X1972994Y1480152D02*
X1973463D01*
X1972994Y1479702D02*
X1973463D01*
X1972994Y1479252D02*
X1973463D01*
X1972994Y1478802D02*
X1973463D01*
X1972994Y1478352D02*
X1973463D01*
X1972994Y1477902D02*
X1973463D01*
X1972994Y1477452D02*
X1973463D01*
X1972994Y1477002D02*
X1973463D01*
X1972994Y1476552D02*
X1973463D01*
X1972994Y1476102D02*
X1973463D01*
X1972994Y1475652D02*
X1973463D01*
X1972994Y1475202D02*
X1973463D01*
X1972994Y1474752D02*
X1973463D01*
X1972994Y1474302D02*
X1973463D01*
X1972994Y1473852D02*
X1973463D01*
X1972994Y1473402D02*
X1973463D01*
X1972994Y1472952D02*
X1973463D01*
X1972994Y1472502D02*
X1973463D01*
X1972994Y1472052D02*
X1973463D01*
X1972994Y1471602D02*
X1973463D01*
X1972994Y1471152D02*
X1973463D01*
X1972994Y1470702D02*
X1973463D01*
X1972994Y1470252D02*
X1973463D01*
X1972994Y1469802D02*
X1973463D01*
X1972994Y1469352D02*
X1973463D01*
X1972994Y1468902D02*
X1973463D01*
X1953219Y1434252D02*
X1973064D01*
X1953219Y1433802D02*
X1972614D01*
X1953219Y1433352D02*
X1972164D01*
X1953219Y1432902D02*
X1971714D01*
X1967142Y1467552D02*
X1969866D01*
X1967142Y1467102D02*
X1969638D01*
X1967659Y1481052D02*
X1969348D01*
X1967142Y1466652D02*
X1969188D01*
X1968077Y1468002D02*
X1968931D01*
X1968213Y1480602D02*
X1968795D01*
X1968268Y1468452D02*
X1968740D01*
X1967142Y1466202D02*
X1968738D01*
X1968270Y1480152D02*
X1968738D01*
X1968270Y1479702D02*
X1968738D01*
X1968270Y1479252D02*
X1968738D01*
X1968270Y1478802D02*
X1968738D01*
X1968270Y1478352D02*
X1968738D01*
X1968270Y1477902D02*
X1968738D01*
X1968270Y1477452D02*
X1968738D01*
X1968270Y1477002D02*
X1968738D01*
X1968270Y1476552D02*
X1968738D01*
X1968270Y1476102D02*
X1968738D01*
X1968270Y1475652D02*
X1968738D01*
X1968270Y1475202D02*
X1968738D01*
X1968270Y1474752D02*
X1968738D01*
X1968270Y1474302D02*
X1968738D01*
X1968270Y1473852D02*
X1968738D01*
X1968270Y1473402D02*
X1968738D01*
X1968270Y1472952D02*
X1968738D01*
X1968270Y1472502D02*
X1968738D01*
X1968270Y1472052D02*
X1968738D01*
X1968270Y1471602D02*
X1968738D01*
X1968270Y1471152D02*
X1968738D01*
X1968270Y1470702D02*
X1968738D01*
X1968270Y1470252D02*
X1968738D01*
X1968270Y1469802D02*
X1968738D01*
X1968270Y1469352D02*
X1968738D01*
X1968270Y1468902D02*
X1968738D01*
X1967142Y1465752D02*
X1968288D01*
X1967142Y1465302D02*
X1967887D01*
X1967142Y1464852D02*
X1967755D01*
X1967142Y1464402D02*
X1967754D01*
X1967142Y1463952D02*
X1967754D01*
X1967142Y1463502D02*
X1967754D01*
X1967142Y1463052D02*
X1967754D01*
X1967142Y1462602D02*
X1967754D01*
X1967142Y1462152D02*
X1967754D01*
X1967142Y1461702D02*
X1967754D01*
X1967142Y1461252D02*
X1967754D01*
X1967142Y1460802D02*
X1967754D01*
X1967142Y1460352D02*
X1967754D01*
X1967142Y1459902D02*
X1967754D01*
X1967142Y1459452D02*
X1967754D01*
X1967142Y1459002D02*
X1967754D01*
X1967142Y1458552D02*
X1967754D01*
X1967142Y1458102D02*
X1967754D01*
X1967142Y1457652D02*
X1967754D01*
X1967142Y1457202D02*
X1967754D01*
X1967142Y1456752D02*
X1967754D01*
X1967142Y1456302D02*
X1967754D01*
X1967142Y1455852D02*
X1967754D01*
X1967142Y1455402D02*
X1967754D01*
X1967142Y1454952D02*
X1967754D01*
X1967142Y1454502D02*
X1967754D01*
X1967142Y1454052D02*
X1967754D01*
X1967142Y1453602D02*
X1967754D01*
X1967142Y1453152D02*
X1967754D01*
X1967142Y1452702D02*
X1967754D01*
X1967142Y1452252D02*
X1967754D01*
X1967142Y1451802D02*
X1967754D01*
X1967142Y1451352D02*
X1967754D01*
X1967142Y1450902D02*
X1967754D01*
X1967142Y1450452D02*
X1967754D01*
X1967142Y1450002D02*
X1967754D01*
X1967142Y1449552D02*
X1967754D01*
X1967142Y1449102D02*
X1967754D01*
X1967142Y1448652D02*
X1967754D01*
X1967142Y1448202D02*
X1967754D01*
X1967142Y1447752D02*
X1967754D01*
X1967142Y1447302D02*
X1967754D01*
X1967142Y1446852D02*
X1967754D01*
X1967142Y1446402D02*
X1967754D01*
X1967142Y1445952D02*
X1967754D01*
X1967142Y1445502D02*
X1967754D01*
X1967142Y1445052D02*
X1967754D01*
X1967142Y1444602D02*
X1967754D01*
X1953219Y1439652D02*
X1967735D01*
X1967142Y1444152D02*
X1967472D01*
X1953219Y1440102D02*
X1967386D01*
X1953219Y1440552D02*
X1967237D01*
X1953219Y1441002D02*
X1967141D01*
X1953219Y1441452D02*
X1966691D01*
X1953219Y1441902D02*
X1966241D01*
X1953219Y1442352D02*
X1965791D01*
X1953219Y1442802D02*
X1965352D01*
X1953219Y1443252D02*
X1965155D01*
X1953219Y1467552D02*
X1965142D01*
X1953219Y1467102D02*
X1965142D01*
X1953219Y1466652D02*
X1965142D01*
X1953219Y1466202D02*
X1965142D01*
X1953219Y1465752D02*
X1965142D01*
X1953219Y1465302D02*
X1965142D01*
X1953219Y1464852D02*
X1965142D01*
X1953219Y1464402D02*
X1965142D01*
X1953219Y1463952D02*
X1965142D01*
X1953219Y1463502D02*
X1965142D01*
X1953219Y1463052D02*
X1965142D01*
X1953219Y1462602D02*
X1965142D01*
X1953219Y1462152D02*
X1965142D01*
X1953219Y1461702D02*
X1965142D01*
X1953219Y1461252D02*
X1965142D01*
X1953219Y1460802D02*
X1965142D01*
X1953219Y1460352D02*
X1965142D01*
X1953219Y1459902D02*
X1965142D01*
X1953219Y1459452D02*
X1965142D01*
X1953219Y1459002D02*
X1965142D01*
X1953219Y1458552D02*
X1965142D01*
X1953219Y1458102D02*
X1965142D01*
X1953219Y1457652D02*
X1965142D01*
X1953219Y1457202D02*
X1965142D01*
X1953219Y1456752D02*
X1965142D01*
X1953219Y1456302D02*
X1965142D01*
X1953219Y1455852D02*
X1965142D01*
X1953219Y1455402D02*
X1965142D01*
X1953219Y1454952D02*
X1965142D01*
X1953219Y1454502D02*
X1965142D01*
X1953219Y1454052D02*
X1965142D01*
X1953219Y1453602D02*
X1965142D01*
X1953219Y1453152D02*
X1965142D01*
X1953219Y1452702D02*
X1965142D01*
X1953219Y1452252D02*
X1965142D01*
X1953219Y1451802D02*
X1965142D01*
X1953219Y1451352D02*
X1965142D01*
X1953219Y1450902D02*
X1965142D01*
X1953219Y1450452D02*
X1965142D01*
X1953219Y1450002D02*
X1965142D01*
X1953219Y1449552D02*
X1965142D01*
X1953219Y1449102D02*
X1965142D01*
X1953219Y1448652D02*
X1965142D01*
X1953219Y1448202D02*
X1965142D01*
X1953219Y1447752D02*
X1965142D01*
X1953219Y1447302D02*
X1965142D01*
X1953219Y1446852D02*
X1965142D01*
X1953219Y1446402D02*
X1965142D01*
X1953219Y1445952D02*
X1965142D01*
X1953219Y1445502D02*
X1965142D01*
X1953219Y1445052D02*
X1965142D01*
X1953219Y1444602D02*
X1965142D01*
X1953219Y1444152D02*
X1965142D01*
X1953219Y1443702D02*
X1965142D01*
X1958337Y1481052D02*
X1964624D01*
X1953219Y1468002D02*
X1964207D01*
X1958337Y1480602D02*
X1964071D01*
X1953219Y1468452D02*
X1964016D01*
X1958337Y1480152D02*
X1964014D01*
X1958337Y1479702D02*
X1964014D01*
X1958306Y1479252D02*
X1964014D01*
X1958104Y1478802D02*
X1964014D01*
X1957511Y1478352D02*
X1964014D01*
X1953306Y1477902D02*
X1964014D01*
X1953219Y1477452D02*
X1964014D01*
X1953219Y1477002D02*
X1964014D01*
X1953219Y1476552D02*
X1964014D01*
X1953219Y1476102D02*
X1964014D01*
X1953219Y1475652D02*
X1964014D01*
X1953219Y1475202D02*
X1964014D01*
X1953219Y1474752D02*
X1964014D01*
X1953219Y1474302D02*
X1964014D01*
X1953219Y1473852D02*
X1964014D01*
X1953219Y1473402D02*
X1964014D01*
X1953219Y1472952D02*
X1964014D01*
X1953219Y1472502D02*
X1964014D01*
X1953219Y1472052D02*
X1964014D01*
X1953219Y1471602D02*
X1964014D01*
X1953219Y1471152D02*
X1964014D01*
X1953219Y1470702D02*
X1964014D01*
X1953219Y1470252D02*
X1964014D01*
X1953219Y1469802D02*
X1964014D01*
X1953219Y1469352D02*
X1964014D01*
X1953219Y1468902D02*
X1964014D01*
X1953219Y1426602D02*
X1960041D01*
X1953219Y1432452D02*
X1959993D01*
X1953219Y1427052D02*
X1959786D01*
X1953219Y1432002D02*
X1959774D01*
X1953219Y1431552D02*
X1959754D01*
X1953219Y1431102D02*
X1959754D01*
X1953219Y1430652D02*
X1959754D01*
X1953219Y1430202D02*
X1959754D01*
X1953219Y1429752D02*
X1959754D01*
X1953219Y1429302D02*
X1959754D01*
X1953219Y1428852D02*
X1959754D01*
X1953219Y1428402D02*
X1959754D01*
X1953219Y1427952D02*
X1959754D01*
X1953219Y1427502D02*
X1959754D01*
X1953219Y1419402D02*
X1959618D01*
X1953219Y1416252D02*
X1959420D01*
X1953219Y1418952D02*
X1959113D01*
X1953219Y1416702D02*
X1959013D01*
X1953219Y1418502D02*
X1958848D01*
X1953219Y1417152D02*
X1958796D01*
X1953219Y1418052D02*
X1958721D01*
X1953219Y1417602D02*
X1958705D01*
X1957087Y1488189D02*
X1979921D01*
Y1479528*
X1983071*
X1985039Y1477559D02*
G03X1983071Y1479528I-1968J0D01*
G01X1985039Y1477559D02*
Y1403543D01*
X1983071Y1401575D02*
G03X1985039Y1403543I-0J1968D01*
G01X1983071Y1401575D02*
X1953937D01*
X1951969Y1403543D02*
G03X1953937Y1401575I1968J0D01*
G01X1951969Y1403543D02*
Y1477559D01*
X1953937Y1479528D02*
G03X1951969Y1477559I0J-1969D01*
G01X1953937Y1479528D02*
X1957087D01*
Y1488189*
G54D120*
X1955254Y1403553D03*
X1964504D03*
X1981504D03*
X1974004D03*
X1954504Y1414303D03*
Y1418803D03*
X1958004Y1420303D03*
X1962254Y1410803D03*
X1983004Y1414553D03*
X1975254Y1410803D03*
X1973254Y1416803D03*
X1975254Y1427053D03*
X1978254Y1423303D03*
X1983004Y1418303D03*
X1964004Y1445053D03*
X1954004Y1440053D03*
X1954254Y1429053D03*
X1965004Y1437053D03*
X1969754D03*
X1959754D03*
X1968754Y1440803D03*
Y1443303D03*
X1971004Y1442053D03*
X1972504Y1447053D03*
X1983004Y1443053D03*
Y1433053D03*
X1961754Y1467053D03*
X1954004Y1460303D03*
X1964004Y1457303D03*
X1959254Y1467053D03*
X1954004Y1450303D03*
X1983004Y1452553D03*
X1972504Y1457303D03*
Y1465303D03*
X1983004Y1461053D03*
X1968504Y1484053D03*
X1960004D03*
X1954004Y1470053D03*
Y1476553D03*
X1977004Y1484053D03*
X1981004Y1467553D03*
X1982754Y1476553D03*
G54D132*
X1962754Y1430053D02*
X1972754D01*
X1976575Y1433874*
Y1474409*
G54D133*
X1960630Y1417757D03*
X1976378D03*
G54D238*
X1954429Y1423819D03*
X1982579D03*
X1954429Y1409252D03*
X1982579D03*
G54D304*
X1970866Y1474409D03*
X1966142D03*
G54D305*
X1960433D03*
X1976575D03*
G74*
X0Y0D02*
M02*
