%
T1C.00984F0S0
X195525Y140355
X19645Y140355
X1974Y140355
X196225Y14108
X197525Y14108
X19545Y14143
X197325Y14168
X19545Y14188
X1958Y14203
X197825Y14233
X197525Y142705
X195425Y142905
X1965Y143705
X196975Y143705
X195975Y143705
X1954Y144005
X196875Y14408
X1971Y144205
X196875Y14433
X1964Y144505
X19725Y144705
X1954Y14503
X1964Y14573
X19725Y14573
X1954Y14603
X19725Y14653
X195925Y146705
X196175Y146705
X1954Y147005
X1954Y147655
X19685Y148405
X196Y148405
X1977Y148405
X198275Y147655
X1981Y146755
X1983Y146105
X1983Y145255
X1983Y144305
X1983Y143305
X1983Y14183
X1983Y141455
X19815Y140355
T2C.01F095S3
X1962Y142855
X1962Y143105
T3C.02362F197S55
X195443Y142224G85X195443Y142539
X198258Y142224G85X198258Y142539
X195443Y140768G85X195443Y141083
X198258Y140768G85X198258Y141083
T4C.02362F197S55
X196063Y141776
X197638Y141776
M30
