*
*
G04 PADS 9.5 Build Number: 522968 generated Gerber (RS-274-X) file*
G04 PC Version=2.1*
*
%IN "PCB_ESP-Moonlight_V2.0_"*%
*
%MOIN*%
*
%FSLAX35Y35*%
*
*
*
*
G04 PC Standard Apertures*
*
*
G04 Thermal Relief Aperture macro.*
%AMTER*
1,1,$1,0,0*
1,0,$1-$2,0,0*
21,0,$3,$4,0,0,45*
21,0,$3,$4,0,0,135*
%
*
*
G04 Annular Aperture macro.*
%AMANN*
1,1,$1,0,0*
1,0,$2,0,0*
%
*
*
G04 Odd Aperture macro.*
%AMODD*
1,1,$1,0,0*
1,0,$1-0.005,0,0*
%
*
*
G04 PC Custom Aperture Macros*
*
*
*
*
*
*
G04 PC Aperture Table*
*
%ADD010C,0.001*%
%ADD109C,0.005*%
%ADD231C,0.004*%
*
*
*
*
G04 PC Circuitry*
G04 Layer Name PCB_ESP-Moonlight_V2.0_ - circuitry*
%LPD*%
*
*
G04 PC Custom Flashes*
G04 Layer Name PCB_ESP-Moonlight_V2.0_ - flashes*
%LPD*%
*
*
G04 PC Circuitry*
G04 Layer Name PCB_ESP-Moonlight_V2.0_ - circuitry*
%LPD*%
*
G54D10*
G54D109*
G01X1957087Y1488189D02*
X1979921D01*
Y1479528*
X1983071*
X1985039Y1477559D02*
G75*
G03X1983071Y1479528I-1968J0D01*
G01X1985039Y1477559D02*
Y1403543D01*
X1983071Y1401575D02*
G03X1985039Y1403543I-0J1968D01*
G01X1983071Y1401575D02*
X1953937D01*
X1951969Y1403543D02*
G03X1953937Y1401575I1968J0D01*
G01X1951969Y1403543D02*
Y1477559D01*
X1953937Y1479528D02*
G03X1951969Y1477559I0J-1969D01*
G01X1953937Y1479528D02*
X1957087D01*
Y1488189*
G54D231*
X1968179Y1432841D02*
X1971329D01*
Y1430675D02*
X1968179D01*
Y1433431*
X1971329*
Y1430675*
X1963429Y1432841D02*
X1966579D01*
Y1430675D02*
X1963429D01*
Y1433431*
X1966579*
Y1430675*
X1958179Y1432841D02*
X1961329D01*
Y1430675D02*
X1958179D01*
Y1433431*
X1961329*
Y1430675*
X1952543Y1398690D02*
Y1398297D01*
X1952740Y1407352D02*
Y1410895D01*
X1953528Y1398418D02*
Y1398297D01*
X1953690Y1398418D02*
Y1398297D01*
X1953724Y1420344D02*
Y1401040D01*
X1954709Y1400386D02*
Y1400659D01*
X1954800D02*
Y1400386D01*
X1955102Y1420344D02*
Y1400659D01*
X1955170Y1400386D02*
Y1400659D01*
X1955496D02*
Y1398297D01*
X1981807Y1400386D02*
X1982709Y1399231D01*
X1982268Y1400386D02*
X1983449Y1398418D01*
X1983448Y1400332D02*
X1984433Y1398690D01*
X1982176Y1400386D02*
X1982709Y1399231D01*
X1981480Y1400659D02*
Y1398297D01*
X1981807Y1400386D02*
Y1400659D01*
X1981874D02*
Y1420344D01*
X1982176Y1400386D02*
Y1400659D01*
X1982268Y1400386D02*
Y1400659D01*
X1983252Y1401040D02*
Y1420344D01*
X1983287Y1398418D02*
Y1398297D01*
X1983449Y1398418D02*
Y1398297D01*
X1984236Y1410895D02*
Y1407352D01*
X1984433Y1398690D02*
Y1398297D01*
X1954800Y1400386D02*
X1954267Y1399231D01*
X1953528Y1400332D02*
X1952543Y1398690D01*
X1954709Y1400386D02*
X1953528Y1398418D01*
X1955170Y1400386D02*
X1954267Y1399231D01*
X1981480Y1398297D02*
X1955496D01*
X1952543D02*
X1953690D01*
X1983287D02*
X1984433D01*
X1983449Y1398418D02*
X1983287D01*
X1953690D02*
X1953528D01*
X1955496Y1398690D02*
X1981480D01*
Y1400332D02*
X1955496D01*
X1982268Y1400386D02*
X1981807D01*
X1955170D02*
X1954709D01*
X1955496Y1400659D02*
X1953670D01*
X1981480D02*
X1983306D01*
X1983252Y1401040D02*
X1953724D01*
X1984236Y1407352D02*
X1983252D01*
X1953724D02*
X1952740D01*
Y1410895D02*
X1953724D01*
X1983252D02*
X1984236D01*
X1953724Y1420344D02*
X1983252D01*
Y1401040D02*
G03X1983449Y1400331I1378J0D01*
G01X1953528D02*
G03X1953724Y1401040I-1182J709D01*
G01X1967568Y1470803D02*
X1967477Y1471028D01*
X1967295Y1471253*
X1967113Y1471366*
X1966749*
X1966568Y1471253*
X1966386Y1471028*
X1966295Y1470803*
X1966204Y1470466*
Y1469903*
X1966295Y1469566*
X1966386Y1469341*
X1966568Y1469116*
X1966749Y1469003*
X1967113*
X1967295Y1469116*
X1967477Y1469341*
X1967568Y1469566*
Y1469903*
X1967113D02*
X1967568D01*
X1968386Y1471366D02*
Y1469003D01*
Y1471366D02*
X1969658Y1469003D01*
Y1471366D02*
Y1469003D01*
X1970477Y1471366D02*
Y1469003D01*
Y1471366D02*
X1971113D01*
X1971386Y1471253*
X1971568Y1471028*
X1971658Y1470803*
X1971749Y1470466*
Y1469903*
X1971658Y1469566*
X1971568Y1469341*
X1971386Y1469116*
X1971113Y1469003*
X1970477*
G74*
X0Y0D02*
M02*
