*
*
G04 PADS 9.5 Build Number: 522968 generated Gerber (RS-274-X) file*
G04 PC Version=2.1*
*
%IN "PCB_ESP-Moonlight_V2.0_"*%
*
%MOIN*%
*
%FSLAX35Y35*%
*
*
*
*
G04 PC Standard Apertures*
*
*
G04 Thermal Relief Aperture macro.*
%AMTER*
1,1,$1,0,0*
1,0,$1-$2,0,0*
21,0,$3,$4,0,0,45*
21,0,$3,$4,0,0,135*
%
*
*
G04 Annular Aperture macro.*
%AMANN*
1,1,$1,0,0*
1,0,$2,0,0*
%
*
*
G04 Odd Aperture macro.*
%AMODD*
1,1,$1,0,0*
1,0,$1-0.005,0,0*
%
*
*
G04 PC Custom Aperture Macros*
*
*
*
*
*
*
G04 PC Aperture Table*
*
%ADD010C,0.001*%
%ADD045C,0.02*%
%ADD109C,0.005*%
%ADD120C,0.01575*%
%ADD133C,0.02362*%
%ADD235R,0.01575X0.0189*%
%ADD287O,0.02362X0.07087*%
%ADD288R,0.01378X0.07087*%
%ADD289O,0.03937X0.07087*%
%ADD293R,0.19685X0.05906*%
*
*
*
*
G04 PC Circuitry*
G04 Layer Name PCB_ESP-Moonlight_V2.0_ - circuitry*
%LPD*%
*
*
G04 PC Custom Flashes*
G04 Layer Name PCB_ESP-Moonlight_V2.0_ - flashes*
%LPD*%
*
*
G04 PC Circuitry*
G04 Layer Name PCB_ESP-Moonlight_V2.0_ - circuitry*
%LPD*%
*
G54D10*
G54D45*
G01X2002254Y1451553D03*
Y1454303D03*
G54D109*
X2008661Y1445866D02*
Y1451896D01*
X2009843Y1453077*
X2005118D02*
X2006102Y1452093D01*
Y1445866*
X2005118Y1453077D02*
X2006754Y1454713D01*
Y1462053*
X2009004Y1464303*
X2008004Y1454915D02*
Y1460553D01*
X2009004Y1461553*
X2008004Y1454915D02*
X2009843Y1453077D01*
X1999254Y1455303D02*
X2003004D01*
Y1451200*
X2004254Y1449950*
Y1442303*
X2002857*
X1999254Y1445907*
Y1455303*
Y1449502D02*
X2004254D01*
X1999254Y1449052D02*
X2004254D01*
X1999254Y1448602D02*
X2004254D01*
X1999254Y1448152D02*
X2004254D01*
X1999254Y1447702D02*
X2004254D01*
X1999254Y1447252D02*
X2004254D01*
X1999254Y1446802D02*
X2004254D01*
X1999254Y1446352D02*
X2004254D01*
X1999259Y1445902D02*
X2004254D01*
X1999709Y1445452D02*
X2004254D01*
X2000159Y1445002D02*
X2004254D01*
X2000609Y1444552D02*
X2004254D01*
X2001059Y1444102D02*
X2004254D01*
X2001509Y1443652D02*
X2004254D01*
X2001959Y1443202D02*
X2004254D01*
X2002409Y1442752D02*
X2004254D01*
X1999254Y1449952D02*
X2004252D01*
X1999254Y1450402D02*
X2003802D01*
X1999254Y1450852D02*
X2003352D01*
X1999254Y1454902D02*
X2003004D01*
X1999254Y1454452D02*
X2003004D01*
X1999254Y1454002D02*
X2003004D01*
X1999254Y1453552D02*
X2003004D01*
X1999254Y1453102D02*
X2003004D01*
X1999254Y1452652D02*
X2003004D01*
X1999254Y1452202D02*
X2003004D01*
X1999254Y1451752D02*
X2003004D01*
X1999254Y1451302D02*
X2003004D01*
X2018467Y1441379D02*
G75*
G03X2018467I-1932J0D01*
G01X2023947Y1427165D02*
Y1477559D01*
G03X2023228Y1478278I-719J0*
G01X2020079*
X2018829Y1479528D02*
G03X2020079Y1478278I1250J-0D01*
G01X2018829Y1479528D02*
Y1486789D01*
G03X2018679Y1486939I-150J-0*
G01X1998644*
G03X1998494Y1486789I0J-150*
G01Y1479528*
X1997244Y1478278D02*
G03X1998494Y1479528I0J1250D01*
G01X1997244Y1478278D02*
X1994094D01*
G03X1993376Y1477559I0J-719*
G01Y1427165*
G03X1994094Y1426447I718J0*
G01X2023228*
G03X2023947Y1427165I0J718*
G01X2018467Y1441379D02*
G03X2018467I-1932J0D01*
G01X2012659Y1449409D02*
Y1442323D01*
X2011909Y1441573D02*
G03X2012659Y1442323I0J750D01*
G01X2011909Y1441573D02*
X2010531D01*
X2010039Y1441757D02*
G03X2010531Y1441573I492J566D01*
G01X2010039Y1441757D02*
G03X2009843I-98J-113D01*
G01X2009350Y1441573D02*
G03X2009843Y1441757I0J750D01*
G01X2009350Y1441573D02*
X2007972D01*
X2007480Y1441757D02*
G03X2007972Y1441573I492J566D01*
G01X2007480Y1441757D02*
G03X2007283I-98J-113D01*
G01X2006791Y1441573D02*
G03X2007283Y1441757I0J750D01*
G01X2006791Y1441573D02*
X2005413D01*
X2005126Y1441630D02*
G03X2005413Y1441573I287J693D01*
G01X2005126Y1441630D02*
G03X2004962Y1441597I-57J-139D01*
G01X2004254Y1441303D02*
G03X2004962Y1441597I-0J1000D01*
G01X2004254Y1441303D02*
X2002857D01*
X2002856*
G03X2002707Y1441169I0J-150*
G01X2000213Y1443223D02*
G03X2002707Y1441169I574J-1844D01*
G01X2000213Y1443223D02*
G03X2000274Y1443472I-45J143D01*
G01X1998547Y1445200*
X1998254Y1445907D02*
G03X1998547Y1445200I1000J-0D01*
G01X1998254Y1445907D02*
Y1455303D01*
X1999254Y1456303D02*
G03X1998254Y1455303I-0J-1000D01*
G01X1999254Y1456303D02*
X2003004D01*
X2004004Y1455303D02*
G03X2003004Y1456303I-1000J0D01*
G01X2004004Y1455303D02*
Y1454904D01*
G03X2004183Y1454757I150J0*
G01X2004331Y1454772D02*
G03X2004183Y1454757I-0J-750D01*
G01X2004331Y1454772D02*
X2005337D01*
G03X2005443Y1454816I-0J150*
G01X2005710Y1455083*
G03X2005754Y1455189I-106J106*
G01Y1462053*
X2006047Y1462760D02*
G03X2005754Y1462053I707J-707D01*
G01X2006047Y1462760D02*
X2007424Y1464137D01*
G03X2007467Y1464248I-106J106*
G01X2009895Y1463050D02*
G03X2007467Y1464249I-891J1253D01*
G01X2009895Y1463050D02*
G03Y1462806I87J-122D01*
G01X2009141Y1460022D02*
G03X2009895Y1462806I-137J1531D01*
G01X2009141Y1460022D02*
G03X2009004Y1459872I13J-150D01*
G01Y1455392*
G03X2009048Y1455286I150J-0*
G01X2009518Y1454816*
G03X2009624Y1454772I106J106*
G01X2010630*
X2011380Y1454022D02*
G03X2010630Y1454772I-750J-0D01*
G01X2011380Y1454022D02*
Y1452132D01*
X2010630Y1451382D02*
G03X2011380Y1452132I-0J750D01*
G01X2010630Y1451382D02*
X2009811D01*
G03X2009661Y1451232I0J-150*
G01Y1450182*
G03X2009735Y1450054I150J0*
G01X2009843Y1449975D02*
G03X2009735Y1450054I-493J-566D01*
G01X2009843Y1449975D02*
G03X2010039I98J114D01*
G01X2010531Y1450159D02*
G03X2010039Y1449975I0J-750D01*
G01X2010531Y1450159D02*
X2011909D01*
X2012659Y1449409D02*
G03X2011909Y1450159I-750J0D01*
G01X1993376Y1477552D02*
X2023947D01*
X1993376Y1477102D02*
X2023947D01*
X1993376Y1476652D02*
X2023947D01*
X1993376Y1476202D02*
X2023947D01*
X1993376Y1475752D02*
X2023947D01*
X1993376Y1475302D02*
X2023947D01*
X1993376Y1474852D02*
X2023947D01*
X1993376Y1474402D02*
X2023947D01*
X1993376Y1473952D02*
X2023947D01*
X1993376Y1473502D02*
X2023947D01*
X1993376Y1473052D02*
X2023947D01*
X1993376Y1472602D02*
X2023947D01*
X1993376Y1472152D02*
X2023947D01*
X1993376Y1471702D02*
X2023947D01*
X1993376Y1471252D02*
X2023947D01*
X1993376Y1470802D02*
X2023947D01*
X1993376Y1470352D02*
X2023947D01*
X1993376Y1469902D02*
X2023947D01*
X1993376Y1469452D02*
X2023947D01*
X1993376Y1469002D02*
X2023947D01*
X1993376Y1468552D02*
X2023947D01*
X1993376Y1468102D02*
X2023947D01*
X1993376Y1467652D02*
X2023947D01*
X1993376Y1467202D02*
X2023947D01*
X1993376Y1466752D02*
X2023947D01*
X1993376Y1466302D02*
X2023947D01*
X1993376Y1465852D02*
X2023947D01*
X2010079Y1465402D02*
X2023947D01*
X2010398Y1464952D02*
X2023947D01*
X2010528Y1464502D02*
X2023947D01*
X2010521Y1464052D02*
X2023947D01*
X2010372Y1463602D02*
X2023947D01*
X2010023Y1463152D02*
X2023947D01*
X2010026Y1462702D02*
X2023947D01*
X2010373Y1462252D02*
X2023947D01*
X2010521Y1461802D02*
X2023947D01*
X2010528Y1461352D02*
X2023947D01*
X2010397Y1460902D02*
X2023947D01*
X2010077Y1460452D02*
X2023947D01*
X2009078Y1460002D02*
X2023947D01*
X2009004Y1459552D02*
X2023947D01*
X2009004Y1459102D02*
X2023947D01*
X2009004Y1458652D02*
X2023947D01*
X2009004Y1458202D02*
X2023947D01*
X2009004Y1457752D02*
X2023947D01*
X2009004Y1457302D02*
X2023947D01*
X2009004Y1456852D02*
X2023947D01*
X2009004Y1456402D02*
X2023947D01*
X2009004Y1455952D02*
X2023947D01*
X2009004Y1455502D02*
X2023947D01*
X2009282Y1455052D02*
X2023947D01*
X2011105Y1454602D02*
X2023947D01*
X2011369Y1454152D02*
X2023947D01*
X2011380Y1453702D02*
X2023947D01*
X2011380Y1453252D02*
X2023947D01*
X2011380Y1452802D02*
X2023947D01*
X2011380Y1452352D02*
X2023947D01*
X2011344Y1451902D02*
X2023947D01*
X2010946Y1451452D02*
X2023947D01*
X2009661Y1451002D02*
X2023947D01*
X2009661Y1450552D02*
X2023947D01*
X2012198Y1450102D02*
X2023947D01*
X2012619Y1449652D02*
X2023947D01*
X2012659Y1449202D02*
X2023947D01*
X2012659Y1448752D02*
X2023947D01*
X2012659Y1448302D02*
X2023947D01*
X2012659Y1447852D02*
X2023947D01*
X2012659Y1447402D02*
X2023947D01*
X2012659Y1446952D02*
X2023947D01*
X2012659Y1446502D02*
X2023947D01*
X2012659Y1446052D02*
X2023947D01*
X2012659Y1445602D02*
X2023947D01*
X2012659Y1445152D02*
X2023947D01*
X2012659Y1444702D02*
X2023947D01*
X2012659Y1444252D02*
X2023947D01*
X2012659Y1443802D02*
X2023947D01*
X2012659Y1443352D02*
X2023947D01*
X2017723Y1442902D02*
X2023947D01*
X2018141Y1442452D02*
X2023947D01*
X2018363Y1442002D02*
X2023947D01*
X2018459Y1441552D02*
X2023947D01*
X2018447Y1441102D02*
X2023947D01*
X2018324Y1440652D02*
X2023947D01*
X2018066Y1440202D02*
X2023947D01*
X2017575Y1439752D02*
X2023947D01*
X1993376Y1439302D02*
X2023947D01*
X1993376Y1438852D02*
X2023947D01*
X1993376Y1438402D02*
X2023947D01*
X1993376Y1437952D02*
X2023947D01*
X1993376Y1437502D02*
X2023947D01*
X1993376Y1437052D02*
X2023947D01*
X1993376Y1436602D02*
X2023947D01*
X1993376Y1436152D02*
X2023947D01*
X1993376Y1435702D02*
X2023947D01*
X1993376Y1435252D02*
X2023947D01*
X1993376Y1434802D02*
X2023947D01*
X1993376Y1434352D02*
X2023947D01*
X1993376Y1433902D02*
X2023947D01*
X1993376Y1433452D02*
X2023947D01*
X1993376Y1433002D02*
X2023947D01*
X1993376Y1432552D02*
X2023947D01*
X1993376Y1432102D02*
X2023947D01*
X1993376Y1431652D02*
X2023947D01*
X1993376Y1431202D02*
X2023947D01*
X1993376Y1430752D02*
X2023947D01*
X1993376Y1430302D02*
X2023947D01*
X1993376Y1429852D02*
X2023947D01*
X1993376Y1429402D02*
X2023947D01*
X1993376Y1428952D02*
X2023947D01*
X1993376Y1428502D02*
X2023947D01*
X1993376Y1428052D02*
X2023947D01*
X1993376Y1427602D02*
X2023947D01*
X1993376Y1427152D02*
X2023947D01*
X1993529Y1478002D02*
X2023794D01*
X1993546Y1426702D02*
X2023777D01*
X1997881Y1478452D02*
X2019442D01*
X1998326Y1478902D02*
X2018997D01*
X1998482Y1479352D02*
X2018841D01*
X1998494Y1486552D02*
X2018829D01*
X1998494Y1486102D02*
X2018829D01*
X1998494Y1485652D02*
X2018829D01*
X1998494Y1485202D02*
X2018829D01*
X1998494Y1484752D02*
X2018829D01*
X1998494Y1484302D02*
X2018829D01*
X1998494Y1483852D02*
X2018829D01*
X1998494Y1483402D02*
X2018829D01*
X1998494Y1482952D02*
X2018829D01*
X1998494Y1482502D02*
X2018829D01*
X1998494Y1482052D02*
X2018829D01*
X1998494Y1481602D02*
X2018829D01*
X1998494Y1481152D02*
X2018829D01*
X1998494Y1480702D02*
X2018829D01*
X1998494Y1480252D02*
X2018829D01*
X1998494Y1479802D02*
X2018829D01*
X2001827Y1439752D02*
X2015496D01*
X2012659Y1442902D02*
X2015348D01*
X2002318Y1440202D02*
X2015005D01*
X2012659Y1442452D02*
X2014930D01*
X2002576Y1440652D02*
X2014747D01*
X2012587Y1442002D02*
X2014707D01*
X2002698Y1441102D02*
X2014624D01*
X2004914Y1441552D02*
X2014612D01*
X2009685Y1450102D02*
X2010243D01*
X1993376Y1465402D02*
X2007929D01*
X1993376Y1464952D02*
X2007610D01*
X1993376Y1464502D02*
X2007479D01*
X1993376Y1464052D02*
X2007338D01*
X1993376Y1463602D02*
X2006888D01*
X1993376Y1463152D02*
X2006438D01*
X1993376Y1462702D02*
X2005993D01*
X1993376Y1462252D02*
X2005774D01*
X1993376Y1461802D02*
X2005754D01*
X1993376Y1461352D02*
X2005754D01*
X1993376Y1460902D02*
X2005754D01*
X1993376Y1460452D02*
X2005754D01*
X1993376Y1460002D02*
X2005754D01*
X1993376Y1459552D02*
X2005754D01*
X1993376Y1459102D02*
X2005754D01*
X1993376Y1458652D02*
X2005754D01*
X1993376Y1458202D02*
X2005754D01*
X1993376Y1457752D02*
X2005754D01*
X1993376Y1457302D02*
X2005754D01*
X1993376Y1456852D02*
X2005754D01*
X1993376Y1456402D02*
X2005754D01*
X2003765Y1455952D02*
X2005754D01*
X2003984Y1455502D02*
X2005754D01*
X2004004Y1455052D02*
X2005679D01*
X1993376Y1443352D02*
X2000317D01*
X1993376Y1443802D02*
X1999945D01*
X1993376Y1439752D02*
X1999748D01*
X1993376Y1442902D02*
X1999600D01*
X1993376Y1444252D02*
X1999495D01*
X1993376Y1440202D02*
X1999257D01*
X1993376Y1442452D02*
X1999182D01*
X1993376Y1444702D02*
X1999045D01*
X1993376Y1440652D02*
X1998999D01*
X1993376Y1442002D02*
X1998959D01*
X1993376Y1441102D02*
X1998876D01*
X1993376Y1441552D02*
X1998864D01*
X1993376Y1445152D02*
X1998595D01*
X1993376Y1455952D02*
X1998493D01*
X1993376Y1445602D02*
X1998302D01*
X1993376Y1455502D02*
X1998274D01*
X1993376Y1455052D02*
X1998254D01*
X1993376Y1454602D02*
X1998254D01*
X1993376Y1454152D02*
X1998254D01*
X1993376Y1453702D02*
X1998254D01*
X1993376Y1453252D02*
X1998254D01*
X1993376Y1452802D02*
X1998254D01*
X1993376Y1452352D02*
X1998254D01*
X1993376Y1451902D02*
X1998254D01*
X1993376Y1451452D02*
X1998254D01*
X1993376Y1451002D02*
X1998254D01*
X1993376Y1450552D02*
X1998254D01*
X1993376Y1450102D02*
X1998254D01*
X1993376Y1449652D02*
X1998254D01*
X1993376Y1449202D02*
X1998254D01*
X1993376Y1448752D02*
X1998254D01*
X1993376Y1448302D02*
X1998254D01*
X1993376Y1447852D02*
X1998254D01*
X1993376Y1447402D02*
X1998254D01*
X1993376Y1446952D02*
X1998254D01*
X1993376Y1446502D02*
X1998254D01*
X1993376Y1446052D02*
X1998254D01*
X1997244Y1488189D02*
X2020079D01*
Y1479528*
X2023228*
X2025197Y1477559D02*
G03X2023228Y1479528I-1969J0D01*
G01X2025197Y1477559D02*
Y1427165D01*
X2023228Y1425197D02*
G03X2025197Y1427165I0J1968D01*
G01X2023228Y1425197D02*
X1994094D01*
X1992126Y1427165D02*
G03X1994094Y1425197I1968J0D01*
G01X1992126Y1427165D02*
Y1477559D01*
X1994094Y1479528D02*
G03X1992126Y1477559I0J-1969D01*
G01X1994094Y1479528D02*
X1997244D01*
Y1488189*
G54D120*
X2003004Y1427303D03*
X1994754D03*
X2022504D03*
X2013254D03*
X2003754Y1435053D03*
X1998254Y1444053D03*
X1994504Y1442303D03*
Y1437803D03*
X2015504Y1434803D03*
X2022754Y1438053D03*
Y1442303D03*
X2013504Y1440803D03*
X2008504Y1466803D03*
X2009004Y1461553D03*
X2004754Y1460553D03*
X2009004Y1464303D03*
X2000504Y1460553D03*
X2001754Y1467053D03*
X1999254D03*
X1994004Y1460553D03*
Y1452553D03*
X2020504Y1459803D03*
X2023254Y1452803D03*
X2023504Y1465553D03*
X2015504Y1450553D03*
X2013004Y1466303D03*
X2012004Y1458303D03*
X2011254Y1462553D03*
X2008504Y1484803D03*
X2000504D03*
X1994004Y1477303D03*
Y1469053D03*
X2023504Y1477303D03*
X2016504Y1484803D03*
G54D133*
X2000787Y1441379D03*
X2016535D03*
G54D235*
X2000004Y1453077D03*
Y1458274D03*
X2009843Y1453077D03*
Y1458274D03*
X2005118Y1453077D03*
Y1458274D03*
G54D287*
X2003150Y1445866D03*
X2014173D03*
G54D288*
X2006102D03*
X2008661D03*
X2011220D03*
G54D289*
X1994587Y1447441D03*
X2022736D03*
X1994587Y1432874D03*
X2022736D03*
G54D293*
X2008661Y1476378D03*
G74*
X0Y0D02*
M02*
