*
*
G04 PADS 9.5 Build Number: 522968 generated Gerber (RS-274-X) file*
G04 PC Version=2.1*
*
%IN "PCB_ESP-Moonlight_V2.0_"*%
*
%MOIN*%
*
%FSLAX35Y35*%
*
*
*
*
G04 PC Standard Apertures*
*
*
G04 Thermal Relief Aperture macro.*
%AMTER*
1,1,$1,0,0*
1,0,$1-$2,0,0*
21,0,$3,$4,0,0,45*
21,0,$3,$4,0,0,135*
%
*
*
G04 Annular Aperture macro.*
%AMANN*
1,1,$1,0,0*
1,0,$2,0,0*
%
*
*
G04 Odd Aperture macro.*
%AMODD*
1,1,$1,0,0*
1,0,$1-0.005,0,0*
%
*
*
G04 PC Custom Aperture Macros*
*
*
*
*
*
*
G04 PC Aperture Table*
*
%ADD010C,0.001*%
%ADD044C,0.01*%
%ADD109C,0.005*%
*
*
*
*
G04 PC Circuitry*
G04 Layer Name PCB_ESP-Moonlight_V2.0_ - circuitry*
%LPD*%
*
*
G04 PC Custom Flashes*
G04 Layer Name PCB_ESP-Moonlight_V2.0_ - flashes*
%LPD*%
*
*
G04 PC Circuitry*
G04 Layer Name PCB_ESP-Moonlight_V2.0_ - circuitry*
%LPD*%
*
G54D10*
G54D44*
G01X1990587Y1441866D02*
X1998587D01*
Y1449866*
X1990587*
Y1441866*
X1994587Y1445866D02*
Y1449866D01*
X1990587Y1445016D02*
X1998587D01*
Y1453016*
X1990587*
Y1445016*
X1994587Y1449016D02*
Y1453016D01*
X1993406Y1445866D02*
G75*
G03X1995768I1181J0D01*
G01Y1449016*
G03X1993406I-1181J-0*
G01Y1445866*
X2018736Y1441866D02*
X2026736D01*
Y1449866*
X2018736*
Y1441866*
X2022736Y1445866D02*
Y1449866D01*
X2018736Y1445016D02*
X2026736D01*
Y1453016*
X2018736*
Y1445016*
X2022736Y1449016D02*
Y1453016D01*
X2021555Y1445866D02*
G03X2023917I1181J0D01*
G01Y1449016*
G03X2021555I-1181J-0*
G01Y1445866*
X1990587Y1427299D02*
X1998587D01*
Y1435299*
X1990587*
Y1427299*
X1994587Y1431299D02*
Y1435299D01*
X1990587Y1430449D02*
X1998587D01*
Y1438449*
X1990587*
Y1430449*
X1994587Y1434449D02*
Y1438449D01*
X1993406Y1431299D02*
G03X1995768I1181J0D01*
G01Y1434449*
G03X1993406I-1181J-0*
G01Y1431299*
X2018736Y1427299D02*
X2026736D01*
Y1435299*
X2018736*
Y1427299*
X2022736Y1431299D02*
Y1435299D01*
X2018736Y1430449D02*
X2026736D01*
Y1438449*
X2018736*
Y1430449*
X2022736Y1434449D02*
Y1438449D01*
X2021555Y1431299D02*
G03X2023917I1181J0D01*
G01Y1434449*
G03X2021555I-1181J-0*
G01Y1431299*
X1996787Y1437379D02*
X2004787Y1445379D01*
X1996787D02*
X2004787Y1437379D01*
X2012535D02*
X2020535Y1445379D01*
X2012535D02*
X2020535Y1437379D01*
X1999004Y1427303D02*
X2007004D01*
X2003004Y1423303D02*
Y1431303D01*
X1990754Y1427303D02*
X1998754D01*
X1994754Y1423303D02*
Y1431303D01*
X2018504Y1427303D02*
X2026504D01*
X2022504Y1423303D02*
Y1431303D01*
X2009254Y1427303D02*
X2017254D01*
X2013254Y1423303D02*
Y1431303D01*
X1999754Y1435053D02*
X2007754D01*
X2003754Y1431053D02*
Y1439053D01*
X1994254Y1444053D02*
X2002254D01*
X1998254Y1440053D02*
Y1448053D01*
X1990504Y1442303D02*
X1998504D01*
X1994504Y1438303D02*
Y1446303D01*
X1990504Y1437803D02*
X1998504D01*
X1994504Y1433803D02*
Y1441803D01*
X2011504Y1434803D02*
X2019504D01*
X2015504Y1430803D02*
Y1438803D01*
X2018754Y1438053D02*
X2026754D01*
X2022754Y1434053D02*
Y1442053D01*
X2018754Y1442303D02*
X2026754D01*
X2022754Y1438303D02*
Y1446303D01*
X2009504Y1440803D02*
X2017504D01*
X2013504Y1436803D02*
Y1444803D01*
X2004504Y1466803D02*
X2012504D01*
X2008504Y1462803D02*
Y1470803D01*
X2002254Y1447553D02*
X2006254Y1451553D01*
X2002254Y1455553*
X1998254Y1451553*
X2002254Y1447553*
Y1451553D02*
Y1455553D01*
Y1450303D02*
X2006254Y1454303D01*
X2002254Y1458303*
X1998254Y1454303*
X2002254Y1450303*
Y1454303D02*
Y1458303D01*
X2005004Y1461553D02*
X2013004D01*
X2009004Y1457553D02*
Y1465553D01*
X2000754Y1460553D02*
X2008754D01*
X2004754Y1456553D02*
Y1464553D01*
X2005004Y1464303D02*
X2013004D01*
X2009004Y1460303D02*
Y1468303D01*
X1996504Y1460553D02*
X2004504D01*
X2000504Y1456553D02*
Y1464553D01*
X1997754Y1467053D02*
X2005754D01*
X2001754Y1463053D02*
Y1471053D01*
X1995254Y1467053D02*
X2003254D01*
X1999254Y1463053D02*
Y1471053D01*
X1990004Y1460553D02*
X1998004D01*
X1994004Y1456553D02*
Y1464553D01*
X1990004Y1452553D02*
X1998004D01*
X1994004Y1448553D02*
Y1456553D01*
X2016504Y1459803D02*
X2024504D01*
X2020504Y1455803D02*
Y1463803D01*
X2019254Y1452803D02*
X2027254D01*
X2023254Y1448803D02*
Y1456803D01*
X2019504Y1465553D02*
X2027504D01*
X2023504Y1461553D02*
Y1469553D01*
X2011504Y1450553D02*
X2019504D01*
X2015504Y1446553D02*
Y1454553D01*
X2009004Y1466303D02*
X2017004D01*
X2013004Y1462303D02*
Y1470303D01*
X2008004Y1458303D02*
X2016004D01*
X2012004Y1454303D02*
Y1462303D01*
X2007254Y1462553D02*
X2015254D01*
X2011254Y1458553D02*
Y1466553D01*
X2004504Y1484803D02*
X2012504D01*
X2008504Y1480803D02*
Y1488803D01*
X1996504Y1484803D02*
X2004504D01*
X2000504Y1480803D02*
Y1488803D01*
X1990004Y1477303D02*
X1998004D01*
X1994004Y1473303D02*
Y1481303D01*
X1990004Y1469053D02*
X1998004D01*
X1994004Y1465053D02*
Y1473053D01*
X2019504Y1477303D02*
X2027504D01*
X2023504Y1473303D02*
Y1481303D01*
X2012504Y1484803D02*
X2020504D01*
X2016504Y1480803D02*
Y1488803D01*
X2218504Y1694803D02*
X2476504D01*
X2218504Y1670803D02*
X2476504D01*
X2218504Y1646803D02*
X2476504D01*
X2218504Y1622803D02*
X2476504D01*
X2218504Y1598803D02*
X2476504D01*
X2218504Y1574803D02*
X2476504D01*
X2218504Y1694803D02*
Y1574803D01*
X2302504Y1694803D02*
Y1574803D01*
X2338504Y1694803D02*
Y1574803D01*
X2374504Y1694803D02*
Y1574803D01*
X2428504Y1694803D02*
Y1574803D01*
X2476504Y1694803D02*
Y1574803D01*
X2445186Y1684678D02*
Y1676803D01*
X2443277Y1684678D02*
X2447095D01*
X2451186D02*
X2450640Y1684303D01*
X2450095Y1683553*
X2449822Y1682803*
X2449549Y1681678*
Y1679803*
X2449822Y1678678*
X2450095Y1677928*
X2450640Y1677178*
X2451186Y1676803*
X2452277*
X2452822Y1677178*
X2453368Y1677928*
X2453640Y1678678*
X2453913Y1679803*
Y1681678*
X2453640Y1682803*
X2453368Y1683553*
X2452822Y1684303*
X2452277Y1684678*
X2451186*
X2456368D02*
Y1676803D01*
X2459640*
X2226140Y1660678D02*
X2225322Y1660303D01*
X2224777Y1659178*
X2224504Y1657303*
Y1656178*
X2224777Y1654303*
X2225322Y1653178*
X2226140Y1652803*
X2226686*
X2227504Y1653178*
X2228049Y1654303*
X2228322Y1656178*
Y1657303*
X2228049Y1659178*
X2227504Y1660303*
X2226686Y1660678*
X2226140*
X2231049Y1653553D02*
X2230777Y1653178D01*
X2231049Y1652803*
X2231322Y1653178*
X2231049Y1653553*
X2234049Y1658803D02*
Y1659178D01*
X2234322Y1659928*
X2234595Y1660303*
X2235140Y1660678*
X2236231*
X2236777Y1660303*
X2237049Y1659928*
X2237322Y1659178*
Y1658428*
X2237049Y1657678*
X2236504Y1656553*
X2233777Y1652803*
X2237595*
X2243595Y1660678D02*
X2240868D01*
X2240595Y1657303*
X2240868Y1657678*
X2241686Y1658053*
X2242504*
X2243322Y1657678*
X2243868Y1656928*
X2244140Y1655803*
X2243868Y1655053*
X2243595Y1653928*
X2243049Y1653178*
X2242231Y1652803*
X2241413*
X2240595Y1653178*
X2240322Y1653553*
X2240049Y1654303*
X2314822Y1660678D02*
X2317822D01*
X2316186Y1657678*
X2317004*
X2317549Y1657303*
X2317822Y1656928*
X2318095Y1655803*
Y1655053*
X2317822Y1653928*
X2317277Y1653178*
X2316458Y1652803*
X2315640*
X2314822Y1653178*
X2314549Y1653553*
X2314277Y1654303*
X2323277Y1660678D02*
X2320549Y1655428D01*
X2324640*
X2323277Y1660678D02*
Y1652803D01*
X2350504Y1658803D02*
X2362504D01*
X2356504Y1652803D02*
Y1664803D01*
X2383140Y1660678D02*
X2385322Y1656928D01*
Y1652803*
X2387504Y1660678D02*
X2385322Y1656928D01*
X2389958Y1660678D02*
Y1652803D01*
Y1660678D02*
X2393504D01*
X2389958Y1656928D02*
X2392140D01*
X2389958Y1652803D02*
X2393504D01*
X2399777Y1659553D02*
X2399231Y1660303D01*
X2398413Y1660678*
X2397322*
X2396504Y1660303*
X2395958Y1659553*
Y1658803*
X2396231Y1658053*
X2396504Y1657678*
X2397049Y1657303*
X2398686Y1656553*
X2399231Y1656178*
X2399504Y1655803*
X2399777Y1655053*
Y1653928*
X2399231Y1653178*
X2398413Y1652803*
X2397322*
X2396504Y1653178*
X2395958Y1653928*
X2440958Y1659553D02*
Y1652803D01*
X2438504Y1656178D02*
X2443413D01*
X2450777Y1662178D02*
X2445868Y1650178D01*
X2453231Y1656178D02*
X2458140D01*
X2461140Y1660678D02*
X2464140D01*
X2462504Y1657678*
X2463322*
X2463868Y1657303*
X2464140Y1656928*
X2464413Y1655803*
Y1655053*
X2464140Y1653928*
X2463595Y1653178*
X2462777Y1652803*
X2461958*
X2461140Y1653178*
X2460868Y1653553*
X2460595Y1654303*
X2226140Y1636678D02*
X2225322Y1636303D01*
X2224777Y1635178*
X2224504Y1633303*
Y1632178*
X2224777Y1630303*
X2225322Y1629178*
X2226140Y1628803*
X2226686*
X2227504Y1629178*
X2228049Y1630303*
X2228322Y1632178*
Y1633303*
X2228049Y1635178*
X2227504Y1636303*
X2226686Y1636678*
X2226140*
X2231049Y1629553D02*
X2230777Y1629178D01*
X2231049Y1628803*
X2231322Y1629178*
X2231049Y1629553*
X2237049Y1635553D02*
X2236777Y1636303D01*
X2235958Y1636678*
X2235413*
X2234595Y1636303*
X2234049Y1635178*
X2233777Y1633303*
Y1631428*
X2234049Y1629928*
X2234595Y1629178*
X2235413Y1628803*
X2235686*
X2236504Y1629178*
X2237049Y1629928*
X2237322Y1631053*
Y1631428*
X2237049Y1632553*
X2236504Y1633303*
X2235686Y1633678*
X2235413*
X2234595Y1633303*
X2234049Y1632553*
X2233777Y1631428*
X2317822Y1634803D02*
Y1635178D01*
X2318095Y1635928*
X2318368Y1636303*
X2318913Y1636678*
X2320004*
X2320549Y1636303*
X2320822Y1635928*
X2321095Y1635178*
Y1634428*
X2320822Y1633678*
X2320277Y1632553*
X2317549Y1628803*
X2321368*
X2350504D02*
X2362504Y1640803D01*
X2350504D02*
X2362504Y1628803D01*
X2386140Y1636678D02*
Y1628803D01*
Y1636678D02*
X2389958Y1628803D01*
Y1636678D02*
Y1628803D01*
X2394049Y1636678D02*
X2393504Y1636303D01*
X2392958Y1635553*
X2392686Y1634803*
X2392413Y1633678*
Y1631803*
X2392686Y1630678*
X2392958Y1629928*
X2393504Y1629178*
X2394049Y1628803*
X2395140*
X2395686Y1629178*
X2396231Y1629928*
X2396504Y1630678*
X2396777Y1631803*
Y1633678*
X2396504Y1634803*
X2396231Y1635553*
X2395686Y1636303*
X2395140Y1636678*
X2394049*
X2436322Y1635553D02*
Y1628803D01*
X2433868Y1632178D02*
X2438777D01*
X2446140Y1638178D02*
X2441231Y1626178D01*
X2448595Y1632178D02*
X2453504D01*
X2457595Y1636678D02*
X2456777Y1636303D01*
X2456231Y1635178*
X2455958Y1633303*
Y1632178*
X2456231Y1630303*
X2456777Y1629178*
X2457595Y1628803*
X2458140*
X2458958Y1629178*
X2459504Y1630303*
X2459777Y1632178*
Y1633303*
X2459504Y1635178*
X2458958Y1636303*
X2458140Y1636678*
X2457595*
X2462504Y1629553D02*
X2462231Y1629178D01*
X2462504Y1628803*
X2462777Y1629178*
X2462504Y1629553*
X2466868Y1636678D02*
X2466049Y1636303D01*
X2465504Y1635178*
X2465231Y1633303*
Y1632178*
X2465504Y1630303*
X2466049Y1629178*
X2466868Y1628803*
X2467413*
X2468231Y1629178*
X2468777Y1630303*
X2469049Y1632178*
Y1633303*
X2468777Y1635178*
X2468231Y1636303*
X2467413Y1636678*
X2466868*
X2226140Y1612678D02*
X2225322Y1612303D01*
X2224777Y1611178*
X2224504Y1609303*
Y1608178*
X2224777Y1606303*
X2225322Y1605178*
X2226140Y1604803*
X2226686*
X2227504Y1605178*
X2228049Y1606303*
X2228322Y1608178*
Y1609303*
X2228049Y1611178*
X2227504Y1612303*
X2226686Y1612678*
X2226140*
X2231049Y1605553D02*
X2230777Y1605178D01*
X2231049Y1604803*
X2231322Y1605178*
X2231049Y1605553*
X2237049Y1611553D02*
X2236777Y1612303D01*
X2235958Y1612678*
X2235413*
X2234595Y1612303*
X2234049Y1611178*
X2233777Y1609303*
Y1607428*
X2234049Y1605928*
X2234595Y1605178*
X2235413Y1604803*
X2235686*
X2236504Y1605178*
X2237049Y1605928*
X2237322Y1607053*
Y1607428*
X2237049Y1608553*
X2236504Y1609303*
X2235686Y1609678*
X2235413*
X2234595Y1609303*
X2234049Y1608553*
X2233777Y1607428*
X2246049Y1610053D02*
X2249049Y1604803D01*
Y1610053D02*
X2246049Y1604803D01*
X2257777Y1611178D02*
X2258322Y1611553D01*
X2259140Y1612678*
Y1604803*
X2261868Y1605553D02*
X2261595Y1605178D01*
X2261868Y1604803*
X2262140Y1605178*
X2261868Y1605553*
X2267322Y1612678D02*
X2264595Y1607428D01*
X2268686*
X2267322Y1612678D02*
Y1604803D01*
X2320140Y1612678D02*
X2317413Y1607428D01*
X2321504*
X2320140Y1612678D02*
Y1604803D01*
X2350504D02*
X2362504D01*
Y1616803*
X2350504*
Y1604803*
X2356504Y1610803D02*
Y1616803D01*
X2383140Y1612678D02*
X2385322Y1608928D01*
Y1604803*
X2387504Y1612678D02*
X2385322Y1608928D01*
X2389958Y1612678D02*
Y1604803D01*
Y1612678D02*
X2393504D01*
X2389958Y1608928D02*
X2392140D01*
X2389958Y1604803D02*
X2393504D01*
X2399777Y1611553D02*
X2399231Y1612303D01*
X2398413Y1612678*
X2397322*
X2396504Y1612303*
X2395958Y1611553*
Y1610803*
X2396231Y1610053*
X2396504Y1609678*
X2397049Y1609303*
X2398686Y1608553*
X2399231Y1608178*
X2399504Y1607803*
X2399777Y1607053*
Y1605928*
X2399231Y1605178*
X2398413Y1604803*
X2397322*
X2396504Y1605178*
X2395958Y1605928*
X2436322Y1611553D02*
Y1604803D01*
X2433868Y1608178D02*
X2438777D01*
X2446140Y1614178D02*
X2441231Y1602178D01*
X2448595Y1608178D02*
X2453504D01*
X2457595Y1612678D02*
X2456777Y1612303D01*
X2456231Y1611178*
X2455958Y1609303*
Y1608178*
X2456231Y1606303*
X2456777Y1605178*
X2457595Y1604803*
X2458140*
X2458958Y1605178*
X2459504Y1606303*
X2459777Y1608178*
Y1609303*
X2459504Y1611178*
X2458958Y1612303*
X2458140Y1612678*
X2457595*
X2462504Y1605553D02*
X2462231Y1605178D01*
X2462504Y1604803*
X2462777Y1605178*
X2462504Y1605553*
X2466868Y1612678D02*
X2466049Y1612303D01*
X2465504Y1611178*
X2465231Y1609303*
Y1608178*
X2465504Y1606303*
X2466049Y1605178*
X2466868Y1604803*
X2467413*
X2468231Y1605178*
X2468777Y1606303*
X2469049Y1608178*
Y1609303*
X2468777Y1611178*
X2468231Y1612303*
X2467413Y1612678*
X2466868*
X2226140Y1588678D02*
X2225322Y1588303D01*
X2224777Y1587178*
X2224504Y1585303*
Y1584178*
X2224777Y1582303*
X2225322Y1581178*
X2226140Y1580803*
X2226686*
X2227504Y1581178*
X2228049Y1582303*
X2228322Y1584178*
Y1585303*
X2228049Y1587178*
X2227504Y1588303*
X2226686Y1588678*
X2226140*
X2231049Y1581553D02*
X2230777Y1581178D01*
X2231049Y1580803*
X2231322Y1581178*
X2231049Y1581553*
X2234049Y1586803D02*
Y1587178D01*
X2234322Y1587928*
X2234595Y1588303*
X2235140Y1588678*
X2236231*
X2236777Y1588303*
X2237049Y1587928*
X2237322Y1587178*
Y1586428*
X2237049Y1585678*
X2236504Y1584553*
X2233777Y1580803*
X2237595*
X2243595Y1588678D02*
X2240868D01*
X2240595Y1585303*
X2240868Y1585678*
X2241686Y1586053*
X2242504*
X2243322Y1585678*
X2243868Y1584928*
X2244140Y1583803*
X2243868Y1583053*
X2243595Y1581928*
X2243049Y1581178*
X2242231Y1580803*
X2241413*
X2240595Y1581178*
X2240322Y1581553*
X2240049Y1582303*
X2249322Y1588678D02*
X2246595Y1583428D01*
X2250686*
X2249322Y1588678D02*
Y1580803D01*
X2317822Y1586803D02*
Y1587178D01*
X2318095Y1587928*
X2318368Y1588303*
X2318913Y1588678*
X2320004*
X2320549Y1588303*
X2320822Y1587928*
X2321095Y1587178*
Y1586428*
X2320822Y1585678*
X2320277Y1584553*
X2317549Y1580803*
X2321368*
X2356504D02*
X2362504Y1586803D01*
X2356504Y1592803*
X2350504Y1586803*
X2356504Y1580803*
Y1586803D02*
Y1592803D01*
X2383140Y1588678D02*
X2385322Y1584928D01*
Y1580803*
X2387504Y1588678D02*
X2385322Y1584928D01*
X2389958Y1588678D02*
Y1580803D01*
Y1588678D02*
X2393504D01*
X2389958Y1584928D02*
X2392140D01*
X2389958Y1580803D02*
X2393504D01*
X2399777Y1587553D02*
X2399231Y1588303D01*
X2398413Y1588678*
X2397322*
X2396504Y1588303*
X2395958Y1587553*
Y1586803*
X2396231Y1586053*
X2396504Y1585678*
X2397049Y1585303*
X2398686Y1584553*
X2399231Y1584178*
X2399504Y1583803*
X2399777Y1583053*
Y1581928*
X2399231Y1581178*
X2398413Y1580803*
X2397322*
X2396504Y1581178*
X2395958Y1581928*
X2436322Y1587553D02*
Y1580803D01*
X2433868Y1584178D02*
X2438777D01*
X2446140Y1590178D02*
X2441231Y1578178D01*
X2448595Y1584178D02*
X2453504D01*
X2457595Y1588678D02*
X2456777Y1588303D01*
X2456231Y1587178*
X2455958Y1585303*
Y1584178*
X2456231Y1582303*
X2456777Y1581178*
X2457595Y1580803*
X2458140*
X2458958Y1581178*
X2459504Y1582303*
X2459777Y1584178*
Y1585303*
X2459504Y1587178*
X2458958Y1588303*
X2458140Y1588678*
X2457595*
X2462504Y1581553D02*
X2462231Y1581178D01*
X2462504Y1580803*
X2462777Y1581178*
X2462504Y1581553*
X2466868Y1588678D02*
X2466049Y1588303D01*
X2465504Y1587178*
X2465231Y1585303*
Y1584178*
X2465504Y1582303*
X2466049Y1581178*
X2466868Y1580803*
X2467413*
X2468231Y1581178*
X2468777Y1582303*
X2469049Y1584178*
Y1585303*
X2468777Y1587178*
X2468231Y1588303*
X2467413Y1588678*
X2466868*
G54D109*
X1997244Y1488189D02*
X2020079D01*
Y1479528*
X2023228*
X2025197Y1477559D02*
G03X2023228Y1479528I-1969J0D01*
G01X2025197Y1477559D02*
Y1427165D01*
X2023228Y1425197D02*
G03X2025197Y1427165I0J1968D01*
G01X2023228Y1425197D02*
X1994094D01*
X1992126Y1427165D02*
G03X1994094Y1425197I1968J0D01*
G01X1992126Y1427165D02*
Y1477559D01*
X1994094Y1479528D02*
G03X1992126Y1477559I0J-1969D01*
G01X1994094Y1479528D02*
X1997244D01*
Y1488189*
G74*
X0Y0D02*
M02*
