%
T1C.00984F0S0
X2003Y14273
X199475Y14273
X201325Y14273
X20155Y14348
X200375Y143505
X19945Y14378
X20135Y14408
X19945Y14423
X199825Y144405
X20155Y145055
X1994Y145255
X2012Y14583
X20005Y146055
X1994Y146055
X200475Y146055
X2009Y146155
X201125Y146255
X2009Y14643
X2013Y14663
X20085Y14668
X200175Y146705
X199925Y146705
X1994Y146905
X1994Y14773
X20005Y14848
X20085Y14848
X20165Y14848
X20235Y14773
X20235Y146555
X20205Y14598
X202325Y14528
X202275Y14423
X202275Y143805
X20225Y14273
T2C.01F095S3
X200225Y145155
X200225Y14543
T3C.02362F197S55
X199459Y144587G85X199459Y144902
X202274Y144587G85X202274Y144902
X199459Y14313G85X199459Y143445
X202274Y14313G85X202274Y143445
T4C.02362F197S55
X200079Y144138
X201654Y144138
M30
