*
*
G04 PADS 9.5 Build Number: 522968 generated Gerber (RS-274-X) file*
G04 PC Version=2.1*
*
%IN "PCB_ESP-Moonlight_V2.0_"*%
*
%MOIN*%
*
%FSLAX35Y35*%
*
*
*
*
G04 PC Standard Apertures*
*
*
G04 Thermal Relief Aperture macro.*
%AMTER*
1,1,$1,0,0*
1,0,$1-$2,0,0*
21,0,$3,$4,0,0,45*
21,0,$3,$4,0,0,135*
%
*
*
G04 Annular Aperture macro.*
%AMANN*
1,1,$1,0,0*
1,0,$2,0,0*
%
*
*
G04 Odd Aperture macro.*
%AMODD*
1,1,$1,0,0*
1,0,$1-0.005,0,0*
%
*
*
G04 PC Custom Aperture Macros*
*
*
*
*
*
*
G04 PC Aperture Table*
*
%ADD010C,0.001*%
%ADD109C,0.005*%
%ADD231C,0.004*%
*
*
*
*
G04 PC Circuitry*
G04 Layer Name PCB_ESP-Moonlight_V2.0_ - circuitry*
%LPD*%
*
*
G04 PC Custom Flashes*
G04 Layer Name PCB_ESP-Moonlight_V2.0_ - flashes*
%LPD*%
*
*
G04 PC Circuitry*
G04 Layer Name PCB_ESP-Moonlight_V2.0_ - circuitry*
%LPD*%
*
G54D10*
G54D109*
G01X1997244Y1488189D02*
X2020079D01*
Y1479528*
X2023228*
X2025197Y1477559D02*
G75*
G03X2023228Y1479528I-1969J0D01*
G01X2025197Y1477559D02*
Y1427165D01*
X2023228Y1425197D02*
G03X2025197Y1427165I0J1968D01*
G01X2023228Y1425197D02*
X1994094D01*
X1992126Y1427165D02*
G03X1994094Y1425197I1968J0D01*
G01X1992126Y1427165D02*
Y1477559D01*
X1994094Y1479528D02*
G03X1992126Y1477559I0J-1969D01*
G01X1994094Y1479528D02*
X1997244D01*
Y1488189*
G54D231*
X1998429Y1456463D02*
X2001579D01*
Y1454297D02*
X1998429D01*
Y1457053*
X2001579*
Y1454297*
X2008268Y1456463D02*
X2011417D01*
Y1454297D02*
X2008268D01*
Y1457053*
X2011417*
Y1454297*
X2003543Y1456463D02*
X2006693D01*
Y1454297D02*
X2003543D01*
Y1457053*
X2006693*
Y1454297*
X1992701Y1422312D02*
Y1421919D01*
X1992898Y1430974D02*
Y1434517D01*
X1993685Y1422040D02*
Y1421919D01*
X1993847Y1422040D02*
Y1421919D01*
X1993882Y1443966D02*
Y1424663D01*
X1994866Y1424008D02*
Y1424281D01*
X1994957D02*
Y1424008D01*
X1995260Y1443966D02*
Y1424281D01*
X1995327Y1424008D02*
Y1424281D01*
X1995654D02*
Y1421919D01*
X2021964Y1424008D02*
X2022866Y1422853D01*
X2022425Y1424008D02*
X2023606Y1422040D01*
Y1423954D02*
X2024591Y1422312D01*
X2022334Y1424008D02*
X2022866Y1422853D01*
X2021638Y1424281D02*
Y1421919D01*
X2021964Y1424008D02*
Y1424281D01*
X2022031D02*
Y1443966D01*
X2022334Y1424008D02*
Y1424281D01*
X2022425Y1424008D02*
Y1424281D01*
X2023409Y1424663D02*
Y1443966D01*
X2023444Y1422040D02*
Y1421919D01*
X2023606Y1422040D02*
Y1421919D01*
X2024394Y1434517D02*
Y1430974D01*
X2024591Y1422312D02*
Y1421919D01*
X1994957Y1424008D02*
X1994425Y1422853D01*
X1993686Y1423954D02*
X1992701Y1422312D01*
X1994866Y1424008D02*
X1993685Y1422040D01*
X1995327Y1424008D02*
X1994425Y1422853D01*
X2021638Y1421919D02*
X1995654D01*
X1992701D02*
X1993847D01*
X2023444D02*
X2024591D01*
X2023606Y1422040D02*
X2023444D01*
X1993847D02*
X1993685D01*
X1995654Y1422312D02*
X2021638D01*
Y1423954D02*
X1995654D01*
X2022425Y1424008D02*
X2021964D01*
X1995327D02*
X1994866D01*
X1995654Y1424281D02*
X1993828D01*
X2021638D02*
X2023463D01*
X2023409Y1424663D02*
X1993882D01*
X2024394Y1430974D02*
X2023409D01*
X1993882D02*
X1992898D01*
Y1434517D02*
X1993882D01*
X2023409D02*
X2024394D01*
X1993882Y1443966D02*
X2023409D01*
Y1424663D02*
G03X2023606Y1423953I1378J-0D01*
G01X1993685D02*
G03X1993882Y1424663I-1181J710D01*
G01X2008318Y1470803D02*
X2008227Y1471028D01*
X2008045Y1471253*
X2007863Y1471366*
X2007499*
X2007318Y1471253*
X2007136Y1471028*
X2007045Y1470803*
X2006954Y1470466*
Y1469903*
X2007045Y1469566*
X2007136Y1469341*
X2007318Y1469116*
X2007499Y1469003*
X2007863*
X2008045Y1469116*
X2008227Y1469341*
X2008318Y1469566*
Y1469903*
X2007863D02*
X2008318D01*
X2009136Y1471366D02*
Y1469003D01*
Y1471366D02*
X2010408Y1469003D01*
Y1471366D02*
Y1469003D01*
X2011227Y1471366D02*
Y1469003D01*
Y1471366D02*
X2011863D01*
X2012136Y1471253*
X2012318Y1471028*
X2012408Y1470803*
X2012499Y1470466*
Y1469903*
X2012408Y1469566*
X2012318Y1469341*
X2012136Y1469116*
X2011863Y1469003*
X2011227*
G74*
X0Y0D02*
M02*
